<svg xmlns="http://www.w3.org/2000/svg" viewBox="0 0 1871.14 567.18"><defs><style>.cls-1{fill:none;stroke:#849099;stroke-linecap:round;stroke-miterlimit:10;stroke-width:3px;}</style></defs><g id="line24"><path class="cls-1" d="M1835.5,477.43c71.17,114.84-86.54,131.23-68.91,238.27,8.41,51-73,60-119.87,45.8-25.45-7.7-27-8.26-47.52-26-23.46-20.29-56.21-40.14-88.82-39.71-29.51.39-37.64,8.57-66.85,4-35.07-5.5-50.31-7.4-80.41-28.57-14.15-10-29.71-25.67-38.3-41.67-15.09-28.14-37.78-69.44-69.12-77.25-28.78-7.18-62.27,12.15-78.47,38.62-17.46,28.56-32.15,68.48-58.11,89.25-25.13,20.1-68.71,8.41-80.13-29.91-7.92-26.54-4.74-75-11.12-100.16-1.85-7.3-13.13-47.79-26.77-49.69l-25.53-1.46" transform="translate(-24.43 -256.41)"/></g><g id="line23"><path class="cls-1" d="M975.57,495.64l28,1.41c7.06,1,21.22,6.36,24,16.93,42.93,164.32,100.39,104.78,146.61,56.61,95.24-99.26,115.49,6.2,195.2,49,34.05,18.28,51-13.85,127.58,38.21,68.64,46.7,176.47,14.87,168.79-46.3C1651.49,498,1806.34,555,1745.83,409.76" transform="translate(-24.43 -256.41)"/></g><g id="line22"><path class="cls-1" d="M975.57,492.14s23.72,1,33.88,2.1c15.86,1.74,36.68,17.82,49.14,27.44,12.79,9.88,24.63,21.47,38.43,29.72,36.19,21.67,71.3,1.78,104.75-19.46,7.67-4.88,21.82-11.22,30.58-12.85,8.37-1.55,28.26-2.82,36.35,0,18.36,6.41,23.31,17,43.34,33.94,13.17,11.13,20.26,19.4,46.83,18,23.94-1.28,32.27-11.62,60.85-11.62,19.84,0,48.63,14.73,68.12,18.93,35,7.55,75.78,8.13,72.77-37.22-7.51-113.12,145.25-117.37,80-211.89" transform="translate(-24.43 -256.41)"/></g><g id="line21"><path class="cls-1" d="M975.57,488.66l37.41,2.73c43.78,5.6,127.86,48.3,152.76,15.32,20.75-27.48,112.51-17.45,149.1-10.73,83.65,15.38,127.64,14.32,126.28-37.88-2.68-103,179.28-82.2,91.5-197.61" transform="translate(-24.43 -256.41)"/></g><g id="line20"><path class="cls-1" d="M975.57,485.22l30.79.65c13-.54,101.67,18.05,148.12-9.4,23.22-13.73,51,11.52,79.48.55,31.37-12.07,28-32.54,55.86-29.13,60.32,7.4-3.92-54.52,79-81.69,47.23-15.47,76.34-19.67,50.68-108.29" transform="translate(-24.43 -256.41)"/></g><g id="line19"><path class="cls-1" d="M975.57,481.87l52.38,1.07c60,7.45,231.69-65.56,193.56-106.93-54-58.58,70.62-25.2,19.38-102.87" transform="translate(-24.43 -256.41)"/></g><g id="line18"><path class="cls-1" d="M975.57,478.38s43.25.63,68,0c40.41-1,75.06,65,109.14,53.05,54.39-19.1,69.41-33.3,125.58-21.28,98.81,21.15,136.9-14,186.08,80.27,21.62,41.45,89.33,99.21,139.66,110,125.4,27,138.17,90.75,138.17,121.62" transform="translate(-24.43 -256.41)"/></g><g id="line17"><path class="cls-1" d="M975.57,475c65.51,2.49,109.74-12.77,129.93-17,39.75-8.29,61-62,127-11.37,51.77,39.73,78.65,29.06,159.24,18,66.4-9.14,128.6,99,170.12,146.87,53.2,61.32,240,92.27,234,180.73" transform="translate(-24.43 -256.41)"/></g><g id="line16"><path class="cls-1" d="M975.57,471.53c3.61-.1,24.87-1.8,27.18-1.86,49.31-1.42,119.73-56.45,161.92-72,69.65-25.66,90.7,60.42,242.59,23.13C1483.71,402,1568.1,534,1604.91,582c48.1,62.72,224.73,72.29,221.44,156.46" transform="translate(-24.43 -256.41)"/></g><g id="line15"><path class="cls-1" d="M975.57,468.22c10.44,0,22.24-2.11,25.64-2.64,55.45-8.67,107.58-95.34,160.48-106.12,80.48-16.39,125.6,54.07,270.23,16.55,88.42-22.94,163.71,127.14,195.87,175.24,42.92,64.19,236.66,53.55,236.08,133.43" transform="translate(-24.43 -256.41)"/></g><g id="line14"><path class="cls-1" d="M975.21,464.72c4.36,0,20.71-1.33,26.74-3.29s22.28-13.63,32.9-22.24c15-12.14,26.88-30,39.4-45.23,11.7-14.21,23.53-28.56,37.9-39.49,26.83-20.43,55-20.34,85.95-24.25,28.74-3.62,57.74-10.13,86.55-7.14,58.86,6.12,36.6,32.8,170.73,11.1,112.07-18.14,176,138.26,205.66,184.91,56.75,89.18,229.07,25.54,230.68,100.49" transform="translate(-24.43 -256.41)"/></g><g id="line13"><path class="cls-1" d="M975.57,461.42s18.77-1.65,23.83-4.23c35.56-18.13,74.87-92.24,97.06-109.8,53.21-42.13,155-79.18,243.31-43.15,31.82,13,95.16-10.43,119.65-11.88,151-8.95,210.63,91.52,231.51,163.23,20.75,71.28,198.32,9.23,203.14,80.52" transform="translate(-24.43 -256.41)"/></g><g id="line12"><path class="cls-1" d="M84.5,477.43C13.33,592.27,171,608.66,153.41,715.7c-8.41,51,73,60,119.87,45.8,25.45-7.7,27-8.26,47.52-26,23.46-20.29,56.21-40.14,88.82-39.71,29.51.39,37.64,8.57,66.85,4,35.07-5.5,50.31-7.4,80.41-28.57,14.15-10,29.71-25.67,38.3-41.67,15.09-28.14,37.78-69.44,69.12-77.25,28.78-7.18,62.27,12.15,78.47,38.62,17.46,28.56,32.15,68.48,58.11,89.25,25.13,20.1,68.71,8.41,80.13-29.91,7.92-26.54,4.74-75,11.12-100.16,1.85-7.3,13.13-47.79,26.77-49.69l25.53-1.46" transform="translate(-24.43 -256.41)"/></g><g id="line11"><path class="cls-1" d="M944.43,495.64l-28,1.41c-7.06,1-21.22,6.36-24,16.93C849.52,678.3,792.06,618.76,745.84,570.59c-95.24-99.26-115.49,6.2-195.2,49-34,18.28-51-13.85-127.58,38.21-68.64,46.7-176.47,14.87-168.79-46.3C268.51,498,113.66,555,174.17,409.76" transform="translate(-24.43 -256.41)"/></g><g id="line10"><path class="cls-1" d="M944.43,492.14s-23.72,1-33.88,2.1c-15.86,1.74-36.68,17.82-49.14,27.44-12.79,9.88-24.63,21.47-38.43,29.72-36.19,21.67-71.3,1.78-104.75-19.46-7.67-4.88-21.82-11.22-30.58-12.85-8.37-1.55-28.26-2.82-36.35,0C632.94,525.5,628,536.11,608,553c-13.17,11.13-20.26,19.4-46.83,18-23.94-1.28-32.27-11.62-60.85-11.62-19.84,0-48.63,14.73-68.12,18.93-35,7.55-75.78,8.13-72.77-37.22C366.9,428,214.14,423.72,279.4,329.2" transform="translate(-24.43 -256.41)"/></g><g id="line9"><path class="cls-1" d="M944.43,488.66,907,491.39c-43.78,5.6-127.86,48.3-152.76,15.32-20.75-27.48-112.51-17.45-149.1-10.73-83.65,15.38-127.64,14.32-126.28-37.88,2.68-103-179.28-82.2-91.5-197.61" transform="translate(-24.43 -256.41)"/></g><g id="line8"><path class="cls-1" d="M944.43,485.22l-30.79.65c-13-.54-101.67,18.05-148.12-9.4-23.22-13.73-51,11.52-79.48.55-31.37-12.07-28-32.54-55.86-29.13-60.32,7.4,3.92-54.52-79-81.69-47.23-15.47-76.34-19.67-50.68-108.29" transform="translate(-24.43 -256.41)"/></g><g id="line7"><path class="cls-1" d="M944.43,481.87l-52.38,1.07C832,490.39,660.36,417.38,698.49,376c54-58.58-70.62-25.2-19.38-102.87" transform="translate(-24.43 -256.41)"/></g><g id="line6"><path class="cls-1" d="M944.43,478.38s-43.25.63-68,0c-40.41-1-75.06,65-109.14,53.05-54.39-19.1-69.41-33.3-125.58-21.28-98.81,21.15-136.9-14-186.08,80.27C434,631.9,366.33,689.66,316,700.47c-125.4,27-138.17,90.75-138.17,121.62" transform="translate(-24.43 -256.41)"/></g><g id="line5"><path class="cls-1" d="M944.43,475c-65.51,2.49-109.74-12.77-129.93-17-39.75-8.29-61-62-127-11.37-51.77,39.73-78.65,29.06-159.24,18-66.4-9.14-128.6,99-170.12,146.87-53.2,61.32-240,92.27-234,180.73" transform="translate(-24.43 -256.41)"/></g><g id="line4"><path class="cls-1" d="M944.43,471.53c-3.61-.1-24.87-1.8-27.18-1.86-49.31-1.42-119.73-56.45-161.92-72-69.65-25.66-90.7,60.42-242.59,23.13C436.29,402,351.9,534,315.09,582,267,644.71,90.36,654.28,93.65,738.45" transform="translate(-24.43 -256.41)"/></g><g id="line3"><path class="cls-1" d="M944.43,468.22c-10.44,0-22.24-2.11-25.64-2.64-55.45-8.67-107.58-95.34-160.48-106.12-80.48-16.39-125.6,54.07-270.23,16.55-88.42-22.94-163.71,127.14-195.87,175.24C249.29,615.44,55.55,604.8,56.13,684.68" transform="translate(-24.43 -256.41)"/></g><g id="line2"><path class="cls-1" d="M944.79,464.72c-4.36,0-20.71-1.33-26.74-3.29s-22.28-13.63-32.9-22.24c-15-12.14-26.88-30-39.4-45.23-11.7-14.21-23.53-28.56-37.9-39.49-26.83-20.43-55-20.34-86-24.25-28.74-3.62-57.74-10.13-86.55-7.14-58.86,6.12-36.6,32.8-170.73,11.1C352.55,316,288.64,472.44,259,519.09,202.21,608.27,29.89,544.63,28.28,619.58" transform="translate(-24.43 -256.41)"/></g><g id="line1"><path class="cls-1" d="M944.43,461.42s-18.77-1.65-23.83-4.23C885,439.06,845.73,365,823.54,347.39c-53.21-42.13-155-79.18-243.31-43.15-31.82,13-95.16-10.43-119.65-11.88-151-8.95-210.63,91.52-231.51,163.23-20.75,71.28-198.32,9.23-203.14,80.52" transform="translate(-24.43 -256.41)"/></g></svg>