<?xml version="1.0" encoding="utf-8"?>
<svg width="1997px" height="739px" viewBox="0 0 1997 739" version="1.1" xmlns:xlink="http://www.w3.org/1999/xlink" xmlns="http://www.w3.org/2000/svg">
  <defs>
    <path d="M0 0L1993.47 0L1993.47 735.29L0 735.29L0 0Z" id="path_1" />
    <clipPath id="mask_1">
      <use xlink:href="#path_1" />
    </clipPath>
  </defs>
  <g id="2sleeve_life" transform="translate(1.5 1.5)">
    <path d="M0 0L1993.47 0L1993.47 735.29L0 735.29L0 0Z" id="Background" fill="none" fill-rule="evenodd" stroke="none" />
    <g clip-path="url(#mask_1)">
      <g transform="translate(1007.4702 312.2998)">
        <path id="line24" d="M859.93 0C931.1 114.84 773.39 131.23 791.02 238.27C799.43 289.27 718.02 298.27 671.15 284.07C645.7 276.37 644.15 275.81 623.63 258.07C600.17 237.78 567.42 217.93 534.81 218.36C505.3 218.75 497.17 226.93 467.96 222.36C432.89 216.86 417.65 214.96 387.55 193.79C373.4 183.79 357.84 168.12 349.25 152.12C334.16 123.98 311.47 82.68 280.13 74.87C251.35 67.69 217.86 87.02 201.66 113.49C184.2 142.05 169.51 181.97 143.55 202.74C118.42 222.84 74.8401 211.15 63.42 172.83C55.5 146.29 58.6801 97.83 52.3001 72.67C50.4501 65.37 39.17 24.88 25.53 22.98L0 21.52" id="Shape" fill="none" fill-rule="evenodd" stroke="#849099" stroke-width="5" stroke-linecap="round" />
      </g>
      <g transform="translate(1007.4702 244.62988)">
        <path id="line23" d="M0 85.88L28 87.29C35.0601 88.29 49.22 93.65 52 104.22C94.9301 268.54 152.39 209 198.61 160.83C293.85 61.57 314.1 167.03 393.81 209.83C427.86 228.11 444.81 195.98 521.39 248.04C590.03 294.74 697.86 262.91 690.18 201.74C675.92 88.24 830.77 145.24 770.26 0" id="Shape" fill="none" fill-rule="evenodd" stroke="#849099" stroke-width="5" stroke-linecap="round" />
      </g>
      <g transform="translate(1007.4702 164.1001)">
        <path id="line22" d="M0 162.91C0 162.91 23.72 163.91 33.88 165.01C49.74 166.75 70.5601 182.83 83.02 192.45C95.8101 202.33 107.65 213.92 121.45 222.17C157.64 243.84 192.75 223.95 226.2 202.71C233.87 197.83 248.02 191.49 256.78 189.86C265.15 188.31 285.04 187.04 293.13 189.86C311.49 196.27 316.44 206.86 336.47 223.8C349.64 234.93 356.73 243.2 383.3 241.8C407.24 240.52 415.57 230.18 444.15 230.18C463.99 230.18 492.78 244.91 512.27 249.11C547.27 256.66 588.05 257.24 585.04 211.89C577.53 98.77 730.29 94.52 665.04 0" id="Shape" fill="none" fill-rule="evenodd" stroke="#849099" stroke-width="5" stroke-linecap="round" />
      </g>
      <g transform="translate(1007.4702 95.35986)">
        <path id="line21" d="M0 228.17L37.41 230.9C81.1901 236.5 165.27 279.2 190.17 246.22C210.92 218.74 302.68 228.77 339.27 235.49C422.92 250.87 466.91 249.81 465.55 197.61C462.87 94.61 644.83 115.41 557.05 0" id="Shape" fill="none" fill-rule="evenodd" stroke="#849099" stroke-width="5" stroke-linecap="round" />
      </g>
      <g transform="translate(1007.4702 92.779785)">
        <path id="line20" d="M0 227.31L30.79 227.96C43.79 227.42 132.46 246.01 178.91 218.56C202.13 204.83 229.91 230.08 258.39 219.11C289.76 207.04 286.39 186.57 314.25 189.98C374.57 197.38 310.33 135.46 393.25 108.29C440.48 92.82 469.59 88.62 443.93 0" id="Shape" fill="none" fill-rule="evenodd" stroke="#849099" stroke-width="5" stroke-linecap="round" />
      </g>
      <g transform="translate(1007.4702 108.009766)">
        <path id="line19" d="M0 208.73L52.38 209.8C112.38 217.25 284.07 144.24 245.94 102.87C191.94 44.29 316.56 77.67 265.32 0" id="Shape" fill="none" fill-rule="evenodd" stroke="#849099" stroke-width="5" stroke-linecap="round" />
      </g>
      <g transform="translate(1007.4702 313.23877)">
        <path id="line18" d="M0 0.011261C0 0.011261 43.25 0.641266 68 0.011261C108.41 -0.988739 143.06 65.0113 177.14 53.0612C231.53 33.9613 246.55 19.7613 302.72 31.7813C401.53 52.9312 439.62 17.7813 488.8 112.051C510.42 153.501 578.13 211.261 628.46 222.051C753.86 249.051 766.63 312.801 766.63 343.671" id="Shape" fill="none" fill-rule="evenodd" stroke="#849099" stroke-width="5" stroke-linecap="round" />
      </g>
      <g transform="translate(1007.4702 260.03223)">
        <path id="line17" d="M0 49.8376C65.51 52.3276 109.74 37.0676 129.93 32.8376C169.68 24.5476 190.93 -29.1624 256.93 21.4676C308.7 61.1976 335.58 50.5276 416.17 39.4676C482.57 30.3276 544.77 138.468 586.29 186.338C639.49 247.658 826.29 278.608 820.29 367.068" id="Shape" fill="none" fill-rule="evenodd" stroke="#849099" stroke-width="5" stroke-linecap="round" />
      </g>
      <g transform="translate(1007.4702 227.67822)">
        <path id="line16" d="M0 78.7218C3.60999 78.6218 24.87 76.9218 27.1801 76.8618C76.4901 75.4418 146.91 20.4118 189.1 4.86185C258.75 -20.7982 279.8 65.2819 431.69 27.9919C508.14 9.19183 592.53 141.192 629.34 189.192C677.44 251.912 854.07 261.482 850.78 345.652" id="Shape" fill="none" fill-rule="evenodd" stroke="#849099" stroke-width="5" stroke-linecap="round" />
      </g>
      <g transform="translate(1007.4702 191.81299)">
        <path id="line15" d="M0 111.277C10.4399 111.277 22.24 109.167 25.64 108.637C81.09 99.9668 133.22 13.2968 186.12 2.51683C266.6 -13.8732 311.72 56.5868 456.35 19.0668C544.77 -3.87318 620.06 146.207 652.22 194.307C695.14 258.497 888.88 247.857 888.3 327.737" id="Shape" fill="none" fill-rule="evenodd" stroke="#849099" stroke-width="5" stroke-linecap="round" />
      </g>
      <g transform="translate(1007.10986 157.18652)">
        <path id="line14" d="M0 142.404C4.35998 142.404 20.71 141.074 26.74 139.114C32.77 137.154 49.02 125.484 59.64 116.874C74.64 104.734 86.52 86.8736 99.04 71.6435C110.74 57.4335 122.57 43.0835 136.94 32.1535C163.77 11.7236 191.94 11.8136 222.89 7.90355C251.63 4.28355 280.63 -2.22646 309.44 0.763535C368.3 6.88353 346.04 33.5635 480.17 11.8635C592.24 -6.27647 656.17 150.124 685.83 196.774C742.58 285.953 914.9 222.313 916.51 297.263" id="Shape" fill="none" fill-rule="evenodd" stroke="#849099" stroke-width="5" stroke-linecap="round" />
      </g>
      <g transform="translate(1007.4702 124.538086)">
        <path id="line13" d="M0 171.752C0 171.752 18.77 170.102 23.83 167.522C59.39 149.392 98.7 75.2822 120.89 57.7222C174.1 15.5922 275.89 -21.4578 364.2 14.5722C396.02 27.5722 459.36 4.14217 483.85 2.69216C634.85 -6.25785 694.48 94.2122 715.36 165.922C736.11 237.202 913.68 175.152 918.5 246.442" id="Shape" fill="none" fill-rule="evenodd" stroke="#849099" stroke-width="5" stroke-linecap="round" />
      </g>
      <g transform="translate(97.83789 312.2998)">
        <path id="line12" d="M18.5623 0C-52.6077 114.84 105.062 131.23 87.4723 238.27C79.0623 289.27 160.472 298.27 207.342 284.07C232.792 276.37 234.342 275.81 254.862 258.07C278.322 237.78 311.072 217.93 343.682 218.36C373.192 218.75 381.322 226.93 410.532 222.36C445.602 216.86 460.842 214.96 490.942 193.79C505.092 183.79 520.652 168.12 529.242 152.12C544.332 123.98 567.022 82.68 598.362 74.87C627.142 67.69 660.632 87.02 676.832 113.49C694.292 142.05 708.982 181.97 734.942 202.74C760.072 222.84 803.652 211.15 815.072 172.83C822.992 146.29 819.812 97.83 826.192 72.67C828.042 65.37 839.322 24.88 852.962 22.98L878.492 21.52" id="Shape" fill="none" fill-rule="evenodd" stroke="#849099" stroke-width="5" stroke-linecap="round" />
      </g>
      <g transform="translate(191.97998 244.62988)">
        <path id="line11" d="M784.35 85.88L756.35 87.29C749.29 88.29 735.13 93.65 732.35 104.22C689.44 268.54 631.98 209 585.76 160.83C490.52 61.57 470.27 167.03 390.56 209.83C356.56 228.11 339.56 195.98 262.98 248.04C194.34 294.74 86.51 262.91 94.19 201.74C108.43 88.24 -46.42 145.24 14.09 0" id="Shape" fill="none" fill-rule="evenodd" stroke="#849099" stroke-width="5" stroke-linecap="round" />
      </g>
      <g transform="translate(295.04053 164.06982)">
        <path id="line10" d="M681.289 162.94C681.289 162.94 657.569 163.94 647.409 165.04C631.549 166.78 610.729 182.86 598.269 192.48C585.48 202.36 573.639 213.95 559.839 222.2C523.649 243.87 488.539 223.98 455.089 202.74C447.419 197.86 433.269 191.52 424.509 189.89C416.139 188.34 396.249 187.07 388.159 189.89C369.799 196.3 364.859 206.91 344.859 223.8C331.689 234.93 324.599 243.2 298.029 241.8C274.089 240.52 265.759 230.18 237.179 230.18C217.339 230.18 188.549 244.91 169.059 249.11C134.059 256.66 93.2794 257.24 96.2895 211.89C103.759 98.8 -49.0005 94.52 16.2594 0" id="Shape" fill="none" fill-rule="evenodd" stroke="#849099" stroke-width="5" stroke-linecap="round" />
      </g>
      <g transform="translate(395.31006 95.35986)">
        <path id="line9" d="M581.02 228.17L543.59 230.9C499.81 236.5 415.73 279.2 390.83 246.22C370.08 218.74 278.32 228.77 241.73 235.49C158.08 250.87 114.09 249.81 115.45 197.61C118.13 94.61 -63.83 115.41 23.95 0" id="Shape" fill="none" fill-rule="evenodd" stroke="#849099" stroke-width="5" stroke-linecap="round" />
      </g>
      <g transform="translate(522.8467 92.779785)">
        <path id="line8" d="M453.483 227.31L422.693 227.96C409.693 227.42 321.023 246.01 274.573 218.56C251.354 204.83 223.573 230.08 195.094 219.11C163.724 207.04 167.094 186.57 139.234 189.98C78.9135 197.38 143.153 135.46 60.2335 108.29C13.0035 92.82 -16.1065 88.62 9.55353 0" id="Shape" fill="none" fill-rule="evenodd" stroke="#849099" stroke-width="5" stroke-linecap="round" />
      </g>
      <g transform="translate(698.36426 108)">
        <path id="line7" d="M277.966 208.74L225.586 209.81C165.536 217.26 -6.10437 144.25 32.0256 102.87C86.0256 44.29 -38.5944 77.67 12.6456 0" id="Shape" fill="none" fill-rule="evenodd" stroke="#849099" stroke-width="5" stroke-linecap="round" />
      </g>
      <g transform="translate(209.72998 313.23877)">
        <path id="line6" d="M766.6 0.011261C766.6 0.011261 723.35 0.641266 698.6 0.011261C658.19 -0.988739 623.54 65.0113 589.46 53.0612C535.07 33.9613 520.05 19.7613 463.88 31.7813C365.07 52.9312 326.98 17.7813 277.8 112.051C256.17 153.531 188.5 211.291 138.17 222.101C12.77 249.101 0 312.851 0 343.721" id="Shape" fill="none" fill-rule="evenodd" stroke="#849099" stroke-width="5" stroke-linecap="round" />
      </g>
      <g transform="translate(155.89844 260.03223)">
        <path id="line5" d="M820.431 49.8376C754.921 52.3276 710.691 37.0676 690.501 32.8376C650.751 24.5476 629.501 -29.1624 563.501 21.4676C511.731 61.1976 484.851 50.5276 404.261 39.4676C337.861 30.3276 275.661 138.468 234.141 186.338C180.941 247.658 -5.85858 278.608 0.141418 367.068" id="Shape" fill="none" fill-rule="evenodd" stroke="#849099" stroke-width="5" stroke-linecap="round" />
      </g>
      <g transform="translate(125.504395 227.67822)">
        <path id="line4" d="M850.825 78.7218C847.215 78.6218 825.955 76.9218 823.645 76.8618C774.335 75.4418 703.915 20.4118 661.725 4.86185C592.075 -20.7982 571.025 65.2819 419.135 27.9919C342.685 9.19183 258.295 141.192 221.485 189.192C173.395 251.902 -3.24461 261.472 0.0453873 345.642" id="Shape" fill="none" fill-rule="evenodd" stroke="#849099" stroke-width="5" stroke-linecap="round" />
      </g>
      <g transform="translate(88.02881 191.81299)">
        <path id="line3" d="M888.301 111.277C877.861 111.277 866.061 109.167 862.661 108.637C807.211 99.9668 755.081 13.2968 702.181 2.51683C621.701 -13.8732 576.581 56.5868 431.951 19.0668C343.531 -3.87318 268.241 146.207 236.081 194.307C193.161 258.497 -0.578743 247.857 0.00125885 327.737" id="Shape" fill="none" fill-rule="evenodd" stroke="#849099" stroke-width="5" stroke-linecap="round" />
      </g>
      <g transform="translate(60.180176 157.18652)">
        <path id="line2" d="M916.51 142.404C912.15 142.404 895.8 141.074 889.77 139.114C883.74 137.154 867.49 125.484 856.87 116.874C841.87 104.734 829.99 86.8736 817.47 71.6435C805.77 57.4335 793.94 43.0835 779.57 32.1535C752.74 11.7236 724.57 11.8136 693.57 7.90355C664.83 4.28355 635.83 -2.22646 607.02 0.763535C548.16 6.88353 570.42 33.5635 436.29 11.8635C324.27 -6.31645 260.36 150.124 230.72 196.774C173.93 285.954 1.61 222.314 0 297.264" id="Shape" fill="none" fill-rule="evenodd" stroke="#849099" stroke-width="5" stroke-linecap="round" />
      </g>
      <g transform="translate(57.83008 124.538086)">
        <path id="line1" d="M918.5 171.752C918.5 171.752 899.73 170.102 894.67 167.522C859.07 149.392 819.8 75.3321 797.61 57.7222C744.4 15.5922 642.61 -21.4578 554.3 14.5722C522.48 27.5722 459.14 4.14217 434.65 2.69216C283.65 -6.25785 224.02 94.2122 203.14 165.922C182.39 237.202 4.81999 175.152 0 246.442" id="Shape" fill="none" fill-rule="evenodd" stroke="#849099" stroke-width="5" stroke-linecap="round" />
      </g>
      <g id="life" transform="translate(641.43555 0.9992676)">
        <path id="life_left" d="M0 334.832C260.58 348.412 385.78 272.832 313.6 40.7216C309.34 27.0416 289.92 47.0216 280.01 55.6716C269.23 65.0716 249.09 85.1716 254.41 87.8916C260.33 90.8916 273.55 75.6716 277.62 57.4016C281.69 39.1316 279.78 38.5216 270.24 36.2816C261.61 34.2816 250.64 49.9816 249.17 51.8916C246.5 55.3816 248.4 56.7616 250.26 55.3616C251.26 54.5916 259.79 39.4316 259.73 36.5616C259.67 33.6916 256.15 30.2216 249.73 33.5016C243.31 36.7816 223.95 53.2016 218.73 60.7916C212.67 69.5316 210.56 78.2316 218.04 71.6116C225.52 64.9916 254.8 22.7416 257.93 15.2216C261.06 7.70161 264.78 -3.77839 258.09 1.22161C251.4 6.22161 246.69 19.9616 245.7 26.5016C244.71 33.0416 246.43 34.2716 242.63 34.7116C238.83 35.1516 225.5 30.7116 216.97 35.2916C208.44 39.8716 204.71 47.5616 209.64 47.9816C214.57 48.4016 225.24 34.9816 224.55 29.7116C223.86 24.4416 221.77 19.7716 215.89 18.3816C210.01 16.9916 195.47 15.9116 188.44 27.6516C178.32 44.5716 229.26 115.142 48.1102 243.862C38.8302 250.462 6.84021 270.982 6.84021 284.092L6.84021 327.872C6.84021 328.744 6.49353 329.581 5.87659 330.198C5.25952 330.815 4.42273 331.162 3.55017 331.162L0.0301514 331.162" transform="translate(367.2246 5.389106)" id="Shape" fill="none" fill-rule="evenodd" stroke="#2BB673" stroke-width="3" stroke-linecap="round" stroke-linejoin="round" />
        <path id="life_right" d="M333.805 340.221C85.2146 353.171 -40.1954 285.021 11.4846 77.2207L14.2046 66.2207C15.3646 53.1007 22.5446 44.0307 26.9146 41.5607C32.1746 38.5607 41.1446 40.8107 44.5946 44.8307C48.0446 48.8507 46.4646 65.8707 42.0546 68.2307C37.6447 70.5907 36.6546 62.1007 41.2846 53.5907C45.9146 45.0807 59.5346 41.5907 62.4746 39.1207C65.4146 36.6507 63.3146 36.5807 60.5746 30.5607C57.8345 24.5407 54.3146 10.4807 57.1746 2.61069C60.0345 -5.25931 63.1746 6.42069 64.6746 14.4407C66.1746 22.4607 64.6746 73.8307 61.9946 83.4407C59.3146 93.0507 56.3546 84.6407 56.6646 74.0007C56.9346 64.7707 64.2245 40.4507 67.8046 34.2007C71.3846 27.9507 76.2346 28.9507 77.8046 31.3207C79.3746 33.6907 80.5646 51.0307 80.1246 52.2407C79.3246 54.4207 76.9745 54.3107 77.3146 49.9307C77.5046 47.5207 78.1246 28.3507 86.4546 25.3507C95.6846 22.0307 97.6246 21.5007 104.175 39.0307C110.725 56.5607 107.945 76.5607 101.335 77.2407C95.3945 77.8607 101.335 50.0307 105.225 36.2407C108.815 23.5907 114.225 -3.75932 125.225 5.40068C130.898 10.1007 136.335 14.7674 141.535 19.4007C146.56 23.8733 149.288 30.3817 148.955 37.1007L146.955 76.6507C146.879 78.1074 146.95 79.568 147.165 81.0107C152.625 117.401 178.655 173.141 285.645 249.171C294.935 255.771 326.925 276.291 326.925 289.401L326.925 333.181C326.925 334.998 328.398 336.471 330.215 336.471L333.735 336.471" id="Shape" fill="none" fill-rule="evenodd" stroke="#2BB673" stroke-width="3" stroke-linecap="round" stroke-linejoin="round" />
      </g>
      <g id="numbers" transform="translate(0 23)">
        <path d="M7.78 3.11999L7.65 3.11999L0.780001 7.07001L0 4.53998L7.84 0L10.9 0L10.9 42.12L7.78 42.12L7.78 3.11999Z" transform="translate(0 332.75)" id="Shape" fill="#FFFFFF" fill-rule="evenodd" stroke="none" />
        <path d="M0 42.86L0 40.86L4.14 37C18.14 24 22.74 19.17 22.74 12.56C22.74 7.96005 20.74 2.71005 12.63 2.71005C8.95693 2.82645 5.4447 4.24411 2.72 6.71005L1.42 4.57004C4.66659 1.62344 8.89561 -0.00613403 13.28 3.05176e-05C23.07 3.05176e-05 25.98 7.32004 25.98 11.79C25.98 20.22 19.76 26.24 7.51 37.45L4.51 40.11L4.51 40.24L27.21 40.24L27.21 42.8999L0 42.86Z" transform="translate(2.5599995 431.87)" id="Shape" fill="#FFFFFF" fill-rule="evenodd" stroke="none" />
        <path d="M1.33 38.0399C4.37122 39.9146 7.86757 40.9209 11.44 40.9499C21.44 40.9499 23.1 34.1499 23.04 31.2299C22.91 23.9099 15.91 21.3799 9.5 21.3799L6.32 21.3799L6.32 18.72L9.69 18.72C14.94 18.72 21.16 16.1299 21.16 10.3C21.16 6.73999 19.02 2.71997 12.28 2.71997C8.97452 2.78217 5.77412 3.89215 3.14001 5.89002L1.86 3.55994C4.99416 1.29297 8.7522 0.0495606 12.62 0C21.49 -6.10352e-05 24.47 5.37994 24.47 9.90991C24.47 14.2499 21.56 18.0099 16.18 19.9099L16.18 20.0399C22.01 21.1399 26.35 25.4199 26.35 31.1199C26.35 37.1199 21.75 43.6899 11 43.6899C7.10885 43.7455 3.28601 42.6647 0 40.58L1.33 38.0399Z" transform="translate(33.04 506.4001)" id="Shape" fill="#FFFFFF" fill-rule="evenodd" stroke="none" />
        <path d="M22.23 42.13L22.23 29.81L0 29.81L0 27.68L22.78 0L25.25 0L25.25 27.16L32.25 27.16L32.25 29.81L25.25 29.81L25.25 42.13L22.23 42.13ZM22.23 27.13L22.23 9.08002C22.23 7.52002 22.23 5.84003 22.36 4.35004L22.16 4.28003C21.252 5.7276 20.2498 7.11395 19.16 8.43005L3.83 27L3.83 27.13L22.23 27.13Z" transform="translate(76.12 563.87)" id="Shape" fill="#FFFFFF" fill-rule="evenodd" stroke="none" />
        <path d="M25.16 2.78998L7.85998 2.78998L5.85998 16.33C7.36361 16.1136 8.88091 16.0067 10.4 16.0099C13.0537 15.955 15.6927 16.4169 18.17 17.3699C22.8081 19.2476 25.8208 23.7765 25.76 28.7799C25.76 37.1999 18.95 42.8999 10.76 42.8999C6.95548 42.9866 3.21081 41.9425 0 39.8999L1.29998 37.3799C4.20484 39.2228 7.57992 40.1882 11.02 40.1599C17.69 40.1599 22.68 35.3699 22.62 29.4099C22.56 23.6999 18.86 18.7099 9.61999 18.7099C7.34339 18.7095 5.07011 18.8834 2.82006 19.2299L5.40998 0L25.17 0L25.16 2.78998Z" transform="translate(127.49001 623.27)" id="Shape" fill="#FFFFFF" fill-rule="evenodd" stroke="none" />
        <path d="M24.89 2.94C23.1292 2.92102 21.3707 3.07513 19.64 3.40009C10.7699 5.07361 4.1201 12.4813 3.40999 21.48L3.53 21.48C6.2115 17.4534 10.7527 15.0623 15.59 15.13C24.21 15.13 29.39 21.13 29.39 28.86C29.39 35.86 24.47 43.7 15 43.7C7.23 43.7 0 38.07 0 25.82C0 17 3.42999 10.4 7.71001 6.51001C11.1749 3.40326 15.4382 1.32526 20.02 0.51001C21.5991 0.18103 23.207 0.0101929 24.82 0L24.89 2.94ZM26.06 28.94C26.06 21.82 21.26 17.8 14.78 17.8C10.3828 17.8925 6.34326 20.2429 4.09 24.02C3.58604 24.8417 3.29716 25.7771 3.25 26.7399C3.25 34.52 7.25 40.9999 15.17 40.9999C21.91 41.05 26.06 35.54 26.06 29L26.06 28.94Z" transform="translate(183.48999 654.87)" id="Shape" fill="#FFFFFF" fill-rule="evenodd" stroke="none" />
        <path d="M26.57 0L26.57 2.52L5.90002 42.12L2.79004 42.12L23.27 2.78L23.27 2.64999L0 2.64999L0 0L26.57 0Z" transform="translate(708.47003 19.680008)" id="Shape" fill="#FFFFFF" fill-rule="evenodd" stroke="none" />
        <path d="M0 32.19C0 27.07 3.16998 23.05 9.33002 20.72L9.33002 20.46C3.69 18.32 1.75 14.62 1.75 11C1.75 4.64 7.32001 0 14.9 0C22.29 0 27.15 4.41 27.15 10.24C27.15 13.54 25.66 17.75 19.15 20.35L19.15 20.61C25.76 22.74 28.7401 26.76 28.7401 31.49C28.7401 39.14 21.6801 43.68 14.35 43.68C6.60999 43.66 0 39.38 0 32.19L0 32.19ZM25.53 32.06C25.53 25.9 21.1201 23.31 13.28 21.62C6.74005 23.05 3.28003 26.81 3.28003 31.62C2.96002 36.48 7.10004 41.08 14.28 41.08C21.46 41.08 25.53 36.79 25.53 32.06L25.53 32.06ZM4.86005 10.54C4.79004 15.6 8.55005 18.25 15.29 19.54C20.21 18.24 23.91 15.33 23.91 10.4C23.91 6.97 21.51 2.5 14.58 2.5C8.14001 2.51001 4.85999 6.46001 4.85999 10.54L4.86005 10.54Z" transform="translate(525.76 0.020004272)" id="Shape" fill="#FFFFFF" fill-rule="evenodd" stroke="none" />
        <path d="M3.94998 40.76C5.77289 40.8546 7.60068 40.7472 9.39999 40.44C13.3092 39.9147 16.9091 38.0316 19.57 35.12C22.36 32.12 24.49 27.93 25.34 22.03L25.14 22.1C22.2946 25.8752 17.8168 28.0638 13.09 27.99C4.34 27.99 0 21.38 0 15.1C0 7.45001 5.70001 0 14.84 0C22.16 0 28.51 5.57001 28.51 17.88C28.51 28.06 24.56 34.6 20.51 38.17C17.6542 40.6411 14.2104 42.3355 10.51 43.09C8.37521 43.5032 6.20428 43.7008 4.03 43.68L3.94998 40.76ZM3.16998 14.97C3.0849 17.7392 4.1525 20.4196 6.11816 22.372C8.08383 24.3244 10.7714 25.3738 13.5399 25.27C18.0014 25.3939 22.2216 23.248 24.75 19.57C25.1183 18.9885 25.3221 18.3181 25.3399 17.63C25.34 9.39001 21.97 2.63002 14.13 2.63002C7.31998 2.66 3.16998 8.55 3.16998 14.97L3.16998 14.97Z" transform="translate(399.44 0)" id="Shape" fill="#FFFFFF" fill-rule="evenodd" stroke="none" />
        <path d="M7.78 3.10999L7.64999 3.10999L0.779999 7.06L0 4.53L7.84 0L10.89 0L10.89 42.12L7.78 42.12L7.78 3.10999Z" transform="translate(274.88998 70.98003)" id="Shape" fill="#FFFFFF" fill-rule="evenodd" stroke="none" />
        <path d="M29 21.06C29 36.06 23.3 43.68 14 43.68C6.87 43.68 0.26001 37.13 0 22.1C0 6.80002 7.45001 0 15 0C23.23 -3.05176e-05 29 6.79999 29 21.06L29 21.06ZM3.28 22.16C3.28 34.41 7.94 41.08 14.36 41.08C22.13 41.08 25.7 33.31 25.7 21.51C25.7 10.24 22.39 2.59 14.49 2.59C8.39999 2.59 3.28 9.06998 3.28 22.16L3.28 22.16Z" transform="translate(303.5 70.20003)" id="Shape" fill="#FFFFFF" fill-rule="evenodd" stroke="none" />
        <path d="M7.78 3.10999L7.64999 3.10999L0.779999 7.06L0 4.53L7.85001 0L10.85 0L10.85 42.12L7.74001 42.12L7.78 3.10999Z" transform="translate(169.59 165.48003)" id="Shape" fill="#FFFFFF" fill-rule="evenodd" stroke="none" />
        <path d="M7.77 3.10999L7.64 3.10999L0.779999 7.06L0 4.53L7.84 0L10.84 0L10.84 42.12L7.73 42.12L7.77 3.10999Z" transform="translate(203.93999 165.48003)" id="Shape" fill="#FFFFFF" fill-rule="evenodd" stroke="none" />
        <path d="M7.78 3.10999L7.65 3.10999L0.779999 7.06L0 4.53L7.85 0L10.85 0L10.85 42.12L7.78 42.12L7.78 3.10999Z" transform="translate(75.12 219.48003)" id="Shape" fill="#FFFFFF" fill-rule="evenodd" stroke="none" />
        <path d="M0 42.91L0 40.91L4.14999 37.09C18.15 24.09 22.75 19.26 22.75 12.65C22.75 8.05002 20.75 2.80002 12.64 2.80002C8.96347 2.91406 5.44731 4.33188 2.72002 6.80002L1.42 4.66C4.65301 1.68063 8.88356 0.0184021 13.28 0C23.07 0 25.98 7.32001 25.98 11.79C25.98 20.22 19.76 26.24 7.52 37.45L4.52 40.11L4.52 40.24L27.2 40.24L27.2 42.9L0 42.91Z" transform="translate(104.189995 218.68999)" id="Shape" fill="#FFFFFF" fill-rule="evenodd" stroke="none" />
        <path d="M7.78003 3.06L7.65002 3.06L0.780029 7.06L0 4.53998L7.83997 0L10.84 0L10.84 42.12L7.72998 42.12L7.78003 3.06Z" transform="translate(1929.78 327.57)" id="Shape" fill="#FFFFFF" fill-rule="evenodd" stroke="none" />
        <path d="M1.35022 38.04C4.38818 39.9234 7.88599 40.9337 11.4602 40.9601C21.4602 40.96 23.1202 34.15 23.0602 31.2401C22.9302 23.92 15.9302 21.3901 9.51013 21.3901L6.34009 21.3901L6.34009 18.73L9.71008 18.73C14.9601 18.73 21.1801 16.14 21.1801 10.3101C21.1801 6.74005 19.04 2.72003 12.3 2.72003C8.99341 2.78497 5.79285 3.8985 3.16003 5.89996L1.87 3.57001C5.00024 1.30139 8.75452 0.0545654 12.62 0C21.5 0 24.48 5.38 24.48 9.91998C24.48 14.26 21.5699 18.02 16.1899 19.92L16.1899 20.05C22.0199 21.15 26.36 25.43 26.36 31.13C26.36 37.13 21.76 43.7 11 43.7C7.10889 43.7556 3.28601 42.6747 0 40.59L1.35022 38.04Z" transform="translate(1958.8898 326.73993)" id="Shape" fill="#FFFFFF" fill-rule="evenodd" stroke="none" />
        <path d="M7.77002 3.10999L7.64002 3.10999L0.780029 7.06L0 4.53998L7.83997 0L10.89 0L10.89 42.12L7.77002 42.12L7.77002 3.10999Z" transform="translate(1934.89 416.62)" id="Shape" fill="#FFFFFF" fill-rule="evenodd" stroke="none" />
        <path d="M22.22 42.12L22.22 29.81L0 29.81L0 27.67L22.8101 0L25.27 0L25.27 27.15L32.27 27.15L32.27 29.81L25.27 29.81L25.27 42.12L22.22 42.12ZM22.22 27.12L22.22 9.07001C22.22 7.52002 22.22 5.83002 22.35 4.34003L22.16 4.28003C21.2467 5.72083 20.2449 7.10352 19.16 8.42004L3.87 27.02L3.87 27.15L22.22 27.12Z" transform="translate(1961.2001 416.62)" id="Shape" fill="#FFFFFF" fill-rule="evenodd" stroke="none" />
        <path d="M7.78003 3.10999L7.65002 3.10999L0.780029 7.06L0 4.53998L7.83997 0L10.84 0L10.84 42.12L7.72998 42.12L7.78003 3.10999Z" transform="translate(1911.34 496.59003)" id="Shape" fill="#FFFFFF" fill-rule="evenodd" stroke="none" />
        <path d="M25.17 2.81006L7.86999 2.81006L5.87 16.35C7.37036 16.1342 8.8844 16.0272 10.4001 16.03C13.0574 15.9702 15.7006 16.4322 18.1799 17.39C22.8108 19.2695 25.8184 23.7927 25.76 28.79C25.76 37.22 18.96 42.92 10.76 42.92C6.95544 43.0067 3.21082 41.9626 0 39.92L1.30005 37.39C4.20361 39.2371 7.57898 40.2059 11.02 40.1801C17.6901 40.18 22.6801 35.38 22.62 29.42C22.55 23.72 18.86 18.73 9.62 18.73C7.34338 18.7292 5.06995 18.903 2.81995 19.25L5.46997 0L25.24 0L25.17 2.81006Z" transform="translate(1940.41 496.56995)" id="Shape" fill="#FFFFFF" fill-rule="evenodd" stroke="none" />
        <path d="M7.78003 3.06L7.65002 3.06L0.780029 7.06L0 4.53998L7.83997 0L10.84 0L10.84 42.12L7.72998 42.12L7.78003 3.06Z" transform="translate(1873.54 561.44)" id="Shape" fill="#FFFFFF" fill-rule="evenodd" stroke="none" />
        <path d="M24.97 2.95996C23.2095 2.93677 21.4509 3.08746 19.72 3.41003C10.834 5.06757 4.16443 12.4791 3.44995 21.49L3.57996 21.49C6.24731 17.4786 10.7629 15.0891 15.58 15.14C24.2 15.14 29.39 21.14 29.39 28.88C29.39 35.88 24.46 43.72 15 43.72C7.21997 43.72 0 38.08 0 25.83C0 17.02 3.43994 10.41 7.70996 6.52002C11.1749 3.41321 15.4382 1.33527 20.02 0.52002C21.5983 0.184387 23.2065 0.0101318 24.8201 0L24.97 2.95996ZM26.13 29.0099C26.13 21.8799 21.34 17.8599 14.86 17.8599C10.4619 17.9584 6.42212 20.3068 4.16003 24.0799C3.6604 24.9072 3.37183 25.8447 3.32007 26.8099C3.32007 34.5799 7.32007 41.0599 15.2401 41.0599C21.98 41.06 26.1299 35.55 26.1299 29.01L26.13 29.0099Z" transform="translate(1901.8401 560.57)" id="Shape" fill="#FFFFFF" fill-rule="evenodd" stroke="none" />
        <path d="M7.78003 3.10999L7.65002 3.10999L0.780029 7.06L0 4.53998L7.83997 0L10.89 0L10.89 42.12L7.78003 42.12L7.78003 3.10999Z" transform="translate(1827.64 636.99)" id="Shape" fill="#FFFFFF" fill-rule="evenodd" stroke="none" />
        <path d="M26.5701 0L26.5701 2.53003L5.90002 42.1201L2.79004 42.1201L23.26 2.79004L23.26 2.66003L0 2.66003L0 6.10352e-05L26.5701 0Z" transform="translate(1858.1599 636.99)" id="Shape" fill="#FFFFFF" fill-rule="evenodd" stroke="none" />
        <path d="M7.78003 3.06L7.65002 3.06L0.780029 7.06L0 4.53998L7.83997 0L10.84 0L10.84 42.12L7.72998 42.12L7.78003 3.06Z" transform="translate(1752.04 669.44)" id="Shape" fill="#FFFFFF" fill-rule="evenodd" stroke="none" />
        <path d="M0 32.19C0 27.07 3.18005 23.05 9.33996 20.72L9.33996 20.46C3.69995 18.32 1.75 14.63 1.75 11C1.75 4.65002 7.32996 0 14.91 0C22.3 0 27.16 4.40997 27.16 10.24C27.16 13.55 25.67 17.76 19.16 20.35L19.16 20.61C25.77 22.75 28.75 26.77 28.75 31.5C28.75 39.14 21.6801 43.68 14.36 43.68C6.60998 43.61 0 39.33 0 32.19L0 32.19ZM25.54 32.06C25.54 25.9 21.13 23.31 13.29 21.63C6.73999 23.05 3.29004 26.81 3.29004 31.63C2.97009 36.49 7.10999 41.09 14.29 41.09C21.4701 41.09 25.54 36.74 25.54 32.01L25.54 32.06ZM4.85999 10.55C4.79993 15.6 8.55994 18.26 15.2999 19.55C20.22 18.26 23.9199 15.34 23.9199 10.42C23.9199 6.97998 21.5199 2.51001 14.58 2.51001C8.16003 2.46002 4.85999 6.40997 4.85999 10.5L4.85999 10.55Z" transform="translate(1780.74 668.68)" id="Shape" fill="#FFFFFF" fill-rule="evenodd" stroke="none" />
        <path d="M7.77002 3.07001L7.64001 3.07001L0.77002 7.07001L0 4.54001L7.83997 0L10.84 0L10.84 42.14L7.72998 42.14L7.77002 3.07001Z" transform="translate(1850.98 219.73)" id="Shape" fill="#FFFFFF" fill-rule="evenodd" stroke="none" />
        <path d="M3.8999 40.76C5.71985 40.8554 7.5448 40.7447 9.33984 40.4301C13.2515 39.9105 16.8555 38.0306 19.5199 35.12C22.2999 32.12 24.4399 27.93 25.2799 22.03L25.09 22.09C22.2593 25.8572 17.8019 28.0487 13.09 27.99C4.33997 27.99 0 21.38 0 15.1C0 7.45001 5.69995 0 14.84 0C22.1599 0 28.51 5.57001 28.51 17.88C28.51 28.06 24.51 34.6 20.51 38.17C17.6515 40.637 14.2087 42.3308 10.51 43.09C8.375 43.5007 6.20398 43.695 4.03003 43.67L3.8999 40.76ZM3.11987 14.97C3.03479 17.7392 4.10229 20.4196 6.06799 22.372C8.03369 24.3244 10.7212 25.3738 13.4897 25.27C17.9509 25.392 22.1703 23.2466 24.7 19.57C25.0646 18.9837 25.2648 18.3102 25.2798 17.62C25.2798 9.38995 21.9098 2.61996 14.0698 2.61996C7.2699 2.65002 3.12 8.55002 3.12 14.95L3.11987 14.97Z" transform="translate(1880.3201 218.92)" id="Shape" fill="#FFFFFF" fill-rule="evenodd" stroke="none" />
        <path d="M0 42.91L0 40.91L4.14001 37.08C18.14 24.08 22.74 19.26 22.74 12.65C22.74 8.04999 20.74 2.79999 12.63 2.79999C8.95703 2.91635 5.44482 4.33401 2.72009 6.79999L1.41992 4.65997C4.65234 1.67981 8.88318 0.0174255 13.2798 0C23.0699 -3.05176e-05 25.9799 7.31998 25.9799 11.79C25.9799 20.21 19.7599 26.24 7.50989 37.45L4.50989 40.11L4.50989 40.24L27.1899 40.24L27.1899 42.9L0 42.91Z" transform="translate(1753.9 154.11003)" id="Shape" fill="#FFFFFF" fill-rule="evenodd" stroke="none" />
        <path d="M29 21.06C29 36.06 23.3 43.67 14 43.67C6.87 43.67 0.26001 37.13 0 22.09C0 6.79999 7.44995 0 15 0C23.24 0 29 6.79999 29 21.06L29 21.06ZM3.28003 22.16C3.28003 34.41 7.94006 41.08 14.36 41.08C22.13 41.08 25.7 33.31 25.7 21.51C25.7 10.23 22.3899 2.59 14.49 2.59C8.40002 2.59 3.28003 9.07001 3.28003 22.16L3.28003 22.16Z" transform="translate(1787.78 154.12001)" id="Shape" fill="#FFFFFF" fill-rule="evenodd" stroke="none" />
        <path d="M0 42.91L0 40.91L4.14001 37.08C18.14 24.08 22.74 19.26 22.74 12.65C22.74 8.05002 20.74 2.80002 12.63 2.80002C8.95691 2.91638 5.4447 4.33405 2.71997 6.80002L1.41992 4.66C4.65247 1.67981 8.8833 0.0174255 13.2799 0C23.0699 0 25.9799 7.32001 25.9799 11.79C25.9799 20.22 19.7599 26.24 7.50989 37.45L4.50989 40.11L4.50989 40.24L27.1899 40.24L27.1899 42.9L0 42.91Z" transform="translate(1651.3301 70.41002)" id="Shape" fill="#FFFFFF" fill-rule="evenodd" stroke="none" />
        <path d="M7.78003 3.07001L7.65002 3.07001L0.780029 7.07001L0 4.54001L7.83997 0L10.89 0L10.89 42.13L7.78003 42.13L7.78003 3.07001Z" transform="translate(1690.92 71.229996)" id="Shape" fill="#FFFFFF" fill-rule="evenodd" stroke="none" />
        <path d="M0 42.91L0 40.91L4.14001 37.08C18.14 24.08 22.74 19.26 22.74 12.65C22.74 8.04999 20.74 2.79999 12.63 2.79999C8.95703 2.91637 5.44482 4.33401 2.72009 6.79999L1.46997 4.66C4.70239 1.67982 8.93323 0.0174255 13.3298 0C23.12 0 26.0299 7.32001 26.0299 11.79C26.0299 20.21 19.8099 26.24 7.55994 37.45L4.55994 40.11L4.55994 40.24L27.24 40.24L27.24 42.9L0 42.91Z" transform="translate(1524.43 0.21000671)" id="Shape" fill="#FFFFFF" fill-rule="evenodd" stroke="none" />
        <path d="M0 42.91L0 40.91L4.15002 37.08C18.15 24.08 22.75 19.26 22.75 12.65C22.75 8.04999 20.75 2.79999 12.64 2.79999C8.9635 2.91402 5.44739 4.33183 2.72009 6.79999L1.43005 4.66C4.65955 1.68132 8.88684 0.0189819 13.2802 0C23.0701 0 25.99 7.32001 25.99 11.79C25.99 20.21 19.76 26.24 7.52002 37.45L4.52002 40.11L4.52002 40.24L27.2001 40.24L27.2001 42.9L0 42.91Z" transform="translate(1558.77 0.21000671)" id="Shape" fill="#FFFFFF" fill-rule="evenodd" stroke="none" />
        <path d="M0 42.91L0 40.91L4.14001 37.08C18.14 24.08 22.74 19.26 22.74 12.65C22.74 8.05 20.74 2.8 12.63 2.8C8.95691 2.91638 5.4447 4.33403 2.71997 6.8L1.41992 4.66C4.65308 1.68066 8.88354 0.0184174 13.28 0C23.0699 0 25.9799 7.32001 25.9799 11.79C25.9799 20.21 19.7599 26.24 7.50989 37.45L4.50989 40.11L4.50989 40.24L27.1899 40.24L27.1899 42.9L0 42.91Z" transform="translate(1397.53 0.20999146)" id="Shape" fill="#FFFFFF" fill-rule="evenodd" stroke="none" />
        <path d="M1.34021 38.04C4.38208 39.9132 7.87805 40.9195 11.4502 40.95C21.4502 40.95 23.1202 34.15 23.0502 31.23C22.9202 23.91 15.9202 21.38 9.51013 21.38L6.33008 21.38L6.33008 18.72L9.70007 18.72C14.9501 18.72 21.17 16.13 21.17 10.3C21.17 6.74001 19.03 2.72 12.29 2.72C8.9873 2.78011 5.78955 3.89041 3.16016 5.89001L1.85999 3.56C4.99414 1.29297 8.7522 0.0496063 12.62 0C21.5 0 24.48 5.38 24.48 9.91C24.48 14.25 21.5599 18.01 16.1799 19.91L16.1799 20.04C22.0099 21.14 26.36 25.42 26.36 31.12C26.36 37.12 21.75 43.69 11 43.69C7.10889 43.7456 3.28601 42.6648 0 40.58L1.34021 38.04Z" transform="translate(1431.8898 0.22000122)" id="Shape" fill="#FFFFFF" fill-rule="evenodd" stroke="none" />
        <path d="M0 42.91L0 40.91L4.14001 37.08C18.14 24.08 22.74 19.26 22.74 12.65C22.74 8.05 20.74 2.8 12.63 2.8C8.95691 2.91638 5.4447 4.33403 2.71997 6.8L1.41992 4.66C4.65308 1.68066 8.88354 0.0184174 13.28 0C23.0699 0 25.9799 7.32001 25.9799 11.79C25.9799 20.22 19.7599 26.24 7.50989 37.45L4.50989 40.11L4.50989 40.24L27.1899 40.24L27.1899 42.9L0 42.91Z" transform="translate(1238.23 21.809998)" id="Shape" fill="#FFFFFF" fill-rule="evenodd" stroke="none" />
        <path d="M22.23 42.13L22.23 29.81L0 29.81L0 27.68L22.8199 0L25.2799 0L25.2799 27.16L32.2799 27.16L32.2799 29.81L25.2799 29.81L25.2799 42.13L22.23 42.13ZM22.23 27.13L22.23 9.08C22.23 7.52 22.23 5.84 22.36 4.35001L22.17 4.28C21.2589 5.72548 20.257 7.1116 19.17 8.43001L3.88 27.03L3.88 27.16L22.23 27.13Z" transform="translate(1269.78 22.590012)" id="Shape" fill="#FFFFFF" fill-rule="evenodd" stroke="none" />
      </g>
    </g>
  </g>
</svg>