<?xml version="1.0" encoding="utf-8"?>
<!-- Generator: Adobe Illustrator 25.4.1, SVG Export Plug-In . SVG Version: 6.00 Build 0)  -->
<svg version="1.1" id="Layer_1" xmlns="http://www.w3.org/2000/svg" xmlns:xlink="http://www.w3.org/1999/xlink" x="0px" y="0px"
	 viewBox="0 0 782.4 1098.5" style="enable-background:new 0 0 782.4 1098.5;" xml:space="preserve">
<style type="text/css">
	.st0{fill:none;}
	.st1{fill:none;stroke:#849099;stroke-width:5;stroke-miterlimit:10;}
	.st2{fill-rule:evenodd;clip-rule:evenodd;fill:#FFFFFF;}
</style>
<g id="_x32_sleeve_x5F_life_00000018943141870033162000000007647101247550529679_" transform="translate(2.5 2.5)">
	<g>
		<g>
			<rect x="-667.9" y="48.1" class="st0" width="1997" height="739"/>
			<g>
				<g id="_x32_sleeve_x5F_life" transform="translate(1.5 1.5)">
					<path id="Background_00000173882592321222343150000004246985885810807994_" class="st0" d="M-667.9,48.1h1993.5v735.3H-667.9
						V48.1L-667.9,48.1z"/>
					<g id="Mask-group">
						<path id="path_1" class="st0" d="M-667.9,48.1h1993.5v735.3H-667.9V48.1L-667.9,48.1z"/>
						<g>
							<g>
								<rect x="-667.9" y="48.1" class="st0" width="1993.5" height="735.3"/>
								<g>
									<g id="Group_00000000189926838629087470000006083160569609914556_" transform="translate(0 0.9992676)">
										<g>
											<path id="line7" class="st1" d="M460.8,1070.1c0,0-253.3-79.9-342.6-222.9c-12.7-20.3-45.4-26.7-52.7-31.6
												c-22.5-15.1-32.8-38.2-42-58.9c-8.7-19.5-12.7-36.3-14.5-45.5c-7.9-39.7-2.9-71.7-1-82.1c1.8-9.9,7.1-32.9,20.3-58.7
												c11.9-23.3,19.2-36.7,33.4-42.8c17.1-7.3,27.4,3.5,45.1-8c7.5-4.9,16.6-13.9,15.2-21.1c-1.1-5.6-8-6.9-10.4-16.5
												c-0.5-1.7-1.2-4.8-0.6-8.3c1.4-7.2,7.3-8.7,12.3-14.6c9-10.5,1.7-19.3,10.6-33.2c6-9.4,13.4-11.5,12.8-17.7
												c-0.3-3.7-3.1-5.7-5.7-8.4c-7.4-7.6-9.8-17-13.2-30c-4.7-18.5-1.4-34.4,2.4-53.2c1.8-8.9,4.2-20.3,10.3-34
												c2.8-6.3,16-35.8,42.6-51.8c45.1-27.1,97.7,3.4,114.9,13.3c5.5,3.2,17.3,10.4,30.4,22.7c29,27.1,43.2,57.6,48.8,73.1
												c5.9,16.5,15.5,36,17.5,63.1c3.9,51.4-18.8,89.1-15.4,90.8c2.6,1.3,15.9-20.7,23.8-46c8-25.3,8-45.5,7.8-60.2
												c-0.1-15.5-0.4-42.8-11.9-48.4c-3.4-1.7-5.6-0.3-10.3-3.1c-5.2-3.1-12.3-10.4-12.6-18.6c-0.6-14.4,19.4-18.7,20-36.3
												c0-0.9,0.2-9.8-4.7-14c-3.8-3.2-8.4-1.9-16.5-0.3c-20.1,4-30.2,5.9-35.5,0.9c-3.8-3.6-4.2-9.4-4.6-14.9
												c-1.7-23.7,15.5-34.1,12-47.6c-2.7-10.5-16.6-17.8-27.9-17c-23,1.5-34.9,36-43,32.2c-7.9-3.8,4.5-35.9-10.1-52.7
												c-6.9-7.9-19.1-11.7-28.6-7.8c-18.3,7.5-1.6,43-20.3,55c-17.8,11.5-18-39-35-29.2c-12.2,7-51.3,42.3-52.3,100.3"/>
										</g>
										<g>
											<path id="line6" class="st1" d="M108.2,777.2c0.8,2.3,7.2,22-0.6,31.1c-9,10.5-30.5-0.2-40.1-6.8
												c-19.3-13.2-27.1-34.4-33.9-53.1c-4.1-11.3-14.8-43.6-11.9-86.6c0.9-13.7,2.5-35.1,13-59.5C42,585.4,54,557.4,76,551
												c16.5-4.8,24.2,6.8,51.3,15c17.1,5.2,56.2,0.1,86.1-13.7c36.9-17.1,38.6-104.2,26-135.1c-12.6-30.9-16.1-0.3-16.1-0.3
												s-3.4,21.5-15.6,27.8c-12.2,6.3-22.2,0-22.2,0s-19.2,3-2.3,9.8c16.9,6.8,19.1,30.7,10.5,53.3
												c-8.6,22.6-25.6,24.3-48.7,21.3c-23.1-3.1-8-19.6-4-30.6c4-11.1-0.4-7.5-8.9-13.5c-26.2-18.4,3.3-10.4,3.5-25.1
												c0.1-9-4.6-20.9,6.6-34.9c11.1-14,7.1,2.8,32.5,7c5.9,1,11.2-0.5,13.9-1.5c13.7-5.3,12.2-26.7,23.5-42
												c13.6-18.5,41.9-22.7,63.6-14.8c29.4,10.6,40.3,41,42.3,46.8c8.2,24.2-0.3,57.7-3.1,69.4
												c-12.4,51.8-55.6,94.9-103.7,107.5c-0.5,0.1,3.2-0.9,3.1-1.5c-0.3-1.9-24.7,4.6-54.5,1.8c-13.5-1.3-26.4-2.5-41.5-10
												c-17.7-8.8-20.5-18-30-17c-16.1,1.7-26.2,23-35.2,41.9c-7,14.8-25,53.9-16.8,101.7c2.4,14,4.8,26.6,14.2,37.4
												c14.6,16.6,36.2,17.6,47.6,16.4c17-1.8,19.7-22.8,25.2,19s45.4,89.4,45.4,89.4c63,82.1,249.2,162.3,296.5,179.3"/>
										</g>
										<g id="Group_00000134226524772218577470000006897781555532336316_" transform="translate(125.504395 226.67896)">
											<path id="line5" class="st1" d="M0.3,500.8c-4.9,2.2-32.7,21.9-51.4,4.4c-26.3-24.4-24.2-92.9,5.3-109.8
												c3.2-1.8,14.6-8.3,22-2.7c7.5,5.6,6.3,20.1,5.4,21.1c-1.3,1.4-28.8,28.2-10.3,57c18.5,28.9,16.8-50,41-70.3
												c21.9-18.3,10.6,27.4,12.6,55.3c2,27.9,10-16.5,19.3-39.5c8.2-20.5,20.7-15.3,16.6,17c-3.7,28.6,19.1-2.4,19.1-2.4
												s0.1-28.5,3.9-49.4c3.8-20.8,14.7,5.1,20.1,31c5.4,25.8,16.8-6.4,15.7-36.4s19.6-10.9,19.6-10.9s0,0,7.1,13.1
												c7.1,13.1,20.1-3.3,16.1-34.5c-3.9-31.2,10.2-26.2,25.6-11.2c15.4,15,14-27,7.7-45.1c-6.3-18,22.8-3.3,22.8-3.3
												c27.2-5.2,9.2-56.2-5.9-64.8c-15.1-8.6-7.5-11.5,22.4-23.4c29.9-11.9-6-25.4-26.4-23.9s2.5-25.1,12.9-29.6
												c10.4-4.4,11-30.8,1.4-32.5c-9.6-1.7-8.7,20.5-29,29.5c-20.3,9-1.6-15.2,1.6-32.7c3.7-20.3-4.4-46-13.8-44.1
												c-9.4,1.8-12,49.9-23.7,58.6c-11.7,8.7-7.7-15.8-7.7-15.8s3.1-26.2-8.9-58.6c-8.7-23.4-11.2,35.9-14,55
												c-7.5,52.3-16.3-27.7-17.2-57.4C109.4,17.5,89,74.8,99.5,94.8c15,28.6-7.7,16.3-17,1.8C77,87.9,67.8,77.6,57.4,79.8
												c-20.5,4.4-14.2,30.3-14.2,30.3s39.5-19.9,40.1,15.7c0.6,35.6-24,40.7-24,40.7s-47.8,7.8-48.1-48.9
												C10.8,61,54,16.3,79.3,13.9c23.2-2.2,83.5-10.3,150.2,86.3s2.4,188.2-25,240.7C166.7,413.5,68.9,438,29.7,507.2
												C-54.7,656.3,307,804.5,343.6,813"/>
										</g>
										<g>
											<path id="line4" class="st1" d="M113.6,501c-2.5,2.3-14.8,13.4-32,11.3c-2.5-0.3-19.3-2.6-28.7-18.4
												c-2.2-3.7-6.3-10.6-5.2-19.2c1.7-13.1,14.7-23.7,22.9-21.1c8.5,2.7,6.6,17.7,14.7,20.9c12.6,4.9,36.6-24.6,32.1-34.7
												c-3.8-8.6-27.6-0.6-30.3-9.4c-1.4-4.4,3.4-10.1,4.6-11.5c10.2-12,24.3-5,28.6-12.4c5.5-9.5-7.8-38-22.8-39.3
												c-14.9-1.2-20.3,25.2-33.3,23.9c-20.1-2-32-56.2-20.1-65.6c3.1-2.4,2.7-10.9,12.5-6.5c26.4,11.9,32,26.4,44.2,24.3
												c11.1-1.9,17.7-16,19.6-19.9c3.2-6.7,7.8-13.2,4.5-35.8c-6.3-43.2,8.9-68.8,54.9-119.2s137-18.5,184.5,33.7
												s57.5,113.9,58.8,190.2c1.3,76.3-99,221.8-119.5,240.5s-97,73.5-132.8,123.4c-69.3,96.5,229.9,257.4,304.8,269.9"/>
										</g>
										<g id="Group_00000075866265679758455820000008888214103267662267_" transform="translate(88.02878 190.81372)">
											<path id="line3" class="st1" d="M393.4,823.5C287.3,798.8,101.1,669,99.6,592c-0.4-21.8,22.1-48.4,28.3-53.8
												c12-10.3,18.5-9.6,20.3-9.3c7.7,1.2,10.9,8.1,14.3,6.8c3.3-1.2,5.6-9.6,2.8-38c4.8-9.3,7.8-11,9.7-10.6
												c6.8,1.5,3.7,31.5,12.9,34.6c3.8,1.3,9-2.3,11.5-6.7c7.7-13.2-9.8-30.8-3-46.4c4.2-9.5,16-15.1,20.7-11.6
												c8.7,6.5-7.7,43.3-0.4,47.9c3.6,2.3,12.5-3.8,16.7-12.5c7.2-14.8-4.3-26.3,1.4-47.6c2.6-9.7,8.6-20.5,13-19.8
												c8.2,1.3,4.9,41,15.6,43.9c5.2,1.4,12.9-6.3,16.2-15c7.2-19.5-11.5-34.7-5.1-59.7c2.2-8.7,7.1-17.1,9.7-16.5
												c2.3,0.6,1.7,8.4,3.4,20.3c1.9,13.1,7.3,34.6,13.4,35.1c4,0.3,9.7-9.4,10.8-19.7c2.8-25.4-23.3-38-19-60.6
												c1.4-7.4,6.1-15.8,11.2-16.1c12.9-0.8,22.8,49.8,30.6,48.1c3.2-0.7,4.1-10.2,4.2-11.9c2.5-27.8-26.3-40.9-22.5-63.8
												c1.2-7.4,5.7-15.2,10.1-15.4c10.2-0.5,15.8,39.6,25.9,39c3.8-0.2,7.7-6.2,8.4-12.1c2-16.7-26.4-24-29.4-49
												c-1-8,0.7-17.6,4.5-18.9c7.7-2.7,28.8,42.9,40.1,40.9c6.8-1.2,12.5-20.9,10.1-32.8c-3.6-17.5-34-22.5-42.7-46.6
												c-2.3-6.2-4.2-15.4-1-18.3c4.2-3.9,17.1,3.2,21.2,5.4c2,1.1,27.9,28.7,29.5,26.5c11.7-16.5,3.3-28.9,1.8-32.8
												c-4.9-12.8-20.5-15.3-28.3-23.1c-12.2-12.2-20.6-13.2-24.1-24.4c-1.3-4.1-2.5-11.3,0.3-13.9c2.9-2.7,11.2-4,23.5,8.4
												c23.6,23.8,30.2,18.1,31,17.3c3.8-3.8,2.2-36.1-11.7-37.9c-3.6-0.4-4.5-6-12.7-10c-22.4-10.8-37.3-8.6-38.7-14.4
												c-1.4-6,6.3-15,14.3-18.9c14.3-7,27.3,3.4,30.3-1.6c2.7-4.4-3.9-18.8-15.1-26.1c-21.1-13.7-47.9,4.4-52.1-4.7
												c-2-4.2,2.2-11.4,4.8-14.5c1.8-2.2,4.9-4.9,14.4-7.3c15-3.9,21.5-0.8,23.3-4.5c2.2-4.5-3.8-17-13.4-22
												c-21.2-11-51.1,18.5-55.2,12.1c-1.2-1.9,0.8-5.9,2.3-8.8c3.1-5.9,7.8-9.4,18.6-15c15.1-7.8,20.6-8.5,21.2-12.7
												c0.5-3.9-3.4-8.1-6.8-9.9c-6.3-3.3-13.4,0-16.6,1.5c-23,10.6-46.1,21.3-55.7,12.9c-3.5-3.1-4.7-8.2-4.4-11.7
												c0.7-9.2,11.8-16.9,21.4-18.1c6.2-0.8,7.9,1.7,15.2,0.2c1.7-0.4,12.1-2.5,13-7.7c0.9-5.3-8.1-13.1-16-16
												c-28.7-10.6-61.9,37.8-68.7,30.9c-3.5-3.5,1.2-20.6,11.3-30.3c12.1-11.5,28.1-8.9,29.1-16.3c0.5-3.4-2.4-6.9-5-8.6
												c-5.8-3.7-14.1-0.6-29.2,10.1c-28.8,20.4-41.1,39.2-45.9,35.8c-2.8-2-1.9-10.9,0.3-17c6.3-17.3,24.1-16.9,27.5-32.5
												c0.2-1,1.8-8.7-1.5-11.9c-6.6-6.4-27.5,10.3-28.8,11.4c-27.6,22.4-33.7,54.4-40.7,52.2c-3.7-1.2-5.9-11.1-4.7-18.5
												c0.3-1.7,0.8-3.6,2.2-6.6c6.5-13.9,15.2-15.2,17.2-24.1c1.3-5.7-0.4-13.4-3.8-14.9c-6.5-2.9-20.8,16-29.2,34.2
												c-11.8,26-12,47.5-16.1,47.4c-3-0.1-6.4-12.3-6.3-24.2c0.2-23.8,13.9-36.5,9.7-42.2c-3.4-4.6-16-1.7-23.8,6.2
												c-9.5,9.5-13.2,37.7-13.6,51.8c-1,32.4,19.3,24.4,6.2,40.1C59.1,3,42.8-4.8,38.2-16.8C31.5-34.9,52.3-57.1,45-66.2
												c-2.4-3-6.8-3.4-9.7-2.3c-9.9,3.7-21.6,35.4-21.4,49.8c0.5,33,26.9,39.1,20.4,52.7C31,41,28,47.8,21.5,47.5
												c-23.1-1.2-31.6-47.4-42.5-45c-9.1,2.1-16.5,37.7-4.2,51.7C-14.8,65.9,1.8,53.9,15,67.4c8.3,8.4,11.9,23.5,7.9,34.4
												c-2.5,6.7-7.9,11.5-14.5,14.3"/>
										</g>
										<g id="Group_00000070107786505726322510000003224126692874718111_" transform="translate(60.180176 156.18726)">
											<path id="line2" class="st1" d="M26.2,152.2c-8.4,0.9-17.3-0.8-24.2-5.2c-13.8-8.8-17.7-27.1-18.8-32.6
												c-12-55.9,37.6-132.9,94.3-172c47.3-32.5,95.1-35.7,116-35.6c4.9,0,24,0.3,45.4,5.6c93,23,146.3,116.7,155.2,132.9
												c12.6,22.9,47.9,89,41,175.1c-2.9,36.8-3.9,66.6-21.4,112.1c-27.5,71.8-45.7,109.6-108.4,176.2
												c-64.1,68.1-143.6,73-150.6,118.4c-6.1,39.6,108.7,166,268.3,214.5"/>
										</g>
										<g id="Group_00000110458277761671899500000005884827711270769848_" transform="translate(57.83008 123.53888)">
											<path id="line1" class="st1" d="M521.4,699.2c105.6-169,150.7-305.5,169.9-390.3c21-92.5,16.8-144.4,16.6-146.5
												c0,0-7.5-27.9-15,1.7c0,0.5,4.1,51.9-16.4,141.8c-34.4,150.6-110,291.7-167.4,383.5c0,0-31.4,9.4-5-34.6
												c93.1-148.9,132.8-269.2,149.7-343.9c18.5-81.6,14.8-127.5,14.6-129.4c0,0-8.1-33.3-15,1.7c0,0.4,3.6,45.6-14.5,124.6
												c-30.2,132.4-96.7,256.4-147.2,337.1c0,0-30.4,7.9-5-34.6c80.5-128.8,114.9-232.9,129.5-297.5
												c16-70.7,12.8-110.5,12.6-112.2c0,0-8.1-26-15,1.7c0,0.4,3.1,39.3-12.5,107.5c-26.1,114.2-83.5,221.1-127,290.8
												c0,0-24.3-2.4-5-34.6c68-108.7,97-196.6,109.3-251.2c13.6-59.8,10.8-93.6,10.7-95c0,0-8.6-21.3-15,1.7
												c0,0.3,2.6,33-10.6,90.3c-12.1,53-40.5,138.4-106.8,244.4c0,0-25.4-0.3-5-34.6c106.4-170.2,98.3-278.2,97.9-282.7
												c0,0-5.3-25.9-15,1.6c0,0.3,2.1,26.7-8.6,73.1c-9.9,42.9-32.9,112.1-86.6,198c0,0-27.8,4.8-5-34.6
												c82.3-131.7,76-215.6,75.7-219.1c0,0-6-25.1-15,1.6c0.1,0.8,5.6,81.7-73,207.6c-12.2,22-28.5,46.9-50,71.9
												c-13.5,15.7-39.3,41.6-69,62.1c-13.1,9-41.1,19.5-66.1,34.7c-26.2,15.9-44,15.1-46.2,26.7
												c-19,68.7,143.6,165.6,238.4,197"/>
										</g>
										<g id="numbers" transform="translate(0 22.000732)">
											<path id="Shape" class="st2" d="M627.7,504.3L627.7,504.3l-7,4l-0.8-2.6l7.8-4.5h3.1v42.1h-3.1V504.3L627.7,504.3z"/>
											<path id="Shape_00000145052908091468381840000015134195977565344393_" class="st2" d="M387.2,121.1v-2l4.1-3.9
												c14-13,18.6-17.8,18.6-24.4c0-4.6-2-9.8-10.1-9.8c-3.7,0.1-7.2,1.5-9.9,4l-1.3-2.2c3.2-2.9,7.5-4.6,11.9-4.6
												c9.8,0,12.7,7.3,12.7,11.8c0,8.4-6.2,14.4-18.5,25.7l-3,2.7v0.1h22.7v2.7L387.2,121.1L387.2,121.1z"/>
											<path id="Shape_00000181046103771480488860000002634654408034528944_" class="st2" d="M253.2,100.9
												c3,1.9,6.5,2.9,10.1,2.9c10,0,11.7-6.8,11.6-9.7c-0.1-7.3-7.1-9.9-13.5-9.9h-3.2v-2.7h3.4c5.2,0,11.5-2.6,11.5-8.4
												c0-3.6-2.1-7.6-8.9-7.6c-3.3,0.1-6.5,1.2-9.1,3.2l-1.3-2.3c3.1-2.3,6.9-3.5,10.8-3.6c8.9,0,11.9,5.4,11.9,9.9
												c0,4.3-2.9,8.1-8.3,10v0.1c5.8,1.1,10.2,5.4,10.2,11.1c0,6-4.6,12.6-15.3,12.6c-3.9,0.1-7.7-1-11-3.1L253.2,100.9
												L253.2,100.9z"/>
											<path id="Shape_00000173841780045150370120000015133689116579749045_" class="st2" d="M64.7,413.8v-12.3H42.5v-2.2
												l22.8-27.7h2.5v27.2h7v2.7h-7v12.3H64.7L64.7,413.8z M64.7,398.8v-18c0-1.6,0-3.2,0.1-4.7l-0.2-0.1
												c-0.9,1.4-1.9,2.8-3,4.2l-15.3,18.6v0.1L64.7,398.8L64.7,398.8z"/>
											<path id="Shape_00000029759907043582280220000008380048287751199890_" class="st2" d="M264.4,271.9h-17.3l-2,13.5
												c1.5-0.2,3-0.3,4.5-0.3c2.7-0.1,5.3,0.4,7.8,1.4c4.6,1.9,7.7,6.4,7.6,11.4c0,8.4-6.8,14.1-15,14.1c-3.8,0.1-7.5-1-10.8-3
												l1.3-2.5c2.9,1.8,6.3,2.8,9.7,2.8c6.7,0,11.7-4.8,11.6-10.8c-0.1-5.7-3.8-10.7-13-10.7c-2.3,0-4.5,0.2-6.8,0.5l2.6-19.2
												h19.8V271.9L264.4,271.9z"/>
											<path id="Shape_00000059268203788401270290000013216360589108116158_" class="st2" d="M257.6,460.4
												c-1.8,0-3.5,0.1-5.2,0.5c-8.9,1.7-15.5,9.1-16.2,18.1h0.1c2.7-4,7.2-6.4,12.1-6.3c8.6,0,13.8,6,13.8,13.7
												c0,7-4.9,14.8-14.4,14.8c-7.8,0-15-5.6-15-17.9c0-8.8,3.4-15.4,7.7-19.3c3.5-3.1,7.7-5.2,12.3-6c1.6-0.3,3.2-0.5,4.8-0.5
												L257.6,460.4L257.6,460.4z M258.7,486.4c0-7.1-4.8-11.1-11.3-11.1c-4.4,0.1-8.4,2.4-10.7,6.2c-0.5,0.8-0.8,1.8-0.8,2.7
												c0,7.8,4,14.3,11.9,14.3C254.6,498.5,258.7,493,258.7,486.4L258.7,486.4L258.7,486.4z"/>
											<path id="Shape_00000167364969401763372480000003642766885556360377_" class="st2" d="M305,163.4v2.5l-20.7,39.6h-3.1
												l20.5-39.3v-0.1h-23.3v-2.6H305V163.4z"/>
										</g>
									</g>
								</g>
							</g>
						</g>
					</g>
				</g>
			</g>
		</g>
	</g>
</g>
</svg>
