<?xml version="1.0" encoding="utf-8"?>
<svg width="689px" height="1116px" viewBox="0 0 689 1116" version="1.1" xmlns:xlink="http://www.w3.org/1999/xlink" xmlns="http://www.w3.org/2000/svg">
  <defs>
    <path d="M0 0L683.68 0L683.68 1110.35L0 1110.35L0 0Z" id="path_1" />
    <clipPath id="mask_1">
      <use xlink:href="#path_1" />
    </clipPath>
  </defs>
  <g id="1Sleeve" transform="translate(2.5 2.5)">
    <path d="M0 0L683.68 0L683.68 1110.35L0 1110.35L0 0Z" id="Background" fill="none" fill-rule="evenodd" stroke="none" />
    <g clip-path="url(#mask_1)">
      <g id="Group" transform="translate(2.5500488 2.540039)" opacity="0.47">
        <path d="M0 1034.46C138.15 1120.08 157.87 930.35 286.62 951.56C348 961.68 358.78 863.73 341.72 807.36C332.46 776.75 331.78 774.88 310.44 750.2C286.03 721.97 262.15 682.61 262.67 643.35C263.13 607.85 272.98 598.07 267.46 562.93C260.83 520.75 258.55 502.41 233.09 466.21C221.09 449.21 202.21 430.46 182.95 420.13C149.11 401.98 99.42 374.68 90.02 336.98C81.39 302.36 104.64 262.07 136.49 242.59C170.84 221.59 218.87 203.91 243.85 172.68C268.03 142.45 253.97 90.03 207.85 76.28C175.92 66.76 117.6 70.59 87.36 62.91C78.58 60.69 29.87 47.12 27.59 30.71L25.83 0" transform="translate(264.02002 0.38989258)" id="line12" fill="none" fill-rule="evenodd" stroke="#849099" stroke-width="5" stroke-linecap="round" />
        <path d="M0.013031 0C0.013031 0 0.773041 52 0.013031 81.77C-1.16696 130.37 78.223 172.05 63.823 213.05C40.823 278.48 23.763 296.55 38.233 364.12C63.673 482.98 21.363 528.8 134.783 587.96C184.653 613.96 254.133 695.43 267.143 755.96C299.563 906.82 376.313 922.18 413.443 922.18" transform="translate(265.14697 0.38989258)" id="line11" fill="none" fill-rule="evenodd" stroke="#849099" stroke-width="5" stroke-linecap="round" />
        <path d="M103.27 0L104.96 33.68C106.22 42.17 112.62 59.21 125.34 62.53C323 114.17 251.34 183.29 193.43 238.89C74.03 353.46 200.89 377.82 252.37 473.71C274.37 514.71 235.7 535.11 298.37 627.18C354.54 709.76 316.25 839.47 242.67 830.24C106.17 813.1 174.67 999.37 0 926.59" transform="translate(182.6499 0.38989258)" id="line10" fill="none" fill-rule="evenodd" stroke="#849099" stroke-width="5" stroke-linecap="round" />
        <path d="M196.05 0C196.05 0 197.22 28.53 198.57 40.75C200.67 59.83 220.01 84.87 231.57 99.86C243.45 115.25 257.39 129.5 267.33 146.09C293.39 189.63 269.46 231.86 243.91 272.09C238.04 281.32 230.42 298.34 228.46 308.88C226.58 318.95 225.06 342.88 228.46 352.61C236.16 374.69 248.93 380.61 269.29 404.74C282.67 420.59 292.62 429.11 290.9 461.09C289.35 489.88 276.9 499.91 276.9 534.28C276.9 558.15 294.62 592.78 299.68 616.22C308.75 658.3 309.45 707.38 254.9 703.76C118.81 694.76 113.71 878.5 0 799.99" transform="translate(85.66992 0.38989258)" id="line9" fill="none" fill-rule="evenodd" stroke="#849099" stroke-width="5" stroke-linecap="round" />
        <path d="M274.48 0L277.76 45C284.5 97.67 335.86 198.82 296.19 228.78C263.14 253.78 275.19 364.12 283.29 408.14C301.78 508.76 300.51 561.68 237.71 560.04C113.81 556.81 138.83 775.7 0 670.11" transform="translate(3.0500488 0.38989258)" id="line8" fill="none" fill-rule="evenodd" stroke="#849099" stroke-width="5" stroke-linecap="round" />
        <path d="M273.39 0L274.17 37C273.52 52.62 295.88 159.31 262.86 215.19C246.35 243.13 276.72 276.55 263.53 310.8C249 348.54 224.38 344.52 228.53 377.99C237.43 450.56 162.95 373.28 130.26 473.08C111.65 529.9 106.6 564.91 0 534.08" transform="translate(0 0.38989258)" id="line7" fill="none" fill-rule="evenodd" stroke="#849099" stroke-width="5" stroke-linecap="round" />
        <path d="M251.09 0L252.38 63C261.38 135.24 173.51 341.72 123.74 295.85C53.27 230.91 93.43 380.85 0 319.17" transform="translate(18.27002 0.38989258)" id="line6" fill="none" fill-rule="evenodd" stroke="#849099" stroke-width="5" stroke-linecap="round" />
        <path d="M59.9459 0C62.9459 78.81 44.5759 132 39.5159 156.3C29.5159 204.12 -35.0841 229.66 25.8359 309.04C73.6359 371.31 60.8359 403.65 47.4559 500.59C36.4559 580.48 166.556 655.29 224.136 705.24C297.896 769.24 335.136 993.96 441.536 986.75" transform="translate(201.15405 1.3898926)" id="line5" fill="none" fill-rule="evenodd" stroke="#849099" stroke-width="5" stroke-linecap="round" />
        <path d="M94.6773 0C94.5573 4.34 92.5173 29.92 92.4373 32.69C90.7273 92.01 24.5374 176.69 5.83734 227.48C-24.9927 311.26 78.5173 336.61 33.6573 519.31C11.0873 611.31 169.807 712.79 227.547 757.07C303.007 814.93 314.547 1027.41 415.767 1023.46" transform="translate(162.24268 0.38989258)" id="line4" fill="none" fill-rule="evenodd" stroke="#849099" stroke-width="5" stroke-linecap="round" />
        <path d="M133.86 0C133.86 12.56 131.33 26.75 130.69 30.84C120.26 97.55 15.9899 160.26 3.02992 223.84C-16.6901 320.66 68.0299 374.94 22.9299 548.92C-4.66006 655.33 175.88 745.91 233.74 784.61C310.96 836.24 298.16 1069.31 394.25 1068.61" transform="translate(119.08008 0.38989258)" id="line3" fill="none" fill-rule="evenodd" stroke="#849099" stroke-width="5" stroke-linecap="round" />
        <path d="M171.341 0C171.341 5.24 169.741 24.91 167.341 32.16C164.941 39.41 150.951 58.96 140.591 71.73C125.981 89.73 104.461 104.07 86.1808 119.13C69.0808 133.2 51.8208 147.44 38.6708 164.73C14.0908 197 14.2108 230.85 9.50083 268.12C5.14083 302.7 -2.67918 337.59 0.92083 372.23C8.27082 443.04 40.3708 416.23 14.2608 577.62C-7.51919 712.39 180.631 789.28 236.751 825C344.021 893.26 267.461 1100.56 357.631 1102.49" transform="translate(77.38916 0)" id="line2" fill="none" fill-rule="evenodd" stroke="#849099" stroke-width="5" stroke-linecap="round" />
        <path d="M206.6 0C206.6 0 204.6 22.57 201.52 28.67C179.71 71.44 90.52 118.73 69.43 145.42C18.75 209.42 -25.81 331.89 17.53 438.11C33.15 476.39 4.97995 552.61 3.22995 582.05C-7.53005 763.68 113.33 835.43 199.6 860.54C285.35 885.54 210.7 1099.12 296.46 1104.91" transform="translate(38.149902 0.38989258)" id="line1" fill="none" fill-rule="evenodd" stroke="#849099" stroke-width="5" stroke-linecap="round" />
      </g>
    </g>
  </g>
</svg>