<?xml version="1.0" encoding="utf-8"?>
<!-- Generator: Adobe Illustrator 25.4.1, SVG Export Plug-In . SVG Version: 6.00 Build 0)  -->
<svg version="1.1" id="Layer_1" xmlns="http://www.w3.org/2000/svg" xmlns:xlink="http://www.w3.org/1999/xlink" x="0px" y="0px"
	 viewBox="0 0 2002 741.5" style="enable-background:new 0 0 2002 741.5;" xml:space="preserve">
<style type="text/css">
	.st0{fill:none;}
	.st1{clip-path:url(#SVGID_00000026862610367903558550000017251810911107889850_);}
	.st2{clip-path:url(#SVGID_00000036951096052247817330000012677652361507437215_);}
	.st3{fill:none;stroke:#849099;stroke-width:5;stroke-linecap:round;}
	.st4{fill:none;stroke:#2BB673;stroke-width:3;stroke-linecap:round;stroke-linejoin:round;stroke-miterlimit:10;}
	.st5{fill-rule:evenodd;clip-rule:evenodd;fill:#FFFFFF;}
	.st6{fill:#FFFFFF;}
	.st7{font-family:'MyriadPro-Regular';}
	.st8{font-size:60px;}
</style>
<g id="_x32_sleeve_x5F_life_00000018943141870033162000000007647101247550529679_" transform="translate(2.5 2.5)">
	<path id="Background" class="st0" d="M0-2.5h1997v739H0V-2.5z"/>
	<g>
		<defs>
			<rect id="SVGID_1_" y="-2.5" width="1997" height="739"/>
		</defs>
		<clipPath id="SVGID_00000176002581654892946650000000432041544056991891_">
			<use xlink:href="#SVGID_1_"  style="overflow:visible;"/>
		</clipPath>
		<g style="clip-path:url(#SVGID_00000176002581654892946650000000432041544056991891_);">
			<g id="_x32_sleeve_x5F_life" transform="translate(1.5 1.5)">
				<path id="Background_00000173882592321222343150000004246985885810807994_" class="st0" d="M0-2.5h1993.5v735.3H0V-2.5L0-2.5z"
					/>
				<g id="Mask-group">
					<path id="path_1" class="st0" d="M0-2.5h1993.5v735.3H0V-2.5L0-2.5z"/>
					<g>
						<defs>
							<polygon id="SVGID_00000156563887918440424320000003203130511362943677_" points="0,-2.5 1993.5,-2.5 1993.5,732.8 0,732.8 
								0,-2.5 							"/>
						</defs>
						<clipPath id="SVGID_00000094617995224881875020000018175709432170917287_">
							<use xlink:href="#SVGID_00000156563887918440424320000003203130511362943677_"  style="overflow:visible;"/>
						</clipPath>
						<g style="clip-path:url(#SVGID_00000094617995224881875020000018175709432170917287_);">
							<g id="Group_00000000189926838629087470000006083160569609914556_" transform="translate(0 0.9992676)">
								<g id="Group" transform="translate(1007.4702 311.30054)">
									<path id="line24" class="st3" d="M859.9-2.5c71.2,114.8-86.5,131.2-68.9,238.3c8.4,51-73,60-119.9,45.8
										c-25.5-7.7-27-8.3-47.5-26c-23.5-20.3-56.2-40.1-88.8-39.7c-29.5,0.4-37.6,8.6-66.9,4c-35.1-5.5-50.3-7.4-80.4-28.6
										c-14.1-10-29.7-25.7-38.3-41.7c-15.1-28.1-37.8-69.4-69.1-77.2c-28.8-7.2-62.3,12.1-78.5,38.6
										c-17.5,28.6-32.2,68.5-58.1,89.3c-25.1,20.1-68.7,8.4-80.1-29.9c-7.9-26.5-4.7-75-11.1-100.2c-1.8-7.3-13.1-47.8-26.8-49.7
										L0,19"/>
								</g>
								<g id="Group_00000020368702869729995840000015157823444473563810_" transform="translate(1007.4702 243.63062)">
									<path id="line23" class="st3" d="M0,83.4l28,1.4c7.1,1,21.2,6.4,24,16.9C94.9,266,152.4,206.5,198.6,158.3
										c95.2-99.3,115.5,6.2,195.2,49c34,18.3,51-13.9,127.6,38.2c68.6,46.7,176.5,14.9,168.8-46.3
										C675.9,85.7,830.8,142.7,770.3-2.5"/>
								</g>
								<g id="Group_00000155129305333422729240000012240247135683889797_" transform="translate(1007.4702 163.10083)">
									<path id="line22" class="st3" d="M0,160.4c0,0,23.7,1,33.9,2.1c15.9,1.7,36.7,17.8,49.1,27.4c12.8,9.9,24.6,21.5,38.4,29.7
										c36.2,21.7,71.3,1.8,104.8-19.5c7.7-4.9,21.8-11.2,30.6-12.9c8.4-1.6,28.3-2.8,36.4,0c18.4,6.4,23.3,17,43.3,33.9
										c13.2,11.1,20.3,19.4,46.8,18c23.9-1.3,32.3-11.6,60.9-11.6c19.8,0,48.6,14.7,68.1,18.9c35,7.6,75.8,8.1,72.8-37.2
										C577.5,96.3,730.3,92,665-2.5"/>
								</g>
								<g id="Group_00000116221394112840275670000010717853010502688171_" transform="translate(1007.4702 94.360596)">
									<path id="line21" class="st3" d="M0,225.7l37.4,2.7c43.8,5.6,127.9,48.3,152.8,15.3c20.8-27.5,112.5-17.4,149.1-10.7
										c83.7,15.4,127.6,14.3,126.3-37.9c-2.7-103,179.3-82.2,91.5-197.6"/>
								</g>
								<g id="Group_00000174577744487916043290000009203656020137402518_" transform="translate(1007.4702 91.78052)">
									<path id="line20" class="st3" d="M0,224.8l30.8,0.7c13-0.5,101.7,18,148.1-9.4c23.2-13.7,51,11.5,79.5,0.6
										c31.4-12.1,28-32.5,55.9-29.1c60.3,7.4-3.9-54.5,79-81.7c47.2-15.5,76.3-19.7,50.7-108.3"/>
								</g>
								<g id="Group_00000080891928082005228690000005960548155533683073_" transform="translate(1007.4702 107.0105)">
									<path id="line19" class="st3" d="M0,206.2l52.4,1.1c60,7.4,231.7-65.6,193.6-106.9c-54-58.6,70.6-25.2,19.4-102.9"/>
								</g>
								<g id="Group_00000078763020976800582740000005577475572898081424_" transform="translate(1007.4702 312.2395)">
									<path id="line18" class="st3" d="M0-2.5c0,0,43.2,0.6,68,0c40.4-1,75.1,65,109.1,53c54.4-19.1,69.4-33.3,125.6-21.3
										c98.8,21.1,136.9-14,186.1,80.3c21.6,41.5,89.3,99.2,139.7,110c125.4,27,138.2,90.8,138.2,121.6"/>
								</g>
								<g id="Group_00000166656447874694241220000001095478067368452230_" transform="translate(1007.4702 259.03293)">
									<path id="line17" class="st3" d="M0,47.3c65.5,2.5,109.7-12.8,129.9-17c39.8-8.3,61-62,127-11.4
										c51.8,39.7,78.6,29.1,159.2,18c66.4-9.1,128.6,99,170.1,146.9c53.2,61.3,240,92.3,234,180.7"/>
								</g>
								<g id="Group_00000142141883170738516820000009340507699414680508_" transform="translate(1007.4702 226.67896)">
									<path id="line16" class="st3" d="M0,76.2c3.6-0.1,24.9-1.8,27.2-1.9c49.3-1.4,119.7-56.5,161.9-72
										c69.6-25.7,90.7,60.4,242.6,23.1c76.5-18.8,160.8,113.2,197.7,161.2c48.1,62.7,224.7,72.3,221.4,156.5"/>
								</g>
								<g id="Group_00000076601602637544784380000005702019776238702005_" transform="translate(1007.4702 190.81372)">
									<path id="line15" class="st3" d="M0,108.8c10.4,0,22.2-2.1,25.6-2.6C81.1,97.5,133.2,10.8,186.1,0
										c80.5-16.4,125.6,54.1,270.2,16.5c88.4-22.9,163.7,127.1,195.9,175.2c42.9,64.2,236.7,53.5,236.1,133.4"/>
								</g>
								<g id="Group_00000136386678015734956590000012385225817400212608_" transform="translate(1007.10986 156.18726)">
									<path id="line14" class="st3" d="M0,139.9c4.4,0,20.7-1.3,26.7-3.3c6-2,22.3-13.6,32.9-22.2c15-12.1,26.9-30,39.4-45.2
										c11.7-14.2,23.5-28.6,37.9-39.5c26.8-20.4,55-20.3,85.9-24.2c28.7-3.6,57.7-10.1,86.6-7.1C368.3,4.4,346,31.1,480.2,9.4
										c112.1-18.1,176,138.3,205.7,184.9c56.8,89.2,229.1,25.5,230.7,100.5"/>
								</g>
								<g id="Group_00000179644845915612697880000017666312952676545683_" transform="translate(1007.4702 123.53888)">
									<path id="line13" class="st3" d="M0,169.3c0,0,18.8-1.6,23.8-4.2c35.6-18.1,74.9-92.2,97.1-109.8
										c53.2-42.1,155-79.2,243.3-43.1c31.8,13,95.2-10.4,119.6-11.9c151-9,210.6,91.5,231.5,163.2
										c20.8,71.3,198.3,9.2,203.1,80.5"/>
								</g>
								<g id="Group_00000008836999806668677920000015896296460694613922_" transform="translate(97.83783 311.30054)">
									<path id="line12" class="st3" d="M18.6-2.5c-71.2,114.8,86.5,131.2,68.9,238.3c-8.4,51,73,60,119.9,45.8
										c25.5-7.7,27-8.3,47.5-26c23.5-20.3,56.2-40.1,88.8-39.7c29.5,0.4,37.6,8.6,66.9,4c35.1-5.5,50.3-7.4,80.4-28.6
										c14.2-10,29.7-25.7,38.3-41.7c15.1-28.1,37.8-69.4,69.1-77.2c28.8-7.2,62.3,12.1,78.5,38.6c17.5,28.6,32.2,68.5,58.1,89.3
										c25.1,20.1,68.7,8.4,80.1-29.9c7.9-26.5,4.7-75,11.1-100.2c1.8-7.3,13.1-47.8,26.8-49.7l25.5-1.5"/>
								</g>
								<g id="Group_00000000943220144798755140000003230955419750241931_" transform="translate(191.98007 243.63062)">
									<path id="line11" class="st3" d="M784.3,83.4l-28,1.4c-7.1,1-21.2,6.4-24,16.9C689.4,266,632,206.5,585.8,158.3
										c-95.2-99.3-115.5,6.2-195.2,49c-34,18.3-51-13.9-127.6,38.2c-68.6,46.7-176.5,14.9-168.8-46.3
										C108.4,85.7-46.4,142.7,14.1-2.5"/>
								</g>
								<g id="Group_00000073685796237341006240000008251896236321250449_" transform="translate(295.04044 163.07056)">
									<path id="line10" class="st3" d="M681.3,160.4c0,0-23.7,1-33.9,2.1c-15.9,1.7-36.7,17.8-49.1,27.4
										c-12.8,9.9-24.6,21.5-38.4,29.7c-36.2,21.7-71.3,1.8-104.8-19.5c-7.7-4.9-21.8-11.2-30.6-12.9c-8.4-1.6-28.3-2.8-36.4,0
										c-18.4,6.4-23.3,17-43.3,33.9c-13.2,11.1-20.3,19.4-46.8,18c-23.9-1.3-32.3-11.6-60.8-11.6c-19.8,0-48.6,14.7-68.1,18.9
										c-35,7.6-75.8,8.1-72.8-37.2C103.8,96.3-49,92,16.3-2.5"/>
								</g>
								<g id="Group_00000098196289235083870010000016715725592946495629_" transform="translate(395.3101 94.360596)">
									<path id="line9" class="st3" d="M581,225.7l-37.4,2.7c-43.8,5.6-127.9,48.3-152.8,15.3c-20.8-27.5-112.5-17.4-149.1-10.7
										c-83.6,15.4-127.6,14.3-126.3-37.9C118.1,92.1-63.8,112.9,24-2.5"/>
								</g>
								<g id="Group_00000045597106815780893600000003411214370195036289_" transform="translate(522.8466 91.78052)">
									<path id="line8" class="st3" d="M453.5,224.8l-30.8,0.7c-13-0.5-101.7,18-148.1-9.4c-23.2-13.7-51,11.5-79.5,0.6
										c-31.4-12.1-28-32.5-55.9-29.1c-60.3,7.4,3.9-54.5-79-81.7C13,90.3-16.1,86.1,9.6-2.5"/>
								</g>
								<g id="Group_00000060748621315539470110000010363258347432900527_" transform="translate(698.36426 107.00073)">
									<path id="line7" class="st3" d="M278,206.2l-52.4,1.1C165.5,214.8-6.1,141.8,32,100.4C86,41.8-38.6,75.2,12.6-2.5"/>
								</g>
								<g id="Group_00000096042153615379985590000009561582669048828858_" transform="translate(209.72998 312.2395)">
									<path id="line6" class="st3" d="M766.6-2.5c0,0-43.2,0.6-68,0c-40.4-1-75.1,65-109.1,53C535.1,31.5,520,17.3,463.9,29.3
										c-98.8,21.1-136.9-14-186.1,80.3c-21.6,41.5-89.3,99.2-139.6,110C12.8,246.6,0,310.4,0,341.2"/>
								</g>
								<g id="Group_00000111164501888775400970000014278984000625156785_" transform="translate(155.89856 259.03293)">
									<path id="line5" class="st3" d="M820.4,47.3c-65.5,2.5-109.7-12.8-129.9-17c-39.8-8.3-61-62-127-11.4
										C511.7,58.7,484.9,48,404.3,37c-66.4-9.1-128.6,99-170.1,146.9c-53.2,61.3-240,92.3-234,180.7"/>
								</g>
								<g id="Group_00000134226524772218577470000006897781555532336316_" transform="translate(125.504395 226.67896)">
									<path id="line4" class="st3" d="M850.8,76.2c-3.6-0.1-24.9-1.8-27.2-1.9c-49.3-1.4-119.7-56.5-161.9-72
										C592.1-23.3,571,62.8,419.1,25.5C342.7,6.7,258.3,138.7,221.5,186.7C173.4,249.4-3.2,259,0,343.1"/>
								</g>
								<g id="Group_00000075866265679758455820000008888214103267662267_" transform="translate(88.02878 190.81372)">
									<path id="line3" class="st3" d="M888.3,108.8c-10.4,0-22.2-2.1-25.6-2.6C807.2,97.5,755.1,10.8,702.2,0
										C621.7-16.4,576.6,54.1,432,16.6C343.5-6.4,268.2,143.7,236.1,191.8C193.2,256-0.6,245.4,0,325.2"/>
								</g>
								<g id="Group_00000070107786505726322510000003224126692874718111_" transform="translate(60.180176 156.18726)">
									<path id="line2" class="st3" d="M916.5,139.9c-4.4,0-20.7-1.3-26.7-3.3c-6-2-22.3-13.6-32.9-22.2
										c-15-12.1-26.9-30-39.4-45.2c-11.7-14.2-23.5-28.6-37.9-39.5c-26.8-20.4-55-20.3-86-24.2C664.8,1.8,635.8-4.7,607-1.7
										c-58.9,6.1-36.6,32.8-170.7,11.1c-112-18.2-175.9,138.3-205.6,184.9C173.9,283.5,1.6,219.8,0,294.8"/>
								</g>
								<g id="Group_00000110458277761671899500000005884827711270769848_" transform="translate(57.83008 123.53888)">
									<path id="line1" class="st3" d="M918.5,169.3c0,0-18.8-1.6-23.8-4.2c-35.6-18.1-74.9-92.2-97.1-109.8
										c-53.2-42.1-155-79.2-243.3-43.1c-31.8,13-95.2-10.4-119.6-11.9c-151-9-210.6,91.5-231.5,163.2
										C182.4,234.7,4.8,172.7,0,243.9"/>
								</g>
								<g id="life" transform="translate(641.4356 0)">
									<path id="life_right" class="st4" d="M336.6,284.7c-10-1.7-26.5-5.4-44.3-15.1c-27.4-14.9-28.2-27.6-85.7-105.1
										c-19.4-26.2-32.6-42.6-37.3-69.1c-1.7-9.4-1-12.7-3.9-29.3C161.9,47,154.2,28,143.1,7.9c-13.1-23.7-31.4-4.7-36.3,16.8
										c-3.2,13.9-9.8,41.6-3.9,41c6.6-0.7,9.4-20.7,2.8-38.2C99.2,10,97.3,10.5,88,13.8c-8.3,3-9,22.2-9.1,24.6
										c-0.3,4.4,2,4.5,2.8,2.3c0.4-1.2-0.7-18.6-2.3-20.9c-1.6-2.4-6.5-3.4-10,2.9c-3.6,6.2-10.9,30.6-11.1,39.8
										c-0.3,10.6,2.7,19.1,5.3,9.4c2.7-9.6,4.2-61,2.7-69c-1.5-8-4.6-19.7-7.5-11.8C55.9-1.1,59.4,13,62.1,19
										c2.7,6,4.8,6.1,1.9,8.6c-2.9,2.4-16.6,6-21.2,14.5c-4.6,8.5-3.6,17,0.8,14.6c4.4-2.3,6-19.4,2.5-23.4
										c-3.4-4-12.4-6.2-17.7-3.3c-4.4,2.5-14.7,7.6-19.1,23.9c0,0-6.9,29,12,33c18,3.8,34.1,2.1,48.1,4c0,0,12.8,0,45.2,8.4
										c42.5,11,74.7,52.7,112.3,102.6c31.2,41.4,43.8,67.4,78,78.7c11.1,3.7,15.8,5.5,20.9,6.5c4.3,0.8,8,0.9,10.6,0.9"/>
									<path id="life_left" class="st4" d="M364.5,287.9c2.6,0,6.3-0.1,10.6-0.9c5.2-1,9.8-2.8,20.9-6.5
										c34.2-11.3,46.8-37.3,78-78.7c37.7-49.9,69.8-91.6,112.3-102.6c32.4-8.4,45.2-8.4,45.2-8.4s91-5,47.8-56.3
										c-9.2-11-23.7,6.3-33.6,14.9C635,58.9,614.9,79,620.2,81.7c5.9,3,19.1-12.2,23.2-30.5c4.1-18.3,2.2-18.9-7.4-21.1
										c-8.6-2-19.6,13.7-21.1,15.6c-2.7,3.5-0.8,4.9,1.1,3.5c1-0.8,9.5-15.9,9.5-18.8c-0.1-2.9-3.6-6.3-10-3.1
										c-6.4,3.3-25.8,19.7-31,27.3c-6.1,8.7-8.2,17.4-0.7,10.8c7.5-6.6,36.8-48.9,39.9-56.4c3.1-7.5,6.9-19,0.2-14
										s-11.4,18.7-12.4,25.3c-1,6.5,0.7,7.8-3.1,8.2s-17.1-4-25.7,0.6c-8.5,4.6-12.3,12.3-7.3,12.7c4.9,0.4,15.6-13,14.9-18.3
										c-0.7-5.2-2.8-9.9-8.7-11.3c-5.9-1.4-20.4-2.5-27.4,9.3c-7.8,13-1.6,27.5-1.5,45.4c0,0,0.2,32.4-12.8,43.3
										c-20.6,17.3-25.9,28.2-45.4,54.4c-57.5,77.5-58.3,90.2-85.7,105.1c-17.8,9.7-34.3,13.4-44.3,15.1"/>
								</g>
								<g id="numbers" transform="translate(0 22.000732)">
									<path id="Shape" class="st5" d="M7.8,333.4H7.7l-6.9,4L0,334.8l7.8-4.5h3.1v42.1H7.8V333.4L7.8,333.4z"/>
									<path id="Shape_00000145052908091468381840000015134195977565344393_" class="st5" d="M2.6,472.2v-2l4.1-3.9
										c14-13,18.6-17.8,18.6-24.4c0-4.6-2-9.8-10.1-9.8c-3.7,0.1-7.2,1.5-9.9,4L4,433.9c3.2-2.9,7.5-4.6,11.9-4.6
										c9.8,0,12.7,7.3,12.7,11.8c0,8.4-6.2,14.4-18.5,25.7l-3,2.7v0.1h22.7v2.7L2.6,472.2L2.6,472.2z"/>
									<path id="Shape_00000181046103771480488860000002634654408034528944_" class="st5" d="M34.4,541.9c3,1.9,6.5,2.9,10.1,2.9
										c10,0,11.7-6.8,11.6-9.7c-0.1-7.3-7.1-9.9-13.5-9.9h-3.2v-2.7h3.4c5.2,0,11.5-2.6,11.5-8.4c0-3.6-2.1-7.6-8.9-7.6
										c-3.3,0.1-6.5,1.2-9.1,3.2l-1.3-2.3c3.1-2.3,6.9-3.5,10.8-3.6c8.9,0,11.9,5.4,11.9,9.9c0,4.3-2.9,8.1-8.3,10v0.1
										c5.8,1.1,10.2,5.4,10.2,11.1c0,6-4.6,12.6-15.3,12.6c-3.9,0.1-7.7-1-11-3.1L34.4,541.9L34.4,541.9z"/>
									<path id="Shape_00000173841780045150370120000015133689116579749045_" class="st5" d="M98.3,603.5v-12.3H76.1V589
										l22.8-27.7h2.5v27.2h7v2.7h-7v12.3H98.3L98.3,603.5z M98.3,588.5v-18c0-1.6,0-3.2,0.1-4.7l-0.2-0.1c-0.9,1.4-1.9,2.8-3,4.2
										l-15.3,18.6v0.1H98.3L98.3,588.5z"/>
									<path id="Shape_00000029759907043582280220000008380048287751199890_" class="st5" d="M152.7,623.6h-17.3l-2,13.5
										c1.5-0.2,3-0.3,4.5-0.3c2.7-0.1,5.3,0.4,7.8,1.4c4.6,1.9,7.7,6.4,7.6,11.4c0,8.4-6.8,14.1-15,14.1c-3.8,0.1-7.5-1-10.8-3
										l1.3-2.5c2.9,1.8,6.3,2.8,9.7,2.8c6.7,0,11.7-4.8,11.6-10.8c-0.1-5.7-3.8-10.7-13-10.7c-2.3,0-4.5,0.2-6.8,0.5l2.6-19.2
										h19.8L152.7,623.6L152.7,623.6z"/>
									<path id="Shape_00000059268203788401270290000013216360589108116158_" class="st5" d="M208.4,655.3c-1.8,0-3.5,0.1-5.2,0.5
										c-8.9,1.7-15.5,9.1-16.2,18.1h0.1c2.7-4,7.2-6.4,12.1-6.3c8.6,0,13.8,6,13.8,13.7c0,7-4.9,14.8-14.4,14.8
										c-7.8,0-15-5.6-15-17.9c0-8.8,3.4-15.4,7.7-19.3c3.5-3.1,7.7-5.2,12.3-6c1.6-0.3,3.2-0.5,4.8-0.5L208.4,655.3L208.4,655.3z
										 M209.5,681.3c0-7.1-4.8-11.1-11.3-11.1c-4.4,0.1-8.4,2.4-10.7,6.2c-0.5,0.8-0.8,1.8-0.8,2.7c0,7.8,4,14.3,11.9,14.3
										C205.4,693.4,209.5,687.9,209.5,681.3L209.5,681.3L209.5,681.3z"/>
									<path id="Shape_00000167364969401763372480000003642766885556360377_" class="st5" d="M735,17.2v2.5l-20.7,39.6h-3.1
										L731.7,20v-0.1h-23.3v-2.6H735L735,17.2z"/>
									<path id="Shape_00000068646491976609354720000012877348997145406639_" class="st5" d="M525.8,29.7c0-5.1,3.2-9.1,9.3-11.5
										V18c-5.6-2.1-7.6-5.8-7.6-9.5c0-6.4,5.6-11,13.2-11c7.4,0,12.2,4.4,12.2,10.2c0,3.3-1.5,7.5-8,10.1v0.3
										c6.6,2.1,9.6,6.1,9.6,10.9c0,7.6-7.1,12.2-14.4,12.2C532.4,41.2,525.8,36.9,525.8,29.7L525.8,29.7L525.8,29.7z M551.3,29.6
										c0-6.2-4.4-8.8-12.2-10.4c-6.5,1.4-10,5.2-10,10c-0.3,4.9,3.8,9.5,11,9.5S551.3,34.3,551.3,29.6L551.3,29.6L551.3,29.6z
										 M530.6,8.1c-0.1,5.1,3.7,7.7,10.4,9c4.9-1.3,8.6-4.2,8.6-9.1c0-3.4-2.4-7.9-9.3-7.9C533.9,0,530.6,4,530.6,8.1L530.6,8.1
										L530.6,8.1z"/>
									<path id="Shape_00000083082998497804301720000004122646388491873423_" class="st5" d="M403.4,38.3c1.8,0.1,3.7,0,5.5-0.3
										c3.9-0.5,7.5-2.4,10.2-5.3c2.8-3,4.9-7.2,5.8-13.1l-0.2,0.1c-2.8,3.8-7.3,6-12.1,5.9c-8.8,0-13.1-6.6-13.1-12.9
										c0-7.6,5.7-15.1,14.8-15.1c7.3,0,13.7,5.6,13.7,17.9c0,10.2-4,16.7-8,20.3c-2.9,2.5-6.3,4.2-10,4.9
										c-2.1,0.4-4.3,0.6-6.5,0.6L403.4,38.3L403.4,38.3z M402.6,12.5c-0.1,2.8,1,5.4,2.9,7.4s4.7,3,7.4,2.9
										c4.5,0.1,8.7-2,11.2-5.7c0.4-0.6,0.6-1.3,0.6-1.9c0-8.2-3.4-15-11.2-15C406.8,0.2,402.6,6.1,402.6,12.5L402.6,12.5
										L402.6,12.5z"/>
									<path id="Shape_00000167387727717415626050000010415950701954573448_" class="st5" d="M282.7,71.6h-0.1l-6.9,4l-0.8-2.5
										l7.8-4.5h3.1v42.1h-3.1V71.6L282.7,71.6z"/>
									<path id="Shape_00000022561169750833119710000004068425709944777353_" class="st5" d="M332.5,88.8c0,15-5.7,22.6-15,22.6
										c-7.1,0-13.7-6.5-14-21.6c0-15.3,7.5-22.1,15-22.1C326.7,67.7,332.5,74.5,332.5,88.8L332.5,88.8L332.5,88.8z M306.8,89.9
										c0,12.2,4.7,18.9,11.1,18.9c7.8,0,11.3-7.8,11.3-19.6c0-11.3-3.3-18.9-11.2-18.9C311.9,70.3,306.8,76.8,306.8,89.9
										L306.8,89.9L306.8,89.9z"/>
									<path id="Shape_00000023262544248984015240000003664898712805166733_" class="st5" d="M177.4,166.1h-0.1l-6.9,4l-0.8-2.5
										l7.9-4.5h3v42.1h-3.1L177.4,166.1L177.4,166.1z"/>
									<path id="Shape_00000085218502139757427900000010031972007859492019_" class="st5" d="M211.7,166.1h-0.1l-6.9,4l-0.8-2.5
										l7.8-4.5h3v42.1h-3.1L211.7,166.1L211.7,166.1z"/>
									<path id="Shape_00000156560870823662109380000011590266410393726353_" class="st5" d="M82.9,220.1h-0.1l-6.9,4l-0.8-2.5
										L83,217h3v42.1h-3.1V220.1L82.9,220.1z"/>
									<path id="Shape_00000116938057464502373420000014170074360708902067_" class="st5" d="M104.2,259.1v-2l4.1-3.8
										c14-13,18.6-17.8,18.6-24.4c0-4.6-2-9.8-10.1-9.8c-3.7,0.1-7.2,1.5-9.9,4l-1.3-2.1c3.2-3,7.5-4.6,11.9-4.7
										c9.8,0,12.7,7.3,12.7,11.8c0,8.4-6.2,14.5-18.5,25.7l-3,2.7v0.1h22.7v2.7L104.2,259.1L104.2,259.1z"/>
									<path id="Shape_00000080200942626240986270000012868695168087677581_" class="st5" d="M1937.6,328.1h-0.1l-6.9,4l-0.8-2.5
										l7.8-4.5h3v42.1h-3.1L1937.6,328.1L1937.6,328.1z"/>
									<path id="Shape_00000009576208982428846010000015331585390487709614_" class="st5" d="M1960.2,362.3
										c3,1.9,6.5,2.9,10.1,2.9c10,0,11.7-6.8,11.6-9.7c-0.1-7.3-7.1-9.9-13.6-9.9h-3.2V343h3.4c5.2,0,11.5-2.6,11.5-8.4
										c0-3.6-2.1-7.6-8.9-7.6c-3.3,0.1-6.5,1.2-9.1,3.2l-1.3-2.3c3.1-2.3,6.9-3.5,10.8-3.6c8.9,0,11.9,5.4,11.9,9.9
										c0,4.3-2.9,8.1-8.3,10v0.1c5.8,1.1,10.2,5.4,10.2,11.1c0,6-4.6,12.6-15.4,12.6c-3.9,0.1-7.7-1-11-3.1L1960.2,362.3
										L1960.2,362.3z"/>
									<path id="Shape_00000178166733047594139080000017118529280868960958_" class="st5" d="M1942.7,417.2h-0.1l-6.9,4l-0.8-2.5
										l7.8-4.5h3.1v42.1h-3.1V417.2L1942.7,417.2z"/>
									<path id="Shape_00000022528682920728235060000004243853262393324209_" class="st5" d="M1983.4,456.2v-12.3h-22.2v-2.1
										l22.8-27.7h2.5v27.1h7v2.7h-7v12.3H1983.4L1983.4,456.2z M1983.4,441.2v-18c0-1.5,0-3.2,0.1-4.7l-0.2-0.1
										c-0.9,1.4-1.9,2.8-3,4.1l-15.3,18.6v0.1L1983.4,441.2L1983.4,441.2z"/>
									<path id="Shape_00000125567959205442921060000005226829256750274461_" class="st5" d="M1919.1,497.2h-0.1l-6.9,4l-0.8-2.5
										l7.8-4.5h3v42.1h-3.1L1919.1,497.2L1919.1,497.2z"/>
									<path id="Shape_00000105410522753581374360000011093168350220703394_" class="st5" d="M1965.6,496.9h-17.3l-2,13.5
										c1.5-0.2,3-0.3,4.5-0.3c2.7-0.1,5.3,0.4,7.8,1.4c4.6,1.9,7.6,6.4,7.6,11.4c0,8.4-6.8,14.1-15,14.1c-3.8,0.1-7.5-1-10.8-3
										l1.3-2.5c2.9,1.8,6.3,2.8,9.7,2.8c6.7,0,11.7-4.8,11.6-10.8c-0.1-5.7-3.8-10.7-13-10.7c-2.3,0-4.6,0.2-6.8,0.5l2.7-19.2
										h19.8L1965.6,496.9L1965.6,496.9z"/>
									<path id="Shape_00000162318318245523758670000000402742484727157644_" class="st5" d="M1881.3,562h-0.1l-6.9,4l-0.8-2.5
										l7.8-4.5h3v42.1h-3.1L1881.3,562L1881.3,562z"/>
									<path id="Shape_00000074429219507741084590000011341413206779102593_" class="st5" d="M1926.8,561c-1.8,0-3.5,0.1-5.2,0.5
										c-8.9,1.7-15.6,9.1-16.3,18.1h0.1c2.7-4,7.2-6.4,12-6.3c8.6,0,13.8,6,13.8,13.7c0,7-4.9,14.8-14.4,14.8
										c-7.8,0-15-5.6-15-17.9c0-8.8,3.4-15.4,7.7-19.3c3.5-3.1,7.7-5.2,12.3-6c1.6-0.3,3.2-0.5,4.8-0.5L1926.8,561L1926.8,561z
										 M1928,587.1c0-7.1-4.8-11.1-11.3-11.1c-4.4,0.1-8.4,2.4-10.7,6.2c-0.5,0.8-0.8,1.8-0.8,2.7c0,7.8,4,14.2,11.9,14.2
										C1923.8,599.1,1928,593.6,1928,587.1L1928,587.1L1928,587.1z"/>
									<path id="Shape_00000050635818739918969120000009366687887027859111_" class="st5" d="M1835.4,637.6h-0.1l-6.9,4l-0.8-2.5
										l7.8-4.5h3.1v42.1h-3.1V637.6L1835.4,637.6z"/>
									<path id="Shape_00000027577767503182607510000011863670395419706814_" class="st5" d="M1884.7,634.5v2.5l-20.7,39.6h-3.1
										l20.5-39.3v-0.1h-23.3v-2.7L1884.7,634.5L1884.7,634.5z"/>
									<path id="Shape_00000052817897663627283370000013312255875222557859_" class="st5" d="M1759.8,670h-0.1l-6.9,4l-0.8-2.5
										l7.8-4.5h3v42.1h-3.1L1759.8,670L1759.8,670z"/>
									<path id="Shape_00000096037070546454583280000001497371412044574883_" class="st5" d="M1780.7,698.4
										c0-5.1,3.2-9.1,9.3-11.5v-0.3c-5.6-2.1-7.6-5.8-7.6-9.5c0-6.3,5.6-11,13.2-11c7.4,0,12.2,4.4,12.2,10.2
										c0,3.3-1.5,7.5-8,10.1v0.3c6.6,2.1,9.6,6.2,9.6,10.9c0,7.6-7.1,12.2-14.4,12.2C1787.3,709.8,1780.7,705.5,1780.7,698.4
										L1780.7,698.4L1780.7,698.4z M1806.3,698.2c0-6.2-4.4-8.8-12.2-10.4c-6.6,1.4-10,5.2-10,10c-0.3,4.9,3.8,9.5,11,9.5
										S1806.3,702.9,1806.3,698.2L1806.3,698.2L1806.3,698.2z M1785.6,676.7c-0.1,5,3.7,7.7,10.4,9c4.9-1.3,8.6-4.2,8.6-9.1
										c0-3.4-2.4-7.9-9.3-7.9C1788.9,668.6,1785.6,672.6,1785.6,676.7L1785.6,676.7L1785.6,676.7z"/>
									<path id="Shape_00000029734953275220527850000015616859072407403671_" class="st5" d="M1257.8,29h-0.1l-6.9,4l-0.8-2.5
										l7.8-4.5h3V68h-3.1L1257.8,29L1257.8,29z"/>
									<path id="Shape_00000017514970873389133540000017540192305275920562_" class="st5" d="M1275.5,65.5c1.8,0.1,3.6,0,5.4-0.3
										c3.9-0.5,7.5-2.4,10.2-5.3c2.8-3,4.9-7.2,5.8-13.1l-0.2,0.1c-2.8,3.8-7.3,6-12,5.9c-8.8,0-13.1-6.6-13.1-12.9
										c0-7.6,5.7-15.1,14.8-15.1c7.3,0,13.7,5.6,13.7,17.9c0,10.2-4,16.7-8,20.3c-2.9,2.5-6.3,4.2-10,4.9
										c-2.1,0.4-4.3,0.6-6.5,0.6L1275.5,65.5L1275.5,65.5z M1274.7,39.7c-0.1,2.8,1,5.4,2.9,7.4s4.7,3,7.4,2.9
										c4.5,0.1,8.7-2,11.2-5.7c0.4-0.6,0.6-1.3,0.6-1.9c0-8.2-3.4-15-11.2-15C1278.9,27.4,1274.7,33.3,1274.7,39.7L1274.7,39.7
										L1274.7,39.7z"/>
									<path id="Shape_00000029765336688605678360000002577471931655977615_" class="st5" d="M1753.9,194.5v-2l4.1-3.8
										c14-13,18.6-17.8,18.6-24.4c0-4.6-2-9.9-10.1-9.9c-3.7,0.1-7.2,1.5-9.9,4l-1.3-2.1c3.2-3,7.5-4.6,11.9-4.7
										c9.8,0,12.7,7.3,12.7,11.8c0,8.4-6.2,14.5-18.5,25.7l-3,2.7v0.1h22.7v2.7L1753.9,194.5L1753.9,194.5z"/>
									<path id="Shape_00000034789038921972681550000010459279922509111445_" class="st5" d="M1464.4,19.8c0,15-5.7,22.6-15,22.6
										c-7.1,0-13.7-6.5-14-21.6c0-15.3,7.4-22.1,15-22.1C1458.6-1.3,1464.4,5.5,1464.4,19.8L1464.4,19.8L1464.4,19.8z
										 M1438.7,20.9c0,12.2,4.7,18.9,11.1,18.9c7.8,0,11.3-7.8,11.3-19.6c0-11.3-3.3-18.9-11.2-18.9
										C1443.8,1.3,1438.7,7.8,1438.7,20.9L1438.7,20.9L1438.7,20.9z"/>
									<path id="Shape_00000128475364174345501720000011165720013335451545_" class="st5" d="M1651.3,110.8v-2l4.1-3.8
										c14-13,18.6-17.8,18.6-24.4c0-4.6-2-9.8-10.1-9.8c-3.7,0.1-7.2,1.5-9.9,4l-1.3-2.1c3.2-3,7.5-4.6,11.9-4.7
										c9.8,0,12.7,7.3,12.7,11.8c0,8.4-6.2,14.4-18.5,25.7l-3,2.7v0.1h22.7v2.7L1651.3,110.8L1651.3,110.8z"/>
									<path id="Shape_00000076592101799308521850000013419518101156226981_" class="st5" d="M1570.2,1.8h-0.1l-6.9,4l-0.8-2.5
										l7.8-4.5h3.1v42.1h-3.1V1.8L1570.2,1.8z"/>
									<path id="Shape_00000095298518076977974090000010182903383482670516_" class="st5" d="M1524.4,40.6v-2l4.1-3.8
										c14-13,18.6-17.8,18.6-24.4c0-4.6-2-9.9-10.1-9.9c-3.7,0.1-7.2,1.5-9.9,4l-1.3-2.1c3.2-3,7.5-4.6,11.9-4.7
										c9.8,0,12.7,7.3,12.7,11.8c0,8.4-6.2,14.4-18.5,25.7l-3,2.7V38h22.7v2.7L1524.4,40.6L1524.4,40.6z"/>
									<path id="Shape_00000124140646294200646100000018297916382832114074_" class="st5" d="M1686,110.7v-2l4.2-3.8
										c14-13,18.6-17.8,18.6-24.4c0-4.6-2-9.9-10.1-9.9c-3.7,0.1-7.2,1.5-9.9,4l-1.3-2.1c3.2-3,7.5-4.6,11.9-4.7
										c9.8,0,12.7,7.3,12.7,11.8c0,8.4-6.2,14.4-18.5,25.7l-3,2.7v0.1h22.7v2.7L1686,110.7L1686,110.7z"/>
									<path id="Shape_00000113340272178874402090000004107682012810233733_" class="st5" d="M1397.5,40.6v-2l4.1-3.8
										c14-13,18.6-17.8,18.6-24.4c0-4.6-2-9.8-10.1-9.8c-3.7,0.1-7.2,1.5-9.9,4l-1.3-2.1c3.2-3,7.5-4.6,11.9-4.7
										c9.8,0,12.7,7.3,12.7,11.8c0,8.4-6.2,14.4-18.5,25.7l-3,2.7v0.1h22.7v2.7L1397.5,40.6L1397.5,40.6z"/>
									<path id="Shape_00000059996767158194632790000015827238146673641368_" class="st5" d="M1789.9,190.4
										c3,1.9,6.5,2.9,10.1,2.9c10,0,11.7-6.8,11.6-9.7c-0.1-7.3-7.1-9.8-13.5-9.8h-3.2V171h3.4c5.2,0,11.5-2.6,11.5-8.4
										c0-3.6-2.1-7.6-8.9-7.6c-3.3,0.1-6.5,1.2-9.1,3.2l-1.3-2.3c3.1-2.3,6.9-3.5,10.8-3.6c8.9,0,11.9,5.4,11.9,9.9
										c0,4.3-2.9,8.1-8.3,10v0.1c5.8,1.1,10.2,5.4,10.2,11.1c0,6-4.6,12.6-15.4,12.6c-3.9,0.1-7.7-1-11-3.1L1789.9,190.4
										L1789.9,190.4z"/>
									<path id="Shape_00000119813027173239224490000012561851246862461345_" class="st5" d="M1845.4,275.4v-2l4.1-3.8
										c14-13,18.6-17.8,18.6-24.4c0-4.6-2-9.8-10.1-9.8c-3.7,0.1-7.2,1.5-9.9,4l-1.3-2.1c3.2-3,7.5-4.6,11.9-4.7
										c9.8,0,12.7,7.3,12.7,11.8c0,8.4-6.2,14.4-18.5,25.7l-3,2.7v0.1h22.7v2.7L1845.4,275.4L1845.4,275.4z"/>
									<path id="Shape_00000076566567186862496450000007715465882490872491_" class="st5" d="M1899.8,275.6v-12.3h-22.2v-2.1
										l22.8-27.7h2.5v27.2h7v2.7h-7v12.3H1899.8L1899.8,275.6z M1899.8,260.6v-18c0-1.6,0-3.2,0.1-4.7l-0.2-0.1
										c-0.9,1.4-1.9,2.8-3,4.2l-15.3,18.6v0.1L1899.8,260.6L1899.8,260.6z"/>
									<text transform="matrix(1 0 0 1 615.3983 559.4818)" class="st6 st7 st8">LEFT</text>
									<text transform="matrix(1 0 0 1 1219.7659 563.2581)" class="st6 st7 st8">RIGHT</text>
								</g>
							</g>
						</g>
					</g>
				</g>
			</g>
		</g>
	</g>
</g>
</svg>
