<?xml version="1.0" encoding="utf-8"?>
<!-- Generator: Adobe Illustrator 25.4.1, SVG Export Plug-In . SVG Version: 6.00 Build 0)  -->
<svg version="1.1" id="Layer_1" xmlns="http://www.w3.org/2000/svg" xmlns:xlink="http://www.w3.org/1999/xlink" x="0px" y="0px"
	 viewBox="0 0 782.4 1098.5" style="enable-background:new 0 0 782.4 1098.5;" xml:space="preserve">
<style type="text/css">
	.st0{fill:none;}
	.st1{fill:none;stroke:#849099;stroke-width:5;stroke-miterlimit:10;}
	.st2{fill-rule:evenodd;clip-rule:evenodd;fill:#FFFFFF;}
</style>
<g id="_x32_sleeve_x5F_life_00000018943141870033162000000007647101247550529679_" transform="translate(2.5 2.5)">
	<g>
		<g>
			<rect x="-667.9" y="48.1" class="st0" width="1997" height="739"/>
			<g>
				<g id="_x32_sleeve_x5F_life" transform="translate(1.5 1.5)">
					<path id="Background_00000173882592321222343150000004246985885810807994_" class="st0" d="M-667.9,48.1h1993.5v735.3H-667.9
						V48.1L-667.9,48.1z"/>
					<g id="Mask-group">
						<path id="path_1" class="st0" d="M-667.9,48.1h1993.5v735.3H-667.9V48.1L-667.9,48.1z"/>
						<g>
							<g>
								<rect x="-667.9" y="48.1" class="st0" width="1993.5" height="735.3"/>
								<g>
									<g id="Group_00000000189926838629087470000006083160569609914556_" transform="translate(0 0.9992676)">
										<g id="Group_00000134226524772218577470000006897781555532336316_" transform="translate(125.504395 226.67896)">
											<g>
												<path id="line4" class="st1" d="M-4.2,551.8c0.9,2.6,8.5,24.5-0.8,35c-10.6,12.1-36,0.8-47.4-6.3
													c-22.8-14.2-31.9-37.7-40-58.6c-4.9-12.6-17.3-48.5-13.8-97c1.1-15.5,3.1-39.6,15.5-67.4c8.6-19.2,22.8-51.1,48.9-59.1
													c19.6-6,28.6,6.8,60.6,15.2c20.3,5.3,62.3,11.6,97.6-5c43.7-20.6,45.9-118.5,31.1-152.9c-14.8-34.3-19,0.2-19,0.2
													s-4.1,24.3-18.6,31.8c-14.5,7.5-26.2,0.7-26.2,0.7s-22.7,4-2.7,11.1c20,7.1,22.5,33.9,12.3,59.6
													c-10.3,25.7-30.3,28.3-57.7,25.6c-27.4-2.7-9.5-21.8-4.7-34.3c4.8-12.6,0.3-19.9-9.8-26.3c-10-6.4-8.7-18.9-8.6-26.1
													c0.2-10.2,6.9-14.1,20-30.2c13.2-16.1,8.3,2.9,38.4,6.7c7,0.9,13.2-0.9,16.5-2.2c16.3-6.4,14.5-30.5,27.9-48.1
													c16.1-21.3,49.6-27,75.3-18.9c34.7,11,47.6,44.8,49.9,51.2c9.6,26.9,3.7,51.6,0.3,64.8C226.2,280,175,330,118.1,345.8
													c-17.6,4.9-70.1,19.5-109.8-7.9c-12.6-8.7-21.4-19.8-35.4-18c-19,2.5-31,26.8-41.7,48.3c-8.4,16.9-29.7,61.5-20.2,115
													c2.8,15.7,5.6,29.8,16.7,41.6c17.2,18.2,42.8,18.5,56.3,16.8C4,539,2.7,524.6,9.1,571.5c6.4,46.9,58.1,89.6,58.1,89.6
													c64,48.5,139.7,101,230.6,135.6c1.8,0.7,14.9,5,41.6,14.5c20.5,7.3,70.8,18.7,90.6,25.7"/>
											</g>
										</g>
										<g id="Group_00000075866265679758455820000008888214103267662267_" transform="translate(88.02878 190.81372)">
											<path id="line3" class="st1" d="M38.6,546.7c-5.7,2.7-45.8,20.8-67.9,1.9C-60.3,522-36.9,438.7-2,418.7
												c3.8-2.2,17.3-9.8,26-3.8c8.8,6.1,6.9,22.2,6.4,23.5c-6.6,17.9-43.8,44-22,75.9c21.8,31.8,45.7-50.1,50.2-68.4
												c9.3-37.4,20.6,7.1,22.9,38.4c2.3,31.3,14.7-17.8,22.9-45.1c8.2-27.4,14.4-13.3,19.6,18.6c5.2,31.9,22.6-3.4,22.6-3.4
												s0.2-32.1,4.8-55.7c4.5-23.6,17.4,5.3,23.7,34.1c6.3,28.9,19.9-7.8,18.6-41.4c-1.2-33.7,23.2-12.9,23.2-12.9
												s0,0,8.3,14.5c8.3,14.5,20.7-3,16.1-38c-4.6-35,15.1-31.2,33.4-14.9c18.2,16.4,16.6-30.9,9.2-51c-7.4-20.1,27-4.5,27-4.5
												c32.1-6.7,5.9-36.8-11.9-46c-17.8-9.2-8.8-12.6,26.5-27.1c35.4-14.4-7-28.4-31.2-25.9c-24.2,2.4,3.1-28.4,15.4-33.7
												c12.3-5.4,13.1-35.1,1.8-36.6c-11.4-1.5-10.3,23.3-34.3,34.1c-24,10.8-1.8-17.1,2-36.8c4.4-23-5.1-51.5-16.2-49.2
												c-11.1,2.4-14.4,56.6-28.2,66.8c-13.8,10.2-9.1-17.6-9.1-17.6s3.7-29.6-10.4-65.6c-10.2-26-13.4,40.8-16.7,62.4
												c-9,59-19.2-30.6-20.1-64c-0.9-30.2-25.2,35-12.9,57c17.6,31.7-9.2,18.6-20.1,2.6c-6.5-9.6-17.4-20.8-29.7-18
												c-24.3,5.6-16.9,34.6-16.9,34.6s46.7-23.7,47.4,16.3c0.6,40-28.5,46.6-28.5,46.6S61.1,194.8,60.9,131
												c-0.2-63.7,65-90.4,94.1-99.6s95.5-19.7,174.1,86.7s13.7,175.6-22.8,233c-36.5,57.3-154,128.6-219.3,190.7
												s39.3,144.5,39.3,144.5c60.9,53.1,128.4,104.1,222.4,143c18.8,7.8,50.7,16.2,50.7,16.2c27.4,9.4,54.2,14.8,70.4,20"/>
										</g>
										<g id="Group_00000070107786505726322510000003224126692874718111_" transform="translate(60.180176 156.18726)">
											<path id="line2" class="st1" d="M0.7,335c0.2,5.2-2,7.3-9.4,5.9c-7.4-1.4-7.1-16.4,0.8-25.8c7.8-9.4,23.2-3,54.1,11.9
												c30.9,14.9,30.1,0.6,14.2-27.5c-15.9-28.1-1.2-40.1,12.1-56.8c13.3-16.7-5.1-13.8-19.2-8.2c-14.1,5.6-29.9,1.3-35.1-5.5
												c-5.2-6.8,2.5-22,15.2-11.2c12.8,10.8,18.3,0.3,26.3-7.2c8-7.5,8.7-17.6,1.4-66C53.7,96.3,71.8,67,126.3,8.6
												s162.1-25.5,218.1,31.6s67.7,126.2,69,212C414.7,338,313,432.3,288.6,454c-24.3,21.7-113.9,86.8-157.4,143.4
												s43.3,113.8,43.3,113.8c29.8,24.5,63.4,49.8,100.9,74.8c44.7,29.8,78.1,52.4,125.9,73.2c39.5,17.3,74.1,27.1,98.7,32.8"
												/>
										</g>
										<g id="Group_00000110458277761671899500000005884827711270769848_" transform="translate(57.83008 123.53888)">
											<path id="line1" class="st1" d="M449.2,414.1c24.6-29.3,31.5-56.4,38-75.1c12.7-36.3,19.1-54.5,20.4-66.4
												c0.8-7.1,2.6-28,8.9-28.8c8.7-1.1,1.3,19-0.4,33.2c-5.7,49-29.1,103.9-54.7,140.1c-3.3,4.7-15,14-9.8,17.8
												c5.2,3.8,11.5-5.7,19.4-12.1c0,0,22.6-37.5,36.8-68.2c14.2-30.7,26.1-86.3,30.3-114.5c4.2-28.1,17-6.6,10.1,15.4
												c-1.8,21.5-10.6,55.2-22.6,87c-12,31.8-37.2,79.7-46.4,99.8c-9.2,20.1,11.7-2.3,13.2-3.9c1.5-1.6,28.5-49.8,47.4-95.7
												c18.9-45.9,27.5-121.4,28.3-163.1c0.9-41.6,13-23.5,13.6-5.8c0.6,17.7,3.1,61.1-10.6,123.4s-62.5,149.4-89,185.5
												c-26.5,36.1,7,9.7,7,9.7s22.6-31,35.3-51.1c12.7-20.1,52.6-110.2,63.5-142.2c10.9-32,13.2-118.4,8.2-138.6
												c-5-20.3,7.2-33.6,13.2-20.5c6,13.2,10.9,11.8,7.4,83c-3.7,74.6-28,133.5-55.6,193.8c-27.6,60.3-69.5,105.6-92.8,131.4
												c-23.3,25.7,8,8,8,8s13.6-12.2,39.2-37.5c25.6-25.3,74.8-120.7,103.3-191.8s27.2-141.2,16.5-175.6
												c-6.9-22.1,1.4-30.4,11-26.6c8.8,3.5,14.3,58.4,9.7,125.7c-4.6,67.3-29.7,130-70.6,210.3
												c-40.9,80.3-98.9,132.1-122.7,160.4c-23.8,28.2,12.6,2.4,12.6,2.4S524.8,576,567,523c42.2-53,87.6-162.6,106.7-234.2
												S664,110,648.5,73.6s5.7-27.6,5.7-27.6s6.9,11.4,28.2,83c36.3,122.3-11.7,238.8-37.9,299.5
												c-17.3,39.9-81.4,182.9-225.9,263.9c-36.9,20.7-146.8,82.3-207.3,33.1c-17.8-14.5-36-42.4-32.8-71.8
												c5.3-47.9,63.6-63.5,135.7-120.2c28-22,99.5-78.1,138.4-159.5c38.2-79.9,53.3-201.3-1.4-304.8
												C409.2-10.4,335.5-61.1,268.1-75c-25.3-5.2-47.9-4.9-53.7-4.8c-16.6,0.4-83,3.7-137.3,44
												c-86.3,64-120.4,205.4-89.8,232.7c14.6,13,50.7,3.5,58.7-15.1c5-11.6-0.1-28.7-9.3-38.4C24.7,130.8,12,137.5,4.2,126
												c-9.7-14-2.4-41.2,5.8-43.3c8.2-2.2,23.9,19.3,30.6,28.5c2.8,3.8,4.1,6,5.4,5.6c4.6-1.4-1.6-32.2,0.8-75.2
												C47.9,19.8,49.6-5.8,61-10.2c3.5-1.4,8.7-1,11.5,2.2c7.9,9.3-13.6,31.1-8.2,55.8C67.6,62.3,79.3,74.1,84.5,72
												c6.8-2.7-0.6-27.6,6.4-68.8c1.6-9.2,8.3-48.6,20.7-50c4.9-0.6,10.5,4.9,12.4,10.7c4.8,14.1-12.9,25.2-10.3,43.7
												c1.4,10,8.5,19.8,13.6,19c7.6-1.2,5.2-24.4,19.2-53.8c9.9-20.8,26.9-42.5,34.6-39.5c4.1,1.6,6,10.2,4.5,16.6
												c-2.4,10.2-12.7,11.9-20.4,27.8c-1.7,3.4-2.3,5.6-2.6,7.5c-1.5,8.3,1.2,19.4,5.5,20.6c8.3,2.3,15.6-33.9,48.3-60.1
												c1.6-1.3,26.4-20.8,34.1-13.9c3.9,3.5,2,12.2,1.7,13.3c-4,17.6-25.1,17.7-32.6,37.5c-2.6,7-3.8,17-0.5,19.1
												c5.7,3.6,20.3-17.9,54.4-41.8c17.8-12.5,27.7-16.4,34.5-12.4c3,1.8,6.4,5.7,5.9,9.5c-1.2,8.3-20.1,5.9-34.4,19.3
												c-12,11.2-17.6,30.6-13.4,34.4c8,7.5,47.5-48.1,81.4-37.1c9.2,3,19.9,11.5,18.8,17.5c-1.1,5.8-13.4,8.6-15.4,9.1
												c-8.6,1.9-10.6-0.8-18,0.3c-11.3,1.6-24.5,10.7-25.4,21c-0.3,4,1,9.7,5.2,13c11.3,9.1,38.7-3.7,65.9-16.5
												c3.8-1.8,12.2-5.8,19.6-2.3c4.1,1.9,8.7,6.5,8.1,10.9c-0.7,4.8-7.2,5.8-25.1,15c-12.7,6.6-18.3,10.7-22,17.5
												c-1.8,3.3-4.2,7.8-2.8,10c4.8,7,40.3-27.2,65.3-15.5c11.4,5.3,18.5,19.2,15.8,24.3c-2.1,4.2-9.8,1-27.6,5.8
												c-11.3,3.1-14.9,6.2-17,8.8c-3.1,3.6-8,11.8-5.7,16.5c5,10.1,36.7-11.2,61.6,3.5c13.3,7.8,20.9,23.8,17.8,28.9
												c-3.6,5.8-18.9-5.5-35.8,2.8c-9.4,4.6-18.6,15-17,21.7c1.6,6.5,12.3,5.4,38.8,16.8c9.6,4.2,12.9,6.3,15.9,9.4
												c9.4,9.7,14,26.1,9.5,30.5c-0.9,0.9-3.3,2.4-26.4-7.3c-17.9-7.6-24.3-11.8-27.8-8.7c-3.4,3-2,11-0.4,15.6
												c4.2,12.5,14.1,13.4,28.5,26.6c9.3,8.5,22.8,24.5,19.2,31.6c-2.2,4.2-10.4,5.3-15.8,4.4c-3-0.5-4.7-1.5-7.1-2.7
												c-4.8-2.4-20.1-9.8-25.1-5.3c-4.8,4.3,0.7,19.3,1.2,20.6c5.7,15.3,14.7,15.2,22.5,32c6.1,13.2,4.2,21.1,3.7,23
												c-1.6,5.6-5.7,12.5-9.3,12.1c-5-0.5-3.5-13.8-13.4-22.9c-5-4.7-12.9-8.1-15.1-5.7c-4.8,5.1,21,29.9,14.3,54.6
												c-0.3,0.9-2.9,10.2-7,10.6c-6.9,0.7-10.2-23.6-20.2-24.2c-3.8-0.2-7.8,3.1-9.8,6.5c-6.6,11.2,8.4,23.6,5.8,45.5
												c-1.5,12.4-8.2,23.9-12.2,23.6c-4.5-0.4-7.5-15.5-8.3-19.2c-1.7-8.2-1.1-12.6-3.4-13.6c-2.9-1.3-8.8,3.8-12.1,9.7
												c-9.7,17.4,7.4,34.9-1.9,54.2c-2.8,5.9-8.6,13-13.4,12.2c-9.3-1.4-8.5-30.1-16.3-30.9c-6.4-0.6-13.7,18.2-15.4,22.7
												c-6.9,17.7-5.1,28.8-15,42.7c-1.3,1.8-5.6,7.8-8.1,6.8c-4.1-1.7,2.4-20.4-5-26.2c-2.7-2.2-7.1-2.5-10.3-0.8
												c-12.1,6.3-5.5,39.3-13.2,41.9c-6,2-13.1-16.6-19.3-14.8c-5.2,1.5-6.8,16.3-7,32c-2,2.6-5.2,5.9-8.8,5.7
												c-4.8-0.2-6.1-6.4-10.3-8.5c-9.3-4.5-26.4,14.8-31.3,20.5c-16.3,18.8-28.6,32.9-32.6,53.2c-6.2,32.3,11,68.3,42.4,91.1
												c38.2,35,72.3,61.6,98.1,80.4c40,29.1,75.1,54.4,126,77c34.7,15.4,64.9,24.2,85.7,29.4"/>
										</g>
										<g id="numbers" transform="translate(0 22.000732)">
											<path id="Shape" class="st2" d="M627.7,504.3L627.7,504.3l-7,4l-0.8-2.6l7.8-4.5h3.1v42.1h-3.1V504.3L627.7,504.3z"/>
											<path id="Shape_00000145052908091468381840000015134195977565344393_" class="st2" d="M93.1,422.8v-2l4.1-3.9
												c14-13,18.6-17.8,18.6-24.4c0-4.6-2-9.8-10.1-9.8c-3.7,0.1-7.2,1.5-9.9,4l-1.3-2.2c3.2-2.9,7.5-4.6,11.9-4.6
												c9.8,0,12.7,7.3,12.7,11.8c0,8.4-6.2,14.4-18.5,25.7l-3,2.7v0.1h22.7v2.7L93.1,422.8L93.1,422.8z"/>
											<path id="Shape_00000181046103771480488860000002634654408034528944_" class="st2" d="M288.6,231.8
												c3,1.9,6.5,2.9,10.1,2.9c10,0,11.7-6.8,11.6-9.7c-0.1-7.3-7.1-9.9-13.5-9.9h-3.2v-2.7h3.4c5.2,0,11.5-2.6,11.5-8.4
												c0-3.6-2.1-7.6-8.9-7.6c-3.3,0.1-6.5,1.2-9.1,3.2l-1.3-2.3c3.1-2.3,6.9-3.5,10.8-3.6c8.9,0,11.9,5.4,11.9,9.9
												c0,4.3-2.9,8.1-8.3,10v0.1c5.8,1.1,10.2,5.4,10.2,11.1c0,6-4.6,12.6-15.3,12.6c-3.9,0.1-7.7-1-11-3.1L288.6,231.8
												L288.6,231.8z"/>
											<path id="Shape_00000173841780045150370120000015133689116579749045_" class="st2" d="M309.3,458.6v-12.3h-22.2v-2.2
												l22.8-27.7h2.5v27.2h7v2.7h-7v12.3H309.3L309.3,458.6z M309.3,443.6v-18c0-1.6,0-3.2,0.1-4.7l-0.2-0.1
												c-0.9,1.4-1.9,2.8-3,4.2l-15.3,18.6v0.1L309.3,443.6L309.3,443.6z"/>
										</g>
									</g>
								</g>
							</g>
						</g>
					</g>
				</g>
			</g>
		</g>
	</g>
</g>
</svg>
