<svg id="Layer_1" data-name="Layer 1" xmlns="http://www.w3.org/2000/svg" viewBox="0 0 163.67 253.07"><defs><style>.cls-1{fill:#009eff;}.cls-2{fill:#d99e76;}.cls-3{fill:#e5ded2;}</style></defs><path class="cls-1" d="M371.55,591.26c.54-.3,1.08-.61,1.63-.89.26-.14.68-.39.78-.3.43.35,1.12.88,1.05,1.23-.57,3-1.29,6-2,9.05-.7.23-1.05.75-.68,1.26s.93.25,1.31-.4c1.56-2.36,3.1-4.74,4.69-7.07.12-.19.75-.3.84-.19.33.4.79.94.73,1.36a12,12,0,0,1-.81,2.73c-.82,2.08-1.76,4.11-2.49,6.22a12.2,12.2,0,0,0-.3,2.8l0,0c-2-.6-4.21,2.29-6.11-.35a1.11,1.11,0,0,0-1.71-.22c-1,.79-1.89,1.68-2.85,2.5a3.91,3.91,0,0,1-1.52,1,1.94,1.94,0,0,1-1.49-.64c-2-2.47-2-2.48-4.23-.82-.52.38-1,.81-1.51,1.17-.95.66-1.67.25-2.44-.44-.39-.34-1.39-.66-1.55-.48-2.12,2.32-5.49,1.78-7.79,3.42-2.05,1.46-4.12,1.31-6.34,1.11-.26,0-.55.3-.82.46.21.19.39.48.63.54,1.23.29,2.47.53,3.71.76a6.76,6.76,0,0,1,4.53,3.18c1.11,1.59,1.43,1.45,3.93-.11,1.81-1.13,2.11-1.05,2.62.73.17.62.22,1.26.39,1.88a5.84,5.84,0,0,0,.66,1.78,3.51,3.51,0,0,0,1.35,1c.08,0,.51-.39.63-.66.72-1.74.57-3.87,2.26-5.15a2.91,2.91,0,0,1,1.56-.41c.15,0,.46.47.49.74.1,1,.09,1.91.17,2.87a1.84,1.84,0,0,0,.29.88c.32.51.83.45,1.43-.15s1.32-1.39,2-2c1.37-1.18,3-.63,3.37,1.52a6,6,0,0,0,.18.94c.51,1.49.53,1.49,1.7.37,2.24-2.15,2.27-2.18,4.2-.54.61.52,1,.72,1.48.27s.89-1,1.42-1.15a1.82,1.82,0,0,1,1.63.48,10.51,10.51,0,0,1,.72,2.71c.13.61.2,1.24.32,2,1.33.2.91-1,1.16-1.56.4-.86.59-1.82.91-2.73a4.51,4.51,0,0,1,2.47-2.75,1.51,1.51,0,0,1,.92-.19.93.93,0,0,1,.4.75c-.12,2.21-.4,4.42-.4,6.63,0,1.7,1.07.81,1.91.61a1.79,1.79,0,0,1,1.5.43,3.3,3.3,0,0,1,.46,1.81,2.14,2.14,0,0,0,2.21,2.42c1.92.23,1.88.37,2.05,2.14a27,27,0,0,0,.42,2.8,1,1,0,0,0,.84.12c1.64-1,2.18-.46,2.07,1.32a2.58,2.58,0,0,0,.44,1.76c.23.24,1.07,0,1.61-.16.74-.2,1.31-.05,1.4.63a8.31,8.31,0,0,0,1.87,4.15c5,6.35,6.23,14,5.56,21.71a27.61,27.61,0,0,1-5.21,13.24c-2.54,3.67-5,7.37-7.67,11a8.13,8.13,0,0,1-2.95,2.37c-3.41,1.68-7.09,2.71-10.28,5-1.71,1.23-4.18,1.44-6.33,2-5.23,1.32-10.57,2.16-15.72,3.91a37.48,37.48,0,0,0-7.77,3.51c-1.62,1-2.94,2.27-5,2.39a2.09,2.09,0,0,0-1.48,1c-.86,1.77-3.46,1.56-4,3.79-.56,2.41-3.59.6-4.64,2.41-.92,1.58-2.38,1.91-4.08,1.89-3.52,0-6.19-1.4-7.61-4.75-.85-2-1.42-4.24-3.61-5.35a6.48,6.48,0,0,0-1.48-4.19c-.72-.94,2.21-1.09,1.58-2.41s-1.45-2,.54-2.59a30.82,30.82,0,0,0,3.54-1.43c.27-.12.6-.45.61-.7s-.37-.52-.63-.64c-.58-.25-1.23-.35-1.81-.61-1.33-.61-1.64-1.16-.74-1.94a5.62,5.62,0,0,0,1.78-3.22c.22-.91.92-1.72,1.06-2.63.44-2.87,2.72-5.08,3-7.85.28-2.46-.35-5-.49-7.54,0-.61.37-1.22.42-1.85s-1.32-1.68-2.12-1.45-1.81.61-2.72.9c-2.7.86-2.7.86-3.81-2-.12-.29-.23-.58-.36-.86a1.51,1.51,0,0,0-2.43-.07,36.28,36.28,0,0,1-1.68,3.29,5.56,5.56,0,0,1-2.26,1.49c-.89.4-1.52-.35-1.23-1.62.23-1,.3-1.83-.64-2.46-.66-.44-1.91-.35-1.67-1.59.11-.59.73-1,1-1.63.48-1.15.21-2.08-.7-2.38s-1.87-.41-2.79-.69c-1.1-.33-1.23-.87-.52-2,.17-.27.5-.44.65-.7,1.14-2,1.06-2.4-.86-3.82-.5-.38-1.25-.56-1.55-1-1.14-1.84-1.59-4-3.5-5.47a20.49,20.49,0,0,1-3.59-4.38c-1.3-1.78-2.51-3.62-3.73-5.46a15.11,15.11,0,0,1-.87-1.7l.29-6c3.57-2,3.11-5.23,2.39-8.34a96.79,96.79,0,0,1-2.14-11.26c-.93-8.31,1.51-15.81,4.75-23.18a70,70,0,0,1,14.76-21.08c18.2-18.3,40.08-28,66.09-28.06,5.12,0,10.2.34,15.3.76,12.32,1,22.72,6.33,31.95,14a74.86,74.86,0,0,1,20.18,26.43c6.88,14.81,9.45,30.35,10,46.46.52,14.52-2,28.66-4.92,42.74-1,4.66-2.8,9.14-4.26,13.76-2.17-.41-3.48-2.35-5.6-2.7-.87-.14-.83-1.66.05-2.29,1.3-.91,2.66-1.73,3.91-2.7.14-.11-.13-1.09-.46-1.39a16.88,16.88,0,0,0-2.3-1.56,23.85,23.85,0,0,1,1.9-2c2.09-1.71,2.11-1.69.28-3-.25-.18-.61-.24-.83-.45a1,1,0,0,1-.09-1.64,27.62,27.62,0,0,0,2-2,1.64,1.64,0,0,0-.18-2.47,3.54,3.54,0,0,1-2.15-3.75c.14-2.29.36-4.4,1.9-6.26,1.13-1.37-.08-2.19-1-3.1a1.92,1.92,0,0,1-.15-1.64c.42-1.18,1-2.29,1.57-3.43l-.07,0,.88-.3-.17-.79q-.42-.81-.87-1.59c.46-.83.93-1.64,1.36-2.49a1.76,1.76,0,0,0-.36-2.45c-.9-.71-.78-1.56-.34-2.48s.75-1.71,1.12-2.57l-1.86-7c-1.15-.85-1.53-1.88-.69-3.16s1.31-2.88.35-4.41c-.6-1-.11-1.8.15-2.68s.56-1.86-.31-2.6A4.27,4.27,0,0,1,444,606.5a2.21,2.21,0,0,0-1.11-2.38c-1.42-.84-1.19-1.93-.65-3.2.37-.85.54-1.78-.5-2.43-1.21-.76-1.34-1.83-1.23-3.23s-2-6-2.92-6.28c-1.67-.4-1.94-1.25-1.44-2.6.33-.87,1-1.62,1.3-2.49s-.14-1.18-1.05-.94l-1.83.43c-.23-.33-.46-.66-.7-1,.2-1.24.45-2.47.6-3.72a1.41,1.41,0,0,0-1.9-1.33,12.45,12.45,0,0,0-1.55,1c-.26.15-.8.32-.86.23-.31-.43-.73-1-.68-1.44a22.12,22.12,0,0,1,.69-2.72c.29-1.29-.19-2.37-.8-2s-.78.89-1.23,1.28a13.93,13.93,0,0,1-1.39,1c-.3-.46-.85-.92-.83-1.36,0-1.56.36-3.12.4-4.68,0-1.21-1-1.18-1.88-1.32-2.37-.35-2.8-.86-2.67-2.87.1-1.56.41-3.1.63-4.64.87.06,1.74.16,2.62.15.2,0,.4-.33.6-.52-.41-.36-.79-1-1.23-1a1.86,1.86,0,0,0-2,1.44c-3.08-.29-3.08-.29-4.29,2.07-1,1.88-1.2,2-2.61.85a15.59,15.59,0,0,0-3-2.22c-.76-.33-1.82,0-2.74,0a15.64,15.64,0,0,0,.14,1.68c.19.93.41,1.86.67,2.78s1.13,1.33,2.13,1.34a2.49,2.49,0,0,1,2.72,2.1c.36,2,.79,3.73,3.21,4.1a2,2,0,0,1,1.45,1c.63,2.57,3,4.07,3.84,6.47.53,1.49,1.38,2.86,2.05,4.29,1.46,3.14,3.91,5.67,4.86,9.19,2.8,10.31,3.95,15.52,4.68,23,.27,2.81,1.18,5.57,1.34,8.37.23,4,2.75,8-.15,11.9a1.18,1.18,0,0,0-.07.91c1.23,4.33-.38,8.72.27,13.06q.5.69,1,1.35a17.69,17.69,0,0,0-.37,2.77,6.23,6.23,0,0,0,.58,1.79c.57,1.67-3.27,4,.82,5.18.16,0,.32.61.25.87-.51,2.13-.78,4.35-1.33,6.41-.6,2.23-2.94,4-1.62,6.74a14.1,14.1,0,0,0-2.22,3c-.55,1.41.46,3.08-.49,4.57a9.56,9.56,0,0,0-1.63,3.35,11.24,11.24,0,0,1-2,4.19,13.42,13.42,0,0,0-1.23,3.53,2.21,2.21,0,0,0,1.7,2.83,20.72,20.72,0,0,0,2.84.06c1.55-.07,1.9-.88,1.09-2.45-.28-.55-.65-1.06-.9-1.62s0-1.19.64-1.59c3.19-1.91,6-1.19,8.56,1.23l-.07-.07a51.79,51.79,0,0,1-4.77,12.4c-9.09,17.32-20.57,33-33.37,47.65-5.43,6.24-10.46,12.85-16.66,18.43a167.26,167.26,0,0,1-17.29,13.57,19.24,19.24,0,0,1-5.06,2.64A150.69,150.69,0,0,1,349.79,792c-9,1.73-22.73-1.24-29.24-12a25.49,25.49,0,0,1-4-12.62c-.06-2.22.09-4.46.11-6.69,0-3.11-.37-3.39-4.05-3.2-.54,0-1.49-.19-1.59-.5-.56-1.76-.32-3.76-1.83-5.23-.59-.58-.32-1.18.47-1.52a8.55,8.55,0,0,0,2.56-1.22,6.69,6.69,0,0,0,2.1-3.07,28.58,28.58,0,0,0,.21-5.64c0-2,.11-2.07,2-1.63,2.25.51,2.53.57,2.87-.92.72-3.2,2.73-4.88,5.72-5.7.9-.25,2.05.6,1.64,1.38-1.26,2.41-.61,5-1,7.5-.55,3.74-.53,7.55-2.93,10.87-2,2.75-1.16,6.14-1.32,9.28-.08,1.57-.72,3.29.35,4.64,1.78,2.24,1.24,5.6,4,7.43a8.93,8.93,0,0,1,2.76,3.8,7.1,7.1,0,0,0,3.78,4c.87.39,1.15,2.06,1.75,3.13a1.5,1.5,0,0,0,2.38.13c.6-1.11,1.08-2.29,1.66-3.41.13-.26.46-.42.71-.63.16.27.48.53.47.79,0,1.58-.18,3.15-.22,4.73,0,.25.35.72.53.71.52,0,1.26,0,1.51-.39a22.66,22.66,0,0,0,1.92-3.26c2.88-5.64,5.33-11.5,9.43-16.45a7.87,7.87,0,0,0,1.83-5.32l.06-.06c.53.26,1.07.5,1.58.79,1.45.83,1.44.84.87,2.78-.16.57-.34,1.13-.5,1.69-.85.39-2.09.55-2.5,1.21a165,165,0,0,0-8.83,16.75,3.55,3.55,0,0,0-.23.92,2.19,2.19,0,0,0,0,.95c.18.55.33,1.31.75,1.55a1.88,1.88,0,0,0,1.71-.13c1.57-1.31,2.56-3.77,5.38-2,.52.34,1.91-.09,2.54-.61,2.64-2.11,3.65-5.08,3.94-8.35.6.1,1.38,0,1.76.34.83.74.38,1.66-.15,2.39s-1.32,1.36-1.77,2.15a2.82,2.82,0,0,0-.08,1.8,2.56,2.56,0,0,0,.86,1.58,1.88,1.88,0,0,0,1.73-.09c1.2-1,2.07-2.55,3.4-3.15,1.61-.74,3.61-.57,5.35-1.1.76-.23,1.27-1.24,1.89-1.89,3.72-2.39,7.51-4.67,11.13-7.21a18.34,18.34,0,0,0,4-4c5.33-7.17,11.58-13.51,17.67-20a90.92,90.92,0,0,0,6.51-8.21,7.81,7.81,0,0,0,.89-2.66,1,1,0,0,0-.24-.85c-.46-.29-1.2-.74-1.49-.56-1.61,1-3,2.42-4.71,3.09a6,6,0,0,0-3.85,3.82,8.06,8.06,0,0,1-1.53,2.38c-5.92,7.11-12.83,13.22-19.58,19.5a4.05,4.05,0,0,1-3.53,1l-.26-.36c-1.71-2.72-2.4-2.57-4-.84-1.87,2-3.53,4.2-5.28,6.32-.9,0-1.91,0-2-1.24-.07-.61.33-1.26.26-1.86a2.06,2.06,0,0,0-.82-1.45,1.67,1.67,0,0,0-1.59.3c-2.12,2.77-4.13,5.61-6.18,8.43-1.93-.79-2-.8-1.33-2.24s1.22-2.58,1.83-3.87c2.59-3.21,5.16-6.45,7.82-9.6.23-.27,1.08-.09,1.62,0,.15,0,.36.53.3.77-.19.93-.51,1.83-.71,2.75-.06.24.1.71.26.77.54.17,1.4.49,1.65.25a53.76,53.76,0,0,0,4.53-4.9,3.46,3.46,0,0,0,.79-2.5c-.29-1.31-1.47-.49-2.31-.5a5.46,5.46,0,0,1-1.75-.31.92.92,0,0,1-.3-.85,39.72,39.72,0,0,1,2.79-3.79,6.69,6.69,0,0,0,1.61-5.3c-.19-2.09-.5-2.54-2.93-3-.61-.11-1.24-.15-1.84-.31-.22-.06-.57-.48-.53-.54.31-.52.6-1.21,1.08-1.43a8.7,8.7,0,0,1,2.73-.63c.93-.09,1.88.11,2.81,0s3.1-1.79,2.78-2.14a11.76,11.76,0,0,0-2.28-1.52c-1.31-.86-1.25-2,.14-2.89s2.66-1.69,4.39-.94c1.93.84,3.77.27,5.45-.74a1.56,1.56,0,0,0,.49-1.46c-.34-.85-1.19-1.53-.45-2.56a4.24,4.24,0,0,1,3.26-1.7c.69-.06,1.09.27,1.31,1,.3,1,1.12,1.7,2.1,1.36,5.37-1.89,11.18-2.52,16.06-5.8.74-.5,1.85-.43,2.76-.71a2.34,2.34,0,0,0,1.7-2c.14-1-.94-1.54-2.9-1.55-.92,0-1.83,0-2.74-.09-.18,0-.45-.49-.43-.73a1,1,0,0,1,.51-.77,3.89,3.89,0,0,1,3.65.19c1.91,1.12,3.66.6,5.46-.15,2.36-1,2.5-1.6.91-4-.91-1.38-.76-2.7.69-2.94,3.59-.59,5.25-3.51,7.31-5.81.91-1,.83-3,1.13-4.5a.94.94,0,0,0-.49-.77,2.61,2.61,0,0,0-1.67-.25,5.28,5.28,0,0,0-2.26,1.65,16.62,16.62,0,0,1-6.38,5.62c-2,1-3.69,2.53-5.67,3.51a23.59,23.59,0,0,1-4.56,1.25L405,708l.93-3.23-.06,0c1.88,0,3.9.45,5.09-1.68a5.53,5.53,0,0,1,3.41-3.1c1.44-.36,1.58-1.83,2-3a2.39,2.39,0,0,1,3-1.59,1.6,1.6,0,0,0,1.93-1.58c-.45-4.43,3.4-7.45,3.65-11.61,1.92-2.36,2.82-4.94,1.65-7.95,1.93-2.74.67-6.08,1.69-9,.05-.15-.28-.5-.51-.68-.52-.41-1.09-.26-1.52.42a2.94,2.94,0,0,0-.18.91c-.79,4.08-1.65,8.14-2.36,12.23a15.32,15.32,0,0,1-3.37,6.79,2.71,2.71,0,0,1-1.57,1,2.19,2.19,0,0,1-1.67-.52c-.36-.37-.64-1.48-.48-1.59a4.14,4.14,0,0,0,1.86-5c-.06-.2.18-.57.39-.74.94-.78,2.5-1,2.49-2.61s-1.51-1.81-2.48-2.51c-.64-.46-.81-1.08-.16-1.56a23.91,23.91,0,0,1,2.53-1.27c1.3-.73,1.34-1.92.13-3-.23-.21-.56-.32-.8-.52-1.69-1.37-1.69-1.36.26-2.13.57-.23,1.09-.56,1.63-.84a7.6,7.6,0,0,0-1.11-1.22c-1.69-1.27-1.7-1.25-.07-2.82,1.29-1.25,1.21-1.87-.43-2.81-.79-.45-2.16-.5-1.94-1.66.08-.45,1.58-.58,2.37-1a5.12,5.12,0,0,0,1.4-1.14,1.58,1.58,0,0,0,.2-.9c.08-.93.12-1.87.18-2.81.11-1.8-.06-2-1.92-2.61-.61-.18-1.25-.24-1.87-.4a2.08,2.08,0,0,1-.79-.36,3.92,3.92,0,0,1,.59-1.66,6.73,6.73,0,0,1,1.56-1.07c1.94-1.32,2-1.37.08-2.22-.8-.36-1.92-.4-2-1.47,0-.47.69-1,1.09-1.49.57-.69,1.31-1.31.79-2.35-2.26-4.43-1.62-4.42-1.55-9.38.07-4.73.67-10.1-3.91-13.72-.5-2.23-2-3.8-3.42-5.5-2-2.51-2.53-5-.13-7.75,1.27-1.44.82-2.87-.86-3.93a4.26,4.26,0,0,1-1.09-1.48c-1.91-3.36-2.4-3.42-5.13-.51a15.56,15.56,0,0,1-1.93,2,3.67,3.67,0,0,1-1.82.37c-.2,0-.6-.33-.6-.51,0-2.57-3.59-2.74-3.49-5.35.06-1.34-.25-2.59-1.69-3.06a2.39,2.39,0,0,1-1.79-2c-.32-3.49-5.2-2.42-5.7-5.75a5.29,5.29,0,0,0-1.79-.16c-.95,0-1.91.06-2.86.1l-.25-.25c0-1.23.48-2.66-1-3.34-2-.92-3.14-3.15-5.62-3.27-1-.05-1.46-.94-1.66-2s-.43-1.94-1.69-1.77a2.7,2.7,0,0,0-1.57.8c-.82.94-1.38,2.11-2.24,3s-1.82,1.48-3-.1c-.68-.91.46-1-.71-.47a10,10,0,0,0-5.44,4.74,4.44,4.44,0,0,0,.25,3.58c1,1.75,1.57,3.39.82,5.32-.32.83-.19,1.29.45,1.26a1.33,1.33,0,0,0,.72-.41c.9-.87,1.77-1.79,2.7-2.64.19-.17.79-.25.89-.13a3.32,3.32,0,0,1,.77,1.5,10.32,10.32,0,0,1-.3,1.85c-.05.61-.21,1.64.05,1.77,1,.49,1.52-.42,2.15-1a11.76,11.76,0,0,1,1.45-1.19c.25-.17.8-.33.87-.23a2.69,2.69,0,0,1,.79,1.45,16,16,0,0,1-.51,2.78,3.66,3.66,0,0,0-1.87,3,4.35,4.35,0,0,0,.49,1.63c.21-.15.51-.26.61-.46C370.57,593.5,371.05,592.38,371.55,591.26ZM393,737.8l-.36.52c.1-.19.21-.38.31-.58,1.18.11,2-.26,2.21-1.56.86.35,1.69.55,2.16-.55,0,0-.5-.47-.62-.41a13.6,13.6,0,0,0-1.53,1A2.57,2.57,0,0,0,393,737.8Zm.37,7.45c-1.63,1.07-1.88,1.75-.78,1.69.47,0,.91-.58,1.36-.9s1-.55,1.16-1C395.46,744.17,394.8,744.19,393.41,745.25ZM405.18,729a5.76,5.76,0,0,0-1.48.77,2.11,2.11,0,0,0-.43,1.22c0,.1.49.42.65.37.75-.26,1.46-.61,2.18-.93,1.32-.64,2.66-1.25,4-1.92a1.13,1.13,0,0,0,.35-.68c-.46-.33-1-.82-1.46-.85A4.53,4.53,0,0,0,405.18,729Zm-5.25-75.39q1,7.08,2,14.14a1.9,1.9,0,0,0,.31.84,4.9,4.9,0,0,0,.95.73,30.73,30.73,0,0,0,.89-5.75c-.12-3.76.2-7.73-3-10.67-.27-.52-.5-1-.8-1.53a3.19,3.19,0,0,0-.63-.58c-.23.47-.69,1-.64,1.4S399.62,653.17,399.93,653.64ZM411.5,549.28c-3.12-2.89-7-4.1-11-4.85-3.69-.68-7.4-1.26-11.12-1.69a74.16,74.16,0,0,0-8.43-.45c-.84,0-1.67.7-2.51,1.07-5.76-1.74-11.31-.34-16.83,1.21-.58.16-1.45.56-1.53,1-.48,2.73-2.38,2.41-4.32,2.25s-3.64-1-5.5-.08c-.5.24-.65.52-.13.95a31.11,31.11,0,0,0,3,2.22c.66.41.92.87.47,1.57-.11.17-.54.24-.8.22-3.48-.33-6.95-.69-10.42-1-.13,0-.4.47-.43.74s.21.46.38.63c.64.62,1.29,1.21,1.94,1.81a8.49,8.49,0,0,1-2.45,1.35c-1.86.32-3.77.31-5.65.56-.18,0-.44,1-.33,1.45a1.63,1.63,0,0,1-1,2.23,10.83,10.83,0,0,1-2.72.72c-1.89.18-3.87,0-5.49,1.19-.42.31-.89,1.35-.76,1.47,1.72,1.71.73,2.68-.85,3.52-2.24,1.19-4.48,2.37-6.75,3.52-.69.35-1.09.92-.64,1.55,1.05,1.47.28,2.29-.89,3-1.88,1.16-3.82,2.25-5.66,3.47-.44.3-1,1.21-.85,1.5,1.19,2.28-.14,3.47-1.76,4.62s-2.78,2.43-2.36,4.74c.32,1.74-1.64,2.62-2.16,4s-.42,3-.76,4.54c-.13.53-.73,1-1.15,1.42-1.27,1.4-2.64,2.72-3.81,4.2a1.73,1.73,0,0,0,.43,2.48c.83.66,1.32,1.3.82,2.36a20.09,20.09,0,0,0-1.51,3.44,1.93,1.93,0,0,0,1.36,2.18l.54.77c-1,2.38-1.75,4.73-.68,7.36s.55,5.62,2.2,8.2a50.08,50.08,0,0,0,25.24,20.75,2.69,2.69,0,0,0,.94.16c.63,0,1.27-.06,1.9-.09a17.33,17.33,0,0,0-.42-1.76c-.21-.59-.56-1.14-.77-1.74-.09-.28-.11-.81.05-.91a3.1,3.1,0,0,1,1.66-.7c.53,0,1,.7,1.53.92a6.52,6.52,0,0,0,1.61.22c.05-.55.36-1.33.11-1.64-2.23-2.67-4.47-5.33-6.89-7.83-1.56-1.61-1.34-4.18-3.37-5.56-.56-.39-.3-1.82-.67-2.66a13.44,13.44,0,0,0-1.56-2.24l-.35-.5c1.16-1,2.35-2,3.44-3.13a2.27,2.27,0,0,0,.77-1.53c0-.32-.9-.78-1.39-.77-1.57,0-3.14.22-4.7.34-.27-.28-.54-.56-.8-.85.18-1.59.09-2.93-1.74-3.73-.54-.25-.64-1.52-.94-2.32.47-.31,1.16-.53,1.37-1s-.16-1-.27-1.57a2.39,2.39,0,0,0-.79.28c-.45.37-.83.81-1.24,1.22-.74-.48-1.78-.81-2.14-1.49s0-1.87-.22-2.75c-1.12-4.23-1.81-8.42,0-12.66a2.49,2.49,0,0,0-.31-1.77c-.86-1.75-.3-3,1.28-3.86.82-.46,1.68-.84,2.54-1.22a10.66,10.66,0,0,0,1.74-.68c.45-.32,1-.87,1-1.34.05-1.22-1.2-1.15-1.94-1.57-.27-.38-.54-.74-.82-1.1,1.54-2.27,4.5-2.2,6.38-3.86.37-.33.71-1.3.51-1.57-1.28-1.71-.93-2.81,1-3.6,1.76-.72,3.45-1.43,3.87-3.7a4.8,4.8,0,0,1,3.09-3.35c1.13-.52,2.69-.9,3.2-1.82,1.39-2.5,3.55-3.36,6.05-4.13,1.07-.33,1.84-1.59,2.77-2.41.68-.61,1.41-1.72,2.1-1.69,2.86.08,4.58-1.65,6.55-3.27.86-.71,2.36-.78,3.58-.84a5.17,5.17,0,0,0,3.52-1.08c1.65-1.54,3.5-1,5.36-.71,1.08.14,1.45-.32,1.57-1.76,0-.31-.13-.63-.11-.94.11-1.41,1.13-2.41,2.22-2.21a6.86,6.86,0,0,1,1.84.41c1.1.59,2.11,1.36,3.2,2,.48.27,1.39.61,1.56.42.83-.91-.26-1.65-.45-2.49l1.48-1.32c2,1.44,3.92,2.9,5.9,4.32a1,1,0,0,0,.79.12.85.85,0,0,0,.21-1.48c-2-2.09-3.3-4.41-3-7.41,2.72.41,3.92,3.08,6.18,4.15a2.14,2.14,0,0,0,3.15-.9c.47-.84,1.36-1.45,2.32-.81,1.81,1.22,3.45,2.7,5.31,3.83a3,3,0,0,0,2.61,0c2-1.24,3.41-.79,4.88.86,1.61,1.81,1.7,1.61,4.31.37a7.5,7.5,0,0,1,2.67-.21c.69,2.08,1,4.36,2.75,5.91a1.85,1.85,0,0,0,1.6.44c.77-.48,1.28-1.39,2-1.9s1.78-.43,2.15-1.43c.22-.58-1.15-2.24-2.39-2.73C414.49,550.29,413,549.81,411.5,549.28ZM379.92,675a34,34,0,0,0-.26,3.61c0,.46.56.91.86,1.36.45-.31,1.12-.52,1.29-.94.91-2.16.28-4.31-.25-6.44-.06-.24-.37-.47-.62-.6a.65.65,0,0,0-.55.13C380.21,673,380.08,673.92,379.92,675Zm-1.85,69.75c.69-.34,1.48-.69,2.22-1.12a1.4,1.4,0,0,0,.48-.69c-.4-.37-1-1-1.27-.95a8,8,0,0,0-2.13,1.34c-.13.1-.11.54,0,.76S377.72,744.41,378.07,744.72ZM368.2,557.93c.27-.11.7-.16.79-.36a.84.84,0,0,0-.71-1.31.84.84,0,1,0-.08,1.67ZM382,757c-.19-.26-.34-.69-.54-.72a3,3,0,0,0-3,2.68c0,.36.64,1.11.94,1.09C381,759.9,381.89,758.74,382,757Zm3.26-19.07c.28,0,.62.16.85.06,1.77-.77,2.64-2.15,1.5-2.34a2.76,2.76,0,0,0-2.79,1.58C384.76,737.34,385.1,737.66,385.26,737.89Zm68.47-109.33c0-.76-.43-1.13-1.18-1a1.16,1.16,0,0,0-.68.57c-.31.67-.07,1.31.63,1.32C452.9,629.49,453.32,628.89,453.73,628.56ZM386,753.28a2.15,2.15,0,0,0,.81-.26,7.43,7.43,0,0,0,1.14-1.3c0-.05-.32-.53-.56-.61a1.38,1.38,0,0,0-2,1C385.28,752.39,385.75,752.87,386,753.28Zm1.36-9.43c-.21-.22-.38-.61-.62-.65a1.56,1.56,0,0,0-2,1.39c0,.24.36.78.39.77a10.6,10.6,0,0,0,1.62-.8A3.12,3.12,0,0,0,387.32,743.85Zm-.26-70a12.13,12.13,0,0,0-.28-1.67c-.27.44-.7.85-.77,1.31s.41.71.64,1.07C386.79,674.29,387.07,674,387.06,673.81Zm2-120.65c0,.77.43,1.12,1.16.92.2-.05.52-.44.48-.54a15.21,15.21,0,0,0-.82-1.47C389.6,552.43,389.33,552.8,389.06,553.16Zm-73.34,42.25,1.51-.38c-.13-.25-.28-.72-.38-.71a10.25,10.25,0,0,0-1.53.35Zm90.17-36.61.63-.53a9.66,9.66,0,0,0-1.4-.79c-.15-.06-.45.29-.68.46ZM445.43,592c.72-.05,1-.44.83-1.14-.07-.24-.33-.42-.5-.63a12.12,12.12,0,0,0-.9,1.23C444.83,591.48,445.23,591.78,445.43,592ZM413.71,732.66c1.09,0,1.36-.7,1.51-1.47a.78.78,0,0,0-.48-.63c-1-.06-1.27.68-1.42,1.45C413.28,732.21,413.6,732.48,413.71,732.66Zm.52-128.74c.24,0,.58,0,.71-.11s.39-.62.31-.84c-.29-.82-.76-.78-1.13.12C414,603.31,414.19,603.64,414.23,603.92Z" transform="translate(-293.17 -539.39)"/><path class="cls-1" d="M384.69,703.52a9,9,0,0,1,5.36-4.91c1.43-.58,3.17-.53,4.49-1.28a3.59,3.59,0,0,1,4.29.35c.78.54,1.56,1.08,2.35,1.6,1.15.75,2.26.42,3.54.13,2.06-.46,2.67.49,2,2.75-.26.91-.6,1.8-.91,2.69l.06,0a1.86,1.86,0,0,0-2.13,1.23c-.32,1,.22,1.68,1.2,2l1,1.45a45.79,45.79,0,0,1-3.7,3c-1.59,1-3.65,1.56-4.92,2.88-3.4,3.54-6.77,3.94-11.13,1.61-2.08-1.12-4.89-.91-7.38-1.22-1.49-.19-3,1.25-4.51,0-.94-.81-1.8-1.7-2.69-2.55l0,0c.18-.61.32-1.24.55-1.83.6-1.52,1.16-1.79,1.95-.93s1.57,2,2.49,2.87a1.83,1.83,0,0,0,1.63.37,2.17,2.17,0,0,0,1-1.48,17.13,17.13,0,0,0-.05-2.86c.49-.31,1-.65,1.41-1a30.23,30.23,0,0,0,2.12,3c.25.29,1,.21,1.49.18.11,0,.35-.58.26-.77-.92-1.94-1.89-3.85-2.87-5.76-.49-1-.09-1.49,1.39-1.57a11.66,11.66,0,0,1,1.85.16,2.55,2.55,0,0,0,.11.74c.07.13.31.18.47.27Z" transform="translate(-293.17 -539.39)"/><path class="cls-1" d="M371.6,713.14a14.71,14.71,0,0,0-.64,1.67c-.69,2.62-.68,2.63-3.2,1.51-1.62-.72-2-.56-2.6,1.17-.2.57-.25,1.2-.44,1.77-.4,1.18-1.2,1-2.1.6-.53-.24-1.11-.4-1.67-.59l0-.07c.82-1.54.19-3.08,0-4.63-.1-1,.12-2,1.25-2.17,1.88-.35,2.59-1.46,2.65-3.28,0-.84.68-1.21,1.14-.78,1.78,1.7,2.87,4.2,5.61,4.77Z" transform="translate(-293.17 -539.39)"/><path class="cls-1" d="M376.34,607.06c1.41-.15,2.15-1.17,2.84-2.21,1.22-1.8,2.33-3.68,3.61-5.43.22-.3,1.09-.18,1.64-.11.15,0,.33.54.33.83a3.77,3.77,0,0,1-.21,1.83q-1.92,3.21-4.07,6.29c-1,1.41-2.33,2-3.05,1.29a7.41,7.41,0,0,1-1.12-2.46Z" transform="translate(-293.17 -539.39)"/><path class="cls-1" d="M343,773.58c-.18-.19-.56-.47-.52-.55q2-4.15,4.06-8.27c.07-.14.6-.15.86-.06s.52.39.51.58c0,.6,0,1.42-.32,1.75a15.65,15.65,0,0,0-3.74,6.32C343.78,773.51,343.29,773.51,343,773.58Z" transform="translate(-293.17 -539.39)"/><path class="cls-1" d="M340.48,725.76c-.45,4-3.31,4.85-6.67,5-.27,0-.55-.23-.83-.36.22-.48.32-1.21.69-1.39,2.25-1.12,4.56-2.12,6.85-3.16Z" transform="translate(-293.17 -539.39)"/><path class="cls-1" d="M361,719.27c-.36,1.16-.7,2.32-1.1,3.47-.1.27-.45.7-.58.66-.54-.15-1.3-.31-1.5-.71a7.22,7.22,0,0,1-.65-2.6c-.13-1.58.62-2.09,2.12-1.52l1.67.63Z" transform="translate(-293.17 -539.39)"/><path class="cls-1" d="M353.05,724.71a1.81,1.81,0,0,1-1.88-1.46c-.32-1,.16-2.28.84-2.34.25,0,.65,0,.76.2a7.15,7.15,0,0,1,1.19,2.22C354.05,723.7,353.37,724.25,353.05,724.71Z" transform="translate(-293.17 -539.39)"/><path class="cls-1" d="M389.57,609.15c.6-.12,1.19-.28,1.79-.36a4,4,0,0,1,1.61,0c.61.19.38,1.71-.39,2.52a15.42,15.42,0,0,1-2,1.94,4.08,4.08,0,0,1-1.5.36c.05-.57.09-1.15.17-1.72.12-.91.26-1.82.39-2.74Z" transform="translate(-293.17 -539.39)"/><path class="cls-1" d="M389.62,609.11c-.6-.12-1.21-.23-1.81-.36-1.5-.32-2-1.33-1.22-2.54a4,4,0,0,1,1.24-1.32,2.81,2.81,0,0,1,1.59-.17c.18,0,.46.5.44.76-.05,1.23-.18,2.45-.29,3.67Z" transform="translate(-293.17 -539.39)"/><path class="cls-1" d="M354.44,761c-.57-.07-1.14-.1-1.7-.2a3.27,3.27,0,0,1-1.51-.38c-.56-.47-.14-1.87.73-2.21a1.61,1.61,0,0,1,1.5.27,11.44,11.44,0,0,1,1,2.46Z" transform="translate(-293.17 -539.39)"/><path class="cls-1" d="M317.49,727.19c.56-2.35.89-3.86,1.31-5.35,0-.16.62-.31.86-.22s.51.6.44.75C319.41,723.74,318.65,725.07,317.49,727.19Z" transform="translate(-293.17 -539.39)"/><path class="cls-1" d="M407.22,694.1c.34-.47.57-1.14,1-1.33.92-.39,1.62.24,2.15,1,.93,1.27,1,2.1.17,3.16-.18.22-.6.53-.73.46A4,4,0,0,1,407.22,694.1Z" transform="translate(-293.17 -539.39)"/><path class="cls-1" d="M439.56,688.18c-.38-.34-1-.63-1.07-1-.15-.72.95-1.58,1.87-1.41a1.51,1.51,0,0,1,1,1C441.49,687.67,440.63,688.28,439.56,688.18Z" transform="translate(-293.17 -539.39)"/><path class="cls-1" d="M442.68,693.1c.26-1.17.5-2.35.79-3.51a3.08,3.08,0,0,1,.44-.73c-.77,1,.61-.68.69.6a3.19,3.19,0,0,1-2,3.57Z" transform="translate(-293.17 -539.39)"/><path class="cls-1" d="M419.15,652.33a4.51,4.51,0,0,1-1.35-.82c-.38-.51.6-1.14,1.74-.89.43.09.75.68,1.12,1Z" transform="translate(-293.17 -539.39)"/><path class="cls-1" d="M400.51,609c-.2-.09-.5-.13-.59-.29a2,2,0,0,1,.29-2.36c.15-.17.53-.37.67-.3a1.14,1.14,0,0,1,.49.7A1.92,1.92,0,0,1,400.51,609Z" transform="translate(-293.17 -539.39)"/><path class="cls-1" d="M343.81,761.94c-.21-.13-.51-.22-.61-.4a2,2,0,0,1,.43-2.41.88.88,0,0,1,.71-.2c.67.17.76,1.34.15,2.43C344.36,761.61,344,761.75,343.81,761.94Z" transform="translate(-293.17 -539.39)"/><path class="cls-1" d="M334.2,756.42c.13-.27.2-.68.42-.77.55-.26.84.15.63,1-.06.24-.43.4-.66.6Z" transform="translate(-293.17 -539.39)"/><path class="cls-1" d="M336.61,761.48l-.9,1.48c-.18-.25-.57-.58-.51-.74a9.09,9.09,0,0,1,.87-1.51Z" transform="translate(-293.17 -539.39)"/><path class="cls-1" d="M315.18,698c0-.23-.14-.62-.09-.64a1.55,1.55,0,0,1,.88-.16c.26.07.46.35.69.53-.2.18-.38.46-.6.49A2.65,2.65,0,0,1,315.18,698Z" transform="translate(-293.17 -539.39)"/><path class="cls-1" d="M338.14,769a5.74,5.74,0,0,1,.59-1.46,1.08,1.08,0,0,1,.56.1,5.82,5.82,0,0,1,0,1.56.82.82,0,0,1-.68.46A.84.84,0,0,1,338.14,769Z" transform="translate(-293.17 -539.39)"/><path class="cls-1" d="M382.85,579.18a8.59,8.59,0,0,1-.44,1.78c-.34.71-1,.91-1.31.42a1.75,1.75,0,0,1,0-1.56c.31-.44,1-.61,1.53-.89Z" transform="translate(-293.17 -539.39)"/><path class="cls-1" d="M377.54,707.09A12.27,12.27,0,0,1,376,706c-.56-.56-.54-1.15,0-1.49.23-.14.68-.27.84-.16.72.55,1.38,1.18,2.06,1.78Q378.2,706.58,377.54,707.09Z" transform="translate(-293.17 -539.39)"/><path class="cls-1" d="M403.5,632.69a12,12,0,0,1-.41,1.72c-.29.75-.88,1-1.1.56a1.78,1.78,0,0,1,0-1.53c.27-.42.94-.59,1.43-.87Z" transform="translate(-293.17 -539.39)"/><path class="cls-1" d="M434.6,583.38c-.42.64-1.06.88-1.31.4-.14-.27.39-.9.61-1.37C434.14,582.72,434.37,583.05,434.6,583.38Z" transform="translate(-293.17 -539.39)"/><path class="cls-1" d="M437,650.86c.53-.28,1.06-.79,1.58-.79.94,0,.8.66-.56,2.14Q437.48,651.55,437,650.86Z" transform="translate(-293.17 -539.39)"/><path class="cls-1" d="M403.41,632.57l1-.68c-.06.2-.05.5-.19.6a2.24,2.24,0,0,1-.76.2Z" transform="translate(-293.17 -539.39)"/><path class="cls-1" d="M407.74,597.86c-.13-.2-.46-.56-.39-.67.48-.79.91-.71,1.06.2C408.43,597.51,408,597.71,407.74,597.86Z" transform="translate(-293.17 -539.39)"/><path class="cls-1" d="M446.49,643.14c-1.45-1.2-1.45-1.2-.23-2.64q.45.78.87,1.59a7.84,7.84,0,0,1-.71,1.09Z" transform="translate(-293.17 -539.39)"/><path class="cls-1" d="M378.89,706.1l1.63,2.15c-.45.35-.92.69-1.41,1-.52-.72-1-1.45-1.57-2.17C378,706.75,378.43,706.42,378.89,706.1Z" transform="translate(-293.17 -539.39)"/><polygon class="cls-2" points="91.6 71.83 90.93 71.99 91.09 71.36 91.6 71.83"/><path class="cls-1" d="M340.52,725.81c.2-.21.54-.63.59-.59.52.33.29.54-.63.54Z" transform="translate(-293.17 -539.39)"/><path class="cls-3" d="M315,615.19c.3.8.4,2.07.94,2.32,1.83.8,1.92,2.14,1.74,3.73-.45.31-1.08.53-1.29,1s.14,1,.24,1.45a2.57,2.57,0,0,0,.73-.34c.4-.37.75-.8,1.12-1.21,1.56-.12,3.13-.33,4.7-.34.49,0,1.36.45,1.39.77a2.27,2.27,0,0,1-.77,1.53c-1.09,1.09-2.28,2.09-3.43,3.13l-.78,1,1.12-.48a13.44,13.44,0,0,1,1.56,2.24c.37.84.11,2.27.67,2.66,2,1.38,1.81,3.95,3.37,5.56,2.42,2.5,4.66,5.16,6.89,7.83.25.31-.06,1.09-.11,1.64a6.52,6.52,0,0,1-1.61-.22c-.55-.22-1-.88-1.53-.92a3.1,3.1,0,0,0-1.66.7c-.16.1-.14.63-.05.91.21.6.56,1.15.77,1.74a17.33,17.33,0,0,1,.42,1.76c-.63,0-1.27.09-1.9.09a2.69,2.69,0,0,1-.94-.16,50.08,50.08,0,0,1-25.24-20.75c-1.65-2.58-1.14-5.58-2.2-8.2s-.3-5,.68-7.37c1.43-1.15,1.68-2,.69-1.91-.45.06-.82.75-1.23,1.15a1.93,1.93,0,0,1-1.36-2.18,20.09,20.09,0,0,1,1.51-3.44c.5-1.06,0-1.7-.82-2.36a1.73,1.73,0,0,1-.43-2.48c1.17-1.48,2.54-2.8,3.81-4.2.42-.45,1-.89,1.15-1.42.34-1.5.23-3.13.76-4.54s2.48-2.3,2.16-4c-.42-2.31.75-3.59,2.36-4.74s2.95-2.34,1.76-4.62c-.15-.29.41-1.2.85-1.5,1.84-1.22,3.78-2.31,5.66-3.47,1.17-.73,1.94-1.55.89-3-.45-.63-.05-1.2.64-1.55,2.27-1.15,4.51-2.33,6.75-3.52,1.58-.84,2.57-1.81.85-3.52-.13-.12.34-1.16.76-1.47,1.62-1.21,3.6-1,5.49-1.19a10.83,10.83,0,0,0,2.72-.72,1.63,1.63,0,0,0,1-2.23c-.11-.45.15-1.43.33-1.45,1.88-.25,3.79-.24,5.65-.56a8.49,8.49,0,0,0,2.45-1.35c-.65-.6-1.3-1.19-1.94-1.81-.17-.17-.4-.44-.38-.63s.3-.75.43-.74c3.47.3,6.94.66,10.42,1,.26,0,.69,0,.8-.22.45-.7.19-1.16-.47-1.57a31.11,31.11,0,0,1-3-2.22c-.52-.43-.37-.71.13-.95,1.86-.89,3.68-.06,5.5.08s3.84.48,4.32-2.25c.08-.41.95-.81,1.53-1,5.52-1.55,11.07-3,16.83-1.21l0-.06c-.27,3,1.06,5.32,3,7.41a.85.85,0,0,1-.21,1.48,1,1,0,0,1-.79-.12c-2-1.42-3.94-2.88-5.9-4.32a10.72,10.72,0,0,0-2-1.45c-.39-.16-1,.26-1.55.42a5.27,5.27,0,0,0,.65,1.42,6.38,6.38,0,0,0,1.46.93c.19.84,1.28,1.58.45,2.49-.17.19-1.08-.15-1.56-.42-1.09-.61-2.1-1.38-3.2-2a6.86,6.86,0,0,0-1.84-.41c-1.09-.2-2.11.8-2.22,2.21,0,.31.14.63.11.94-.12,1.44-.49,1.9-1.57,1.76-1.86-.24-3.71-.83-5.36.71a5.17,5.17,0,0,1-3.52,1.08c-1.22.06-2.72.13-3.58.84-2,1.62-3.69,3.35-6.55,3.27-.69,0-1.42,1.08-2.1,1.69-.93.82-1.7,2.08-2.77,2.41-2.5.77-4.66,1.63-6.05,4.13-.51.92-2.07,1.3-3.2,1.82A4.8,4.8,0,0,0,327,573c-.42,2.27-2.11,3-3.87,3.7-1.92.79-2.27,1.89-1,3.6.2.27-.14,1.24-.51,1.57-1.88,1.66-4.84,1.59-6.38,3.86-.37.34-1.11.86-1,1,.49,1.06,1.2.66,1.86.1.74.42,2,.35,1.94,1.57,0,.47-.58,1-1,1.34a10.66,10.66,0,0,1-1.74.68c-.86.38-1.72.76-2.54,1.22-1.58.88-2.14,2.11-1.28,3.86a2.49,2.49,0,0,1,.31,1.77c-1.77,4.24-1.08,8.43,0,12.66.23.88-.17,2,.22,2.75s1.4,1,2.14,1.49A11.62,11.62,0,0,0,315,615.19Z" transform="translate(-293.17 -539.39)"/><path class="cls-3" d="M367.9,769.93c1.75-2.12,3.41-4.32,5.28-6.32,1.62-1.73,2.31-1.88,4,.84-.87.28-1,.62-.37.87.12,0,.42-.33.63-.51a4.05,4.05,0,0,0,3.53-1c6.75-6.28,13.66-12.39,19.58-19.5a8.06,8.06,0,0,0,1.53-2.38,6,6,0,0,1,3.85-3.82c1.71-.67,3.1-2.13,4.71-3.09.29-.18,1,.27,1.49.56a1,1,0,0,1,.24.85,7.81,7.81,0,0,1-.89,2.66,90.92,90.92,0,0,1-6.51,8.21c-6.09,6.49-12.34,12.83-17.67,20a18.34,18.34,0,0,1-4,4c-3.62,2.54-7.41,4.82-11.13,7.21l-1.62-2.67a11.1,11.1,0,0,0,1.34-2.12,1.46,1.46,0,0,0-.49-1.36c-.41-.18-1,.13-1.58.23Z" transform="translate(-293.17 -539.39)"/><path class="cls-3" d="M409.81,550.58a7.5,7.5,0,0,0-2.67.21c-2.61,1.24-2.7,1.44-4.31-.37-1.47-1.65-2.88-2.1-4.88-.86a3,3,0,0,1-2.61,0c-1.86-1.13-3.5-2.61-5.31-3.83-1-.64-1.85,0-2.32.81a2.14,2.14,0,0,1-3.15.9c-2.26-1.07-3.46-3.74-6.18-4.15l0,.06c.84-.37,1.67-1.07,2.51-1.07a74.16,74.16,0,0,1,8.43.45c3.72.43,7.43,1,11.12,1.69,4,.75,7.91,2,11,4.85Z" transform="translate(-293.17 -539.39)"/><path class="cls-3" d="M372.17,778.56c-.62.65-1.13,1.66-1.89,1.89-1.74.53-3.74.36-5.35,1.1-1.33.6-2.2,2.17-3.4,3.15a1.88,1.88,0,0,1-1.73.09,2.56,2.56,0,0,1-.86-1.58,2.82,2.82,0,0,1,.08-1.8c.45-.79,1.23-1.39,1.77-2.15s1-1.65.15-2.39c-.38-.34-1.16-.24-1.76-.34l-1.64-2.42c2-2.82,4.06-5.66,6.18-8.43a1.67,1.67,0,0,1,1.59-.3,2.06,2.06,0,0,1,.82,1.45c.07.6-.33,1.25-.26,1.86.12,1.2,1.13,1.19,2,1.24l1.92,2.71A8.07,8.07,0,0,0,369,774c-.48,1.29-.34,1.43,1.56,1.88Z" transform="translate(-293.17 -539.39)"/><path class="cls-3" d="M359.18,776.53c-.29,3.27-1.3,6.24-3.94,8.35-.63.52-2,1-2.54.61-2.82-1.82-3.81.64-5.38,2a1.88,1.88,0,0,1-1.71.13c-.42-.24-.57-1-.75-1.55a2.19,2.19,0,0,1,0-.95,3.55,3.55,0,0,1,.23-.92A165,165,0,0,1,354,767.4c.41-.66,1.65-.82,2.5-1.21L358,768c-.61,1.29-1.26,2.57-1.83,3.87s-.6,1.45,1.33,2.24Zm-7.43,2.54c.08.6.17,1.2.25,1.8a4.25,4.25,0,0,0,1.53-.59,2.77,2.77,0,0,0,.83-1.6c0-.41-.44-.92-.78-1.29-.11-.11-.66,0-.81.17A12.1,12.1,0,0,0,351.75,779.07Z" transform="translate(-293.17 -539.39)"/><path class="cls-3" d="M401.13,652.92c3.15,3,2.83,6.92,2.95,10.68a30.73,30.73,0,0,1-.89,5.75,4.9,4.9,0,0,1-.95-.73,1.9,1.9,0,0,1-.31-.84q-1-7.06-2-14.14Z" transform="translate(-293.17 -539.39)"/><path class="cls-3" d="M411.5,549.28c1.49.53,3,1,4.46,1.59,1.24.49,2.61,2.15,2.39,2.73-.37,1-1.43,1-2.15,1.43s-1.27,1.42-2,1.9a1.85,1.85,0,0,1-1.6-.44c-1.76-1.55-2.06-3.83-2.75-5.91Z" transform="translate(-293.17 -539.39)"/><path class="cls-3" d="M379.92,675c.16-1.05.29-2,.47-2.88a.65.65,0,0,1,.55-.13c.25.13.56.36.62.6.53,2.13,1.16,4.28.25,6.44-.17.42-.84.63-1.29.94-.3-.45-.84-.9-.86-1.36A34,34,0,0,1,379.92,675Z" transform="translate(-293.17 -539.39)"/><path class="cls-3" d="M405.17,729a4.58,4.58,0,0,1,3.78-2c.51,0,1,.52,1.46.85a1.13,1.13,0,0,1-.35.68c-1.3.67-2.64,1.28-4,1.92C405.81,730,405.5,729.49,405.17,729Z" transform="translate(-293.17 -539.39)"/><path class="cls-3" d="M378.07,744.72c-.35-.31-.63-.44-.72-.66s-.11-.66,0-.76A8,8,0,0,1,379.5,742c.3-.09.87.58,1.27.95a1.4,1.4,0,0,1-.48.69C379.55,744,378.76,744.38,378.07,744.72Z" transform="translate(-293.17 -539.39)"/><path class="cls-3" d="M368.2,557.93a.84.84,0,1,1,.08-1.67.84.84,0,0,1,.71,1.31C368.9,557.77,368.47,557.82,368.2,557.93Z" transform="translate(-293.17 -539.39)"/><path class="cls-3" d="M382,757c-.11,1.78-1,2.94-2.61,3-.3,0-1-.73-.94-1.09a3,3,0,0,1,3-2.68C381.66,756.27,381.81,756.7,382,757Z" transform="translate(-293.17 -539.39)"/><path class="cls-3" d="M385.26,737.89c-.16-.23-.5-.55-.44-.7a2.76,2.76,0,0,1,2.79-1.58c1.14.19.27,1.57-1.5,2.34C385.88,738.05,385.54,737.92,385.26,737.89Z" transform="translate(-293.17 -539.39)"/><path class="cls-3" d="M453.73,628.56c-.41.33-.83.93-1.23.92-.7,0-.94-.65-.63-1.32a1.16,1.16,0,0,1,.68-.57C453.3,627.43,453.7,627.8,453.73,628.56Z" transform="translate(-293.17 -539.39)"/><path class="cls-3" d="M386,753.28c-.21-.41-.68-.89-.59-1.21a1.38,1.38,0,0,1,2-1c.24.08.6.56.56.61a7.43,7.43,0,0,1-1.14,1.3A2.15,2.15,0,0,1,386,753.28Z" transform="translate(-293.17 -539.39)"/><path class="cls-3" d="M387.32,743.85a3.12,3.12,0,0,1-.57.71,10.6,10.6,0,0,1-1.62.8s-.43-.53-.39-.77a1.56,1.56,0,0,1,2-1.39C386.94,743.24,387.11,743.63,387.32,743.85Z" transform="translate(-293.17 -539.39)"/><path class="cls-3" d="M387.06,673.81c0,.23-.27.48-.41.71-.23-.36-.68-.75-.64-1.07s.5-.87.77-1.31A12.13,12.13,0,0,1,387.06,673.81Z" transform="translate(-293.17 -539.39)"/><path class="cls-3" d="M389.06,553.16c.27-.36.54-.73.82-1.09a15.21,15.21,0,0,1,.82,1.47c0,.1-.28.49-.48.54C389.49,554.28,389.1,553.93,389.06,553.16Z" transform="translate(-293.17 -539.39)"/><path class="cls-3" d="M371.55,591.26c-.5,1.12-1,2.24-1.51,3.34-.1.2-.4.31-.61.46a4.35,4.35,0,0,1-.49-1.63,3.66,3.66,0,0,1,1.87-3Z" transform="translate(-293.17 -539.39)"/><path class="cls-3" d="M314.11,614.14c.41-.41.79-.85,1.24-1.22a2.39,2.39,0,0,1,.79-.28c.11.54.45,1.18.27,1.57s-.9.67-1.37,1A11.62,11.62,0,0,1,314.11,614.14Z" transform="translate(-293.17 -539.39)"/><path class="cls-3" d="M315.72,595.41l-.4-.74a10.25,10.25,0,0,1,1.53-.35c.1,0,.25.46.38.71Z" transform="translate(-293.17 -539.39)"/><path class="cls-3" d="M405.89,558.8l-1.45-.86c.23-.17.53-.52.68-.46a9.66,9.66,0,0,1,1.4.79Z" transform="translate(-293.17 -539.39)"/><path class="cls-3" d="M399.93,653.64c-.31-.47-.82-.92-.88-1.42s.41-.93.64-1.4a3.19,3.19,0,0,1,.63.58c.3.48.53,1,.8,1.52C400.73,653.16,400.33,653.41,399.93,653.64Z" transform="translate(-293.17 -539.39)"/><path class="cls-3" d="M445.43,592c-.2-.19-.6-.49-.57-.54a12.12,12.12,0,0,1,.9-1.23c.17.21.43.39.5.63C446.46,591.53,446.15,591.92,445.43,592Z" transform="translate(-293.17 -539.39)"/><path class="cls-3" d="M413.71,732.66c-.11-.18-.43-.45-.39-.65.15-.77.45-1.51,1.42-1.45a.78.78,0,0,1,.48.63C415.07,732,414.8,732.69,413.71,732.66Z" transform="translate(-293.17 -539.39)"/><path class="cls-3" d="M414.23,603.92c0-.28-.21-.61-.11-.83.37-.9.84-.94,1.13-.12.08.22-.12.62-.31.84S414.47,603.89,414.23,603.92Z" transform="translate(-293.17 -539.39)"/><path class="cls-3" d="M406.1,730.46c-.72.32-1.43.67-2.18.93-.16.05-.66-.27-.65-.37a2.11,2.11,0,0,1,.43-1.22,6.23,6.23,0,0,1,1.47-.78C405.5,729.49,405.81,730,406.1,730.46Z" transform="translate(-293.17 -539.39)"/><path class="cls-3" d="M395.21,736.19a13.6,13.6,0,0,1,1.53-1c.12-.06.64.36.62.41-.47,1.1-1.3.9-2.16.55Z" transform="translate(-293.17 -539.39)"/><path class="cls-3" d="M422.46,559.87a1.86,1.86,0,0,1,2-1.44c.44.05.82.66,1.23,1-.2.19-.4.52-.6.52-.88,0-1.75-.09-2.62-.15Z" transform="translate(-293.17 -539.39)"/><path class="cls-3" d="M405,708c-1-.32-1.52-1-1.2-2a1.86,1.86,0,0,1,2.13-1.23Z" transform="translate(-293.17 -539.39)"/><path class="cls-3" d="M393.41,745.25c1.39-1.06,2-1.08,1.74-.17-.13.41-.76.65-1.16,1C393.8,745.77,393.61,745.51,393.41,745.25Z" transform="translate(-293.17 -539.39)"/><path class="cls-3" d="M395.2,736.18c-.18,1.3-1,1.67-2.21,1.56l.05.06a2.57,2.57,0,0,1,2.17-1.61Z" transform="translate(-293.17 -539.39)"/><path class="cls-3" d="M394,746c-.45.32-.89.87-1.36.9-1.1.06-.85-.62.78-1.69C393.61,745.51,393.8,745.77,394,746Z" transform="translate(-293.17 -539.39)"/><path class="cls-3" d="M393,737.74c-.1.2-.21.39-.31.58l.36-.52Z" transform="translate(-293.17 -539.39)"/><path class="cls-3" d="M446.42,643.18a7.84,7.84,0,0,0,.71-1.09l.17.79Z" transform="translate(-293.17 -539.39)"/><path class="cls-3" d="M373.68,601.21c-.38.65-.95.88-1.31.4s0-1,.68-1.26C373.26,600.63,373.48,600.92,373.68,601.21Z" transform="translate(-293.17 -539.39)"/><path class="cls-3" d="M384.69,703.52l.65,1c-.16-.09-.4-.14-.47-.27a2.55,2.55,0,0,1-.11-.74Z" transform="translate(-293.17 -539.39)"/><path class="cls-1" d="M318.52,622.09c-.37.41-.72.84-1.12,1.21a2.57,2.57,0,0,1-.73.34c-.1-.49-.42-1.09-.24-1.45s.84-.64,1.29-1C318,621.53,318.25,621.81,318.52,622.09Z" transform="translate(-293.17 -539.39)"/><path class="cls-1" d="M373,549.07a6.38,6.38,0,0,1-1.46-.93,5.27,5.27,0,0,1-.65-1.42c.52-.16,1.16-.58,1.55-.42a10.72,10.72,0,0,1,2,1.45Z" transform="translate(-293.17 -539.39)"/><path class="cls-1" d="M299.33,614.43c.41-.4.78-1.09,1.23-1.15,1-.13.74.76-.69,1.91Z" transform="translate(-293.17 -539.39)"/><path class="cls-1" d="M316.05,586.8c-.66.56-1.37,1-1.86-.1-.07-.14.67-.66,1-1C315.51,586.06,315.78,586.42,316.05,586.8Z" transform="translate(-293.17 -539.39)"/><path class="cls-2" d="M320.75,627.68l-1.12.48.78-1S320.75,627.68,320.75,627.68Z" transform="translate(-293.17 -539.39)"/><path class="cls-1" d="M370.55,775.89c-1.9-.45-2-.59-1.56-1.88a8.07,8.07,0,0,1,.83-1.37c.54-.1,1.17-.41,1.58-.23a1.46,1.46,0,0,1,.49,1.36A11.1,11.1,0,0,1,370.55,775.89Z" transform="translate(-293.17 -539.39)"/><path class="cls-2" d="M377.46,764.81c-.21.18-.51.56-.63.51-.64-.25-.5-.59.37-.87Z" transform="translate(-293.17 -539.39)"/><path class="cls-1" d="M351.75,779.07a12.1,12.1,0,0,1,1-1.51c.15-.17.7-.28.81-.17.34.37.81.88.78,1.29a2.77,2.77,0,0,1-.83,1.6,4.25,4.25,0,0,1-1.53.59C351.92,780.27,351.83,779.67,351.75,779.07Z" transform="translate(-293.17 -539.39)"/></svg>