<svg xmlns="http://www.w3.org/2000/svg" viewBox="0 0 683.68 1110.35">
	<g><path id="line24" d="M450.31,1142.85c-138.15,85.62-157.87-104.11-286.63-82.9-61.38,10.12-72.16-87.83-55.1-144.2,9.27-30.61,9.94-32.48,31.29-57.16,24.4-28.23,48.29-67.62,47.77-106.85-.47-35.5-10.31-45.28-4.79-80.42,6.62-42.18,8.9-60.52,34.37-96.72,12-17,30.87-35.75,50.13-46.08,33.84-18.15,83.53-45.45,92.93-83.15,8.64-34.62-14.61-74.91-46.46-94.39-34.36-21-82.38-38.68-107.36-69.91-24.18-30.23-10.12-82.65,36-96.4,31.93-9.52,90.25-5.69,120.5-13.37,8.77-2.22,57.48-15.79,59.77-32.2l1.76-30.71" fill="none" fill-rule="evenodd" stroke="#849099" stroke-width="8" stroke-linecap="round" transform="translate(-33.2 -105.46)"/></g>
	<g><path id="line23" d="M428.4,108.39l-1.69,33.68c-1.25,8.49-7.66,25.53-20.37,28.85-197.67,51.64-126,120.76-68.1,176.36,119.41,114.57-7.46,138.93-58.94,234.82-22,41,16.67,61.4-46,153.47-56.18,82.58-17.89,212.29,55.7,203.06C425.54,921.49,357,1107.76,531.71,1035" fill="none" fill-rule="evenodd" stroke="#849099" stroke-width="8" stroke-linecap="round" transform="translate(-33.2 -105.46)"/></g>
	<g><path id="line22" d="M432.61,108.39s-1.17,28.53-2.52,40.75c-2.1,19.08-21.44,44.12-33,59.11-11.87,15.39-25.82,29.64-35.75,46.23-26.07,43.54-2.14,85.77,23.42,126,5.86,9.23,13.49,26.25,15.45,36.79,1.87,10.07,3.39,34,0,43.73-7.71,22.08-20.47,28-40.83,52.13C346,529,336,537.51,337.74,569.49c1.55,28.79,14,38.82,14,73.19,0,23.87-17.72,58.5-22.77,81.94-9.07,42.08-9.78,91.16,44.77,87.54,136.09-9,141.19,174.74,254.9,96.23" fill="none" fill-rule="evenodd" stroke="#849099" stroke-width="8" stroke-linecap="round" transform="translate(-33.2 -105.46)"/></g>
	<g><path id="line21" d="M436.8,108.39l-3.29,45c-6.73,52.67-58.1,153.82-18.43,183.78,33.06,25,21,135.34,12.91,179.36-18.5,100.62-17.22,153.54,45.57,151.9,123.91-3.22,98.88,215.67,237.71,110.08" fill="none" fill-rule="evenodd" stroke="#849099" stroke-width="8" stroke-linecap="round" transform="translate(-33.2 -105.46)"/></g>
	<g><path id="line20" d="M440.94,108.39l-.79,37c.65,15.62-21.71,122.31,11.31,178.19,16.51,27.94-13.85,61.36-.67,95.61,14.53,37.74,39.15,33.72,35,67.19-8.9,72.57,65.58-4.71,98.27,95.09,18.61,56.82,23.66,91.83,130.27,61" fill="none" fill-rule="evenodd" stroke="#849099" stroke-width="8" stroke-linecap="round" transform="translate(-33.2 -105.46)"/></g>
	<g><path id="line19" d="M445,108.39l-1.29,63c-9,72.24,78.87,278.72,128.64,232.85,70.47-64.94,30.32,85,123.75,23.32" fill="none" fill-rule="evenodd" stroke="#849099" stroke-width="8" stroke-linecap="round" transform="translate(-33.2 -105.46)"/></g>
	<g><path id="line18" d="M449.17,108.39s-.76,52,0,81.77c1.18,48.6-78.22,90.28-63.82,131.28,23,65.43,40.06,83.5,25.6,151.07-25.45,118.86,16.87,164.68-96.56,223.84-49.87,26-119.34,107.47-132.36,168C149.57,1015.22,72.83,1030.58,35.7,1030.58" fill="none" fill-rule="evenodd" stroke="#849099" stroke-width="8" stroke-linecap="round" transform="translate(-33.2 -105.46)"/></g>
	<g><path id="line17" d="M453.23,108.39c-3,78.81,15.36,132,20.43,156.3,10,47.82,74.59,73.36,13.67,152.74C439.53,479.7,452.38,512,465.72,609c11,79.89-119.11,154.7-176.68,204.65-73.77,64-111,288.72-217.41,281.51" fill="none" fill-rule="evenodd" stroke="#849099" stroke-width="8" stroke-linecap="round" transform="translate(-33.2 -105.46)"/></g>
	<g><path id="line16" d="M457.41,108.39c.11,4.34,2.16,29.92,2.24,32.69,1.7,59.32,67.9,144,86.59,194.79,30.87,83.78-72.68,109.1-27.82,291.83,22.58,92-136.14,193.48-193.89,237.76-75.46,57.86-87,270.34-188.22,266.39" fill="none" fill-rule="evenodd" stroke="#849099" stroke-width="8" stroke-linecap="round" transform="translate(-33.2 -105.46)"/></g>
	<g><path id="line15" d="M461.39,108.39c0,12.56,2.53,26.75,3.17,30.84,10.43,66.71,114.69,129.42,127.65,193,19.72,96.82-65,151.1-19.9,325.08C599.91,763.72,419.37,854.3,361.51,893c-77.23,51.63-64.43,284.7-160.51,284" fill="none" fill-rule="evenodd" stroke="#849099" stroke-width="8" stroke-linecap="round" transform="translate(-33.2 -105.46)"/></g>
	<g><path id="line14" d="M465.59,108c0,5.24,1.61,24.91,4,32.16s16.4,26.8,26.75,39.57c14.61,18,36.13,32.34,54.42,47.4,17.09,14.07,34.35,28.31,47.51,45.6,24.57,32.27,24.46,66.12,29.16,103.39,4.36,34.58,12.19,69.47,8.59,104.11-7.36,70.81-39.46,44-13.35,205.39C644.45,820.39,456.3,897.28,400.19,933c-107.28,68.26-30.72,275.56-120.89,277.49" fill="none" fill-rule="evenodd" stroke="#849099" stroke-width="8" stroke-linecap="round" transform="translate(-33.2 -105.46)"/></g>
	<g><path id="line13" d="M469.57,108.39s2,22.57,5.09,28.67c21.81,42.77,111,90.06,132.08,116.75,50.68,64,95.24,186.47,51.9,292.69C643,584.78,671.2,661,672.94,690.44,683.7,872.07,562.85,943.82,476.58,968.93c-85.75,25-11.11,238.58-96.86,244.37" fill="none" fill-rule="evenodd" stroke="#849099" stroke-width="8" stroke-linecap="round" transform="translate(-33.2 -105.46)"/></g>
</svg>